SplineFontDB: 3.2
FontName: Sealo-Regular
FullName: Sealo Regular
FamilyName: Sealo
Weight: Regular
Copyright: Copyright (c) 2024-2025, Zamero Type Foundry
UComments: "2024-10-7: Created with FontForge (http://fontforge.org)"
Version: 001.000
ItalicAngle: 0
UnderlinePosition: -100
UnderlineWidth: 50
Ascent: 800
Descent: 200
InvalidEm: 0
LayerCount: 2
Layer: 0 0 "Back" 1
Layer: 1 0 "Fore" 0
XUID: [1021 474 1118879153 12759]
StyleMap: 0x0040
FSType: 0
OS2Version: 0
OS2_WeightWidthSlopeOnly: 0
OS2_UseTypoMetrics: 1
CreationTime: 1728346564
ModificationTime: 1738686025
PfmFamily: 17
TTFWeight: 400
TTFWidth: 5
LineGap: 90
VLineGap: 0
OS2TypoAscent: 0
OS2TypoAOffset: 1
OS2TypoDescent: 0
OS2TypoDOffset: 1
OS2TypoLinegap: 90
OS2WinAscent: 0
OS2WinAOffset: 1
OS2WinDescent: 0
OS2WinDOffset: 1
HheadAscent: 0
HheadAOffset: 1
HheadDescent: 0
HheadDOffset: 1
OS2Vendor: 'ZAM '
Lookup: 258 0 0 "'kern' Horizontal Kerning in Latin lookup 1" { "'kern' Horizontal Kerning in Latin lookup 1-1" [150,15,2] } ['kern' ('DFLT' <'dflt' > 'latn' <'dflt' > ) ]
MarkAttachClasses: 1
DEI: 91125

StartChar: I
Encoding: 73 73 0
Width: 234
Flags: W
HStem: -9.99805 21G<94.4375 141.044> -9.99805 21G<94.4375 141.044> 719 20G<93.807 136.662>
VStem: 60 114<61.2778 607.922>
LayerCount: 2
Fore
SplineSet
60 339 m 4xb0
 60 695.028320312 72.6140136719 739 115 739 c 0
 158.324523926 739 174 700.951171875 174 335.001953125 c 4
 174 43.591796875 164.087218238 -9.998046875 118 -9.998046875 c 0
 70.875 -9.998046875 60 37.748046875 60 339 c 4xb0
EndSplineSet
Validated: 1
EndChar

StartChar: O
Encoding: 79 79 1
Width: 789
Flags: W
HStem: -9.99805 105.899<288.274 500.26> 627.101 111.899<288.74 500.726>
VStem: 35 111.9<241.477 479.299> 642.1 111.9<247.707 480.926>
LayerCount: 2
Fore
SplineSet
146.900390625 360.900390625 m 0
 146.900390625 200.36359237 238.687399364 95.9013671875 395.700195312 95.9013671875 c 0
 552.618753675 95.9013671875 642.099609375 206.614695249 642.099609375 367.301757812 c 0
 642.099609375 517.745133934 550.312600636 627.100585938 393.299804688 627.100585938 c 0
 236.381246325 627.100585938 146.900390625 511.887407025 146.900390625 360.900390625 c 0
35 359 m 0
 35 568.047661939 177.994140625 739 393 739 c 0
 607.954101562 739 754 575.846200568 754 367.001953125 c 0
 754 146.910275136 611.005859375 -9.998046875 396 -9.998046875 c 0
 181.045898438 -9.998046875 35 138.65399777 35 359 c 0
EndSplineSet
Validated: 1
EndChar

StartChar: H
Encoding: 72 72 2
Width: 753
Flags: W
HStem: -9.99805 21G<106.039 154.841 598.291 642.093> 313.501 102<165.967 586.216> 719 20G<106.039 154.841 598.291 642.093>
VStem: 52 132.132<76.5214 311.286 416.882 652.884> 72.501 89.499<212.362 515.078> 569 132.132<94.2503 311.286 416.882 635.22> 591.132 90.3672<210.295 516.633>
LayerCount: 2
Fore
SplineSet
372.500976562 313.500976562 m 0xea
 105.479736328 313.500976562 72.5009765625 313.850244634 72.5009765625 362.500976562 c 0
 72.5009765625 412.235669089 101.131732393 415.500976562 376.499023438 415.500976562 c 0
 634.122494905 415.500976562 681.499023438 415.345659149 681.499023438 365.500976562 c 0
 681.499023438 313.500976562 639.225291975 313.500976562 372.500976562 313.500976562 c 0xea
701.131835938 365 m 4xe4
 701.131835938 126.773229598 669.053496308 -9.998046875 615.131835938 -9.998046875 c 0
 581.44921875 -9.998046875 569 10.2880345395 569 44.001953125 c 0xe4
 569 84.6788668058 591.131835938 165.820967783 591.131835938 364.001953125 c 4xe2
 591.131835938 562.800322806 569 644.195798439 569 685 c 0
 569 718.713918586 581.44921875 739 615.131835938 739 c 0
 669.053496308 739 701.131835938 603.086914062 701.131835938 365 c 4xe4
52 365 m 0xf0
 52 603.086914062 74.0783396291 739 138 739 c 0
 171.682617188 739 184.131835938 718.713918586 184.131835938 685 c 0xf0
 184.131835938 644.195798439 162 562.800322806 162 364.001953125 c 0xe8
 162 165.820967783 184.131835938 84.6788668058 184.131835938 44.001953125 c 0
 184.131835938 10.2880345395 171.682617188 -9.998046875 138 -9.998046875 c 0
 74.0783396291 -9.998046875 52 126.773229598 52 365 c 0xf0
EndSplineSet
Validated: 5
EndChar

StartChar: J
Encoding: 74 74 3
Width: 454
Flags: W
HStem: -9.99609 109.231<48.9937 175.364> 639.226 99.7744<48.693 265.511>
VStem: 292.132 110<248.631 613.531>
LayerCount: 2
Fore
SplineSet
402.131835938 421 m 0
 402.131835938 147.19921875 289.484375 -9.99609375 100.131835938 -9.99609375 c 0
 44.544921875 -9.99609375 24 7.66015625 24 37.00390625 c 0
 24 88.0517578125 74.158203125 82.1494140625 129 99.2353515625 c 0
 205.41796875 123.04296875 292.131835938 176.16796875 292.131835938 420.001953125 c 0
 292.131835938 577.560546875 287.932617188 595.140625 270 615 c 0
 250.90234375 636.150390625 224.823242188 639.225585938 142 639.225585938 c 0
 68.51171875 639.225585938 37.1337890625 646.995117188 37.1337890625 687 c 0
 37.1337890625 735.795898438 87.42578125 739 197 739 c 0
 306.76953125 739 336.438476562 724.791992188 363 696 c 0
 399.873046875 656.03125 402.131835938 606.279296875 402.131835938 421 c 0
EndSplineSet
Validated: 1
EndChar

StartChar: L
Encoding: 76 76 4
Width: 613
Flags: W
HStem: -10 101<200.198 484.839> 719 20G<106.039 154.841>
VStem: 52 110<141.466 640.256>
LayerCount: 2
Fore
SplineSet
52 365 m 0
 52 603.086914062 74.0783396291 739 138 739 c 4
 171.682617188 739 184.131835938 718.713918586 184.131835938 685 c 4
 184.131835938 644.195798439 162 562.800322806 162 364.001953125 c 0
 162 241.497146353 172.782617908 158.193379759 190 127 c 0
 207.329604792 96.9280464125 226.260970609 91 315 91 c 0
 435.943645541 91 485.889320738 119.28125 534.23046875 119.28125 c 0
 567.856868814 119.28125 583.499023438 100.626102091 583.499023438 73 c 0
 583.499023438 18.7175102599 522.837567058 -10 282.500976562 -10 c 0
 196.591386672 -10 147.203396993 2.62902513279 111 38 c 0
 59.2384259259 88.5714238923 52 180.966408243 52 365 c 0
EndSplineSet
Validated: 1
EndChar

StartChar: E
Encoding: 69 69 5
Width: 633
Flags: W
HStem: -10 101<202.572 526.362> 313.501 102<165.088 479.126> 638 101<203.889 554.043>
VStem: 72.501 89.499<226.262 501.36>
LayerCount: 2
Fore
SplineSet
222.500976562 313.500976562 m 0
 88.9903564453 313.500976562 72.5009765625 313.850244634 72.5009765625 362.500976562 c 0
 72.5009765625 412.235669089 87.00462395 415.500976562 226.499023438 415.500976562 c 0
 432.958760942 415.500976562 491.499023438 415.345659149 491.499023438 365.500976562 c 0
 491.499023438 313.500976562 437.28666739 313.500976562 222.500976562 313.500976562 c 0
162 365.001953125 m 4
 162 241.980252694 169.869021096 156.537050095 190 127 c 4
 210.730207182 96.5837360461 234.963603555 91 345 91 c 4
 460.426910288 91 508.094358582 115.28125 554.23046875 115.28125 c 4
 587.856868814 115.28125 603.499023438 94.2384308775 603.499023438 73 c 4
 603.499023438 18.7175102599 544.852910912 -10 312.500976562 -10 c 4
 211.563555645 -10 154.176025808 3.19502522567 111 38 c 4
 54.6607642456 83.4160762257 52 180.966408243 52 365 c 4
 52 549.033591757 59.2384259259 644.428576108 111 692 c 4
 151.332900096 729.067912281 211.563555645 739 312.500976562 739 c 4
 547.852910912 739 603.499023438 713.050442536 603.499023438 664 c 4
 603.499023438 640.250003017 588.491843991 616.71875 556.23046875 616.71875 c 4
 509.653351013 616.71875 461.530257339 638 345 638 c 4
 234.963603555 638 211.488709943 632.071953587 190 602 c 4
 169.285161359 573.011025424 162 487.502853647 162 365.001953125 c 4
EndSplineSet
Validated: 5
EndChar

StartChar: F
Encoding: 70 70 6
Width: 623
Flags: W
HStem: -9.99805 21G<106.039 154.841> 283.501 102<166.04 479.593> 638 101<203.878 544.945>
VStem: 52 132.132<76.5214 279.385> 82.501 79.499<201.298 434.628>
LayerCount: 2
Fore
SplineSet
162 364.001953125 m 0xe8
 162 165.820967783 184.131835938 84.6788668058 184.131835938 44.001953125 c 0
 184.131835938 10.2880345395 171.682617188 -9.998046875 138 -9.998046875 c 0
 74.0783396291 -9.998046875 52 126.773229598 52 365 c 0xf0
 52 549.033591757 59.2384259259 644.428576108 111 692 c 0
 151.332900096 729.067912281 211.563555645 739 312.500976562 739 c 0
 539.76516129 739 593.499023438 713.050442536 593.499023438 664 c 0
 593.499023438 640.250003017 578.491843991 616.71875 546.23046875 616.71875 c 0
 501.858388857 616.71875 456.013522086 638 345 638 c 0
 234.963603555 638 211.428812678 632.114664779 190 602 c 0
 169.285161359 572.888708068 162 487.019739343 162 364.001953125 c 0xe8
232.500976562 283.500976562 m 0
 98.9903564453 283.500976562 82.5009765625 283.850244634 82.5009765625 332.500976562 c 0xe8
 82.5009765625 382.235669089 97.00462395 385.500976562 236.499023438 385.500976562 c 0
 435.167827451 385.500976562 491.499023438 385.345659149 491.499023438 335.500976562 c 0
 491.499023438 283.500976562 439.302011244 283.500976562 232.500976562 283.500976562 c 0
EndSplineSet
Validated: 5
EndChar

StartChar: C
Encoding: 67 67 7
Width: 733
Flags: W
HStem: -10.0889 106.899<291.663 512.794> 632.101 106.899<297.761 502.629>
VStem: 35 117.9<241.824 480.399>
LayerCount: 2
Fore
SplineSet
399.299804688 96.810546875 m 0
 578.863705111 96.8105468755 578.965220281 205 646.14453125 205 c 0
 676.014832747 205 693.522460938 187.354506667 693.522460938 157.190429688 c 0
 693.522460938 96.1437418169 579 -10.0888671875 396 -10.0888671875 c 0
 181.045879252 -10.0888671875 35 138.65399777 35 359 c 0
 35 568.047661939 177.994140625 739 393 739 c 4
 575.619501747 739 690.522460938 626.41677792 690.522460938 561.720703125 c 4
 690.522460938 531.556626146 673.014832747 513.911132812 643.14453125 513.911132812 c 4
 575.965220281 513.911132812 575.863705111 632.100585937 396.299804688 632.100585938 c 4
 241.291785264 632.100585938 152.900390625 514.723374448 152.900390625 360.900390625 c 0
 152.900390625 201.570228414 243.579482197 96.8105468745 399.299804688 96.810546875 c 0
EndSplineSet
Validated: 1
EndChar

StartChar: G
Encoding: 71 71 8
Width: 766
Flags: W
HStem: -10.0889 106.899<290.56 520.995> 306.501 96<407.223 617.771> 632.101 106.899<297.761 509.637>
VStem: 35 117.9<241.824 480.399> 621 110.499<184.452 299.959>
LayerCount: 2
Fore
SplineSet
528 306.500976562 m 4
 485.127643393 306.500976562 450.687510628 299.375 423.600585938 299.375 c 4
 387.204640815 299.375 372.500976562 316.251824005 372.500976562 346 c 4
 372.500976562 391.950451244 417.786840003 402.500976562 577.500976562 402.500976562 c 4
 706.99537605 402.500976562 731.499023438 364.491731817 731.499023438 280 c 4
 731.499023438 93.7676868879 602.358609349 -10.0888671875 396 -10.0888671875 c 4
 181.045879252 -10.0888671875 35 138.65399777 35 359 c 0
 35 568.047661939 177.994140625 739 393 739 c 0
 575.619501747 739 690.522460938 632.767390996 690.522460938 571.720703125 c 0
 690.522460938 541.556626146 673.014832747 523.911132812 643.14453125 523.911132812 c 0
 575.965220281 523.911132812 575.863705111 632.100585937 396.299804688 632.100585938 c 0
 241.291785264 632.100585938 152.900390625 514.723374448 152.900390625 360.900390625 c 0
 152.900390625 201.570228414 243.579482197 96.810546875 399.299804688 96.810546875 c 4
 539.610352464 96.810546875 621 158.406382275 621 272 c 4
 621 299.586995411 607.309030728 306.500976562 528 306.500976562 c 4
EndSplineSet
Validated: 1
EndChar

StartChar: V
Encoding: 86 86 9
Width: 734
Flags: W
HStem: -10 115<338.578 394.567> 718.998 20G<62.2353 100.024 637.388 674.078>
VStem: 32 122<560.315 695.722> 583.412 119<560.817 694.177>
LayerCount: 2
Fore
SplineSet
367 105 m 0
 415.255065322 105 521.285701868 369.56447216 583.412109375 619.5390625 c 0
 606.912809029 714.097528125 617.084168323 738.998046875 657.692382812 738.998046875 c 0
 690.4628927 738.998046875 702.412109375 710.56784446 702.412109375 677.998046875 c 0
 702.412109375 593.260804438 611.483652504 319.577842609 539.961914062 171.998046875 c 0
 470.333517681 28.3250218718 424.14900691 -10 367 -10 c 0
 310.124264799 -10 269.338463501 30.9901083596 194.450195312 171.998046875 c 0
 117.497030248 316.894002281 32 593.260804438 32 677.998046875 c 0
 32 710.56784446 44.7508237688 738.998046875 79.7197265625 738.998046875 c 0
 120.327941052 738.998046875 131.103912359 713.275963761 154 619.5390625 c 0
 217.032418396 361.483464876 320.053698451 105 367 105 c 0
EndSplineSet
Validated: 1
EndChar

StartChar: U
Encoding: 85 85 10
Width: 753
Flags: W
HStem: -9.99805 105.899<261.127 481.206> 719 20G<106.039 154.841 598.291 642.093>
VStem: 52 109.9<205.657 616.369> 591.1 109.9<212.19 620.492>
LayerCount: 2
Fore
SplineSet
52 345 m 0
 52 585.8188346 74.0783396291 739 138 739 c 0
 171.682617188 739 184.131835938 718.713918586 184.131835938 685 c 0
 184.131835938 641.677794691 162 555.259451194 161.900390625 340.900390625 c 0
 161.900390625 192.479621793 209.668472233 95.9013671875 372.700195312 95.9013671875 c 0
 541.787056912 95.9013671875 591.099609375 199.397295936 591.099609375 347.301757812 c 0
 591.099609375 554.256803239 569 641.627058916 569 685 c 0
 569 718.713918586 581.44921875 739 615.131835938 739 c 0
 669.053496308 739 701 585.688133653 701 347.001953125 c 0
 701 138.586226223 599.988608589 -9.998046875 373 -9.998046875 c 0
 151.86352742 -9.998046875 52 133.014052945 52 345 c 0
EndSplineSet
Validated: 1
EndChar

StartChar: N
Encoding: 78 78 11
Width: 753
Flags: W
HStem: -9.99805 141.688<545.939 627.589> 596.738 142.262<113.636 205.446>
VStem: 52 110<91.9398 595.939> 591.132 110<134.639 635.568>
LayerCount: 2
Fore
SplineSet
567 131.690429688 m 0
 590.375627937 131.690429688 591.131835938 246.333504334 591.131835938 364.001953125 c 0
 591.131835938 562.800322806 569 644.195798439 569 685 c 0
 569 718.713918586 581.44921875 739 615.131835938 739 c 0
 669.053496308 739 701.131835938 603.086914062 701.131835938 365 c 0
 701.131835938 82 666.177637298 -9.998046875 589 -9.998046875 c 0
 500.181049603 -9.998046875 450.204164686 94.2253800801 323.165039062 346.52734375 c 0
 214.091987416 563.148364863 200.38786495 596.73828125 184 596.73828125 c 0
 162.62962963 596.73828125 162 479.547257663 162 364.001953125 c 0
 162 165.820967783 184.131835938 84.6788668058 184.131835938 44.001953125 c 0
 184.131835938 10.2880345395 171.682617188 -9.998046875 138 -9.998046875 c 0
 74.0783396291 -9.998046875 52 126.773229598 52 365 c 0
 52 603.086914062 70.2717293482 739 157 739 c 0
 224.269863469 739 271.554773948 692.342228738 427.298828125 386.010742188 c 0
 545.860755815 152.812423641 551.015555383 131.690429688 567 131.690429688 c 0
EndSplineSet
Validated: 1
EndChar

StartChar: D
Encoding: 68 68 12
Width: 761
Flags: W
HStem: -9.99805 106.899<204.95 454.27> 632.101 106.899<204.147 452.34>
VStem: 52 112<140.929 588.12> 614.1 111.9<250.941 479.104>
LayerCount: 2
Fore
SplineSet
335.700195312 96.9013671875 m 0
 513.275688701 96.9013671875 614.099609375 207.206761687 614.099609375 367.301757812 c 0
 614.099609375 520.64051605 511.245026585 632.100585938 335.299804688 632.100585938 c 0
 232.068283125 632.100585938 211.45664229 624.959272915 190 596 c 0
 171.554894339 571.105291799 164 484.401539468 164 365.001953125 c 0
 164 245.081614649 171.170160587 157.833317682 190 133 c 0
 211.665816076 104.426517154 232.075730263 96.9013671875 335.700195312 96.9013671875 c 0
356 -9.998046875 m 0
 231.185712829 -9.998046875 162.868984557 3.5962457966 111 38 c 0
 53.0064451734 76.4660702861 52 180.966408243 52 365 c 0
 52 549.033591757 57.2210355613 651.20972017 111 692 c 0
 159.521814 728.802835301 231.47713102 739 353 739 c 0
 575.099390257 739 726 575.846200568 726 367.001953125 c 0
 726 146.910275136 578.195767196 -9.998046875 356 -9.998046875 c 0
EndSplineSet
Validated: 1
EndChar

StartChar: K
Encoding: 75 75 13
Width: 683
Flags: W
HStem: -9.99805 21G<106.039 154.841 586.232 620.069> -9.99805 21G<106.039 154.841 586.232 620.069> 313.501 102<165.727 319.363> 719 20G<106.039 154.841 570.803 603.849>
VStem: 52 132.132<76.5214 311.286 416.882 652.884> 72.501 89.499<212.362 515.078>
LayerCount: 2
Fore
SplineSet
52 365 m 0xb8
 52 603.086914062 74.0783396291 739 138 739 c 0
 171.682617188 739 184.131835938 718.713918586 184.131835938 685 c 0xb8
 184.131835938 644.195798439 162 562.800322806 162 364.001953125 c 0xb4
 162 165.820967783 184.131835938 84.6788668058 184.131835938 44.001953125 c 0
 184.131835938 10.2880345395 171.682617188 -9.998046875 138 -9.998046875 c 0
 74.0783396291 -9.998046875 52 126.773229598 52 365 c 0xb8
204.500976562 313.500976562 m 0
 92.6623338367 313.500976562 72.5009765625 313.850244634 72.5009765625 362.500976562 c 0xb4
 72.5009765625 412.235669089 94.686155025 415.500976562 208.499023438 415.500976562 c 0
 359.86808805 415.500976562 433.114699534 504.361300895 504 632 c 0
 537.587558227 692.479002134 551.606880632 739 590 739 c 0
 617.698119937 739 641.131835938 719.08958676 641.131835938 686 c 0
 641.131835938 615.636948797 505.375091355 408.404993028 390 367.001953125 c 5
 519.543086093 323.330187646 651.131835938 113.989946034 651.131835938 41.001953125 c 4
 651.131835938 12.1610300165 636.137534708 -9.998046875 604 -9.998046875 c 4
 568.46424475 -9.998046875 551.42854954 25.9192433692 522 81 c 4
 433 239.831430691 366.157942134 313.500976562 204.500976562 313.500976562 c 0
EndSplineSet
Validated: 5
EndChar

StartChar: W
Encoding: 87 87 14
Width: 964
Flags: W
HStem: -9.99805 131.285<253.539 287.388 678.145 713.723> 718.992 20G<62.9507 96.5127 866.886 899.747>
VStem: 32 118.097<515.329 688.643> 824.869 107.984<530.347 720.301>
LayerCount: 2
Fore
SplineSet
598.591796875 455.829101562 m 0
 656.499023438 180.919921875 677.1640625 121.283203125 697.602539062 121.283203125 c 0
 715.076171875 121.283203125 750.416015625 202.948242188 824.869140625 645.5390625 c 0
 837.4453125 720.299804688 850.141601562 738.9921875 883.629882812 738.9921875 c 0
 915.86328125 738.9921875 932.853515625 721.495117188 932.853515625 663.998046875 c 0
 932.853515625 583.34765625 886.444335938 331.112304688 838.1875 191.998046875 c 0
 789.78515625 52.466796875 760.84765625 -9.998046875 682.881835938 -9.998046875 c 0
 629.500976562 -9.998046875 590.6171875 60.107421875 564.52734375 157.826171875 c 0
 496.529296875 412.508789062 505.194335938 476.190429688 482.584960938 476.190429688 c 0
 461.426757812 476.190429688 467.337890625 413.05859375 401.0859375 158.408203125 c 0
 376.837890625 65.2041015625 336.266601562 -9.998046875 271.629882812 -9.998046875 c 0
 205.970703125 -9.998046875 173.624023438 37.962890625 126.666015625 191.998046875 c 0
 81.8193359375 339.107421875 32 598.272460938 32 681.998046875 c 0
 32 709.88671875 46.01953125 738.9921875 79.8818359375 738.9921875 c 0
 113.143554688 738.9921875 127.84765625 719.958984375 150.096679688 590.751953125 c 0
 208.255859375 253 251.419921875 121.287109375 267.26953125 121.287109375 c 0
 289.341796875 121.287109375 308.791015625 177.298828125 366.26171875 455.829101562 c 0
 399.157226562 615.255859375 431.921875 634.892578125 481.026367188 634.892578125 c 0
 534.419921875 634.892578125 565.749023438 611.747070312 598.591796875 455.829101562 c 0
EndSplineSet
Validated: 1
EndChar

StartChar: M
Encoding: 77 77 15
Width: 944
Flags: W
HStem: -9.99805 21G<65.1069 97.9678 849.084 881.903> 718.992 20G<203.252 269.543 682.409 750.12>
VStem: 32 107.984<5.9431 265.075> 797.896 114.958<15.5761 304.52>
LayerCount: 2
Fore
SplineSet
307.708007812 386.922851562 m 0
 265.159879655 548.668564659 244.740152905 607.7109375 235.250976562 607.7109375 c 0
 222.790963165 607.7109375 185.099013516 524.622734633 139.984375 83.455078125 c 0
 132.272005849 8.03725507546 114.711914062 -9.998046875 81.2236328125 -9.998046875 c 0
 48.990234375 -9.998046875 32 7.4990234375 32 64.99609375 c 0
 32 145.646484375 64.2918128683 397.743381993 96.666015625 536.99609375 c 4
 129.104974417 676.52734375 167.53205834 738.9921875 238.971679688 738.9921875 c 4
 300.114677416 738.9921875 331.935512924 675.426103561 370.326171875 541.16796875 c 4
 447.201639364 272.322443309 454.140820513 202.803710938 472.268554688 202.803710938 c 0
 489.263376513 202.803710938 501.131719971 273.937605088 577.767578125 551.5859375 c 0
 609.293574705 665.803231974 647.593967313 738.9921875 717.223632812 738.9921875 c 0
 783.015887148 738.9921875 828.466388628 691.912318622 858.1875 536.99609375 c 0
 886.301390024 390.457236086 912.853515625 130.721679688 912.853515625 46.99609375 c 0
 912.853515625 19.107421875 898.833984375 -9.998046875 864.971679688 -9.998046875 c 0
 833.196792148 -9.998046875 806.230190727 7.63652874731 797.895507812 102.53125 c 0
 761.138428275 520.93359375 726.577968915 607.70703125 713.583984375 607.70703125 c 0
 704.245686083 607.70703125 681.06915269 552.187526337 638.24609375 380.727539062 c 0
 566.514228499 93.5190815722 519.776384637 74.1015625 473.827148438 74.1015625 c 0
 422.53371587 74.1015625 382.944947661 100.911386103 307.708007812 386.922851562 c 0
EndSplineSet
Validated: 1
EndChar

StartChar: P
Encoding: 80 80 16
Width: 669
Flags: W
HStem: -9.99805 21G<107.924 158.937> 226.501 99.4004<185.122 442.505> 633.101 105.899<195.161 428.824>
VStem: 52 110<224.416 599.481> 522.1 111.9<394.862 552.462>
LayerCount: 2
Fore
SplineSet
182 350 m 0
 201.409921176 331.736552198 234.510564753 325.901367188 321.700195312 325.901367188 c 0
 470.316852074 325.901367188 522.099609375 387.662667815 522.099609375 477.301757812 c 0
 522.099609375 579.521185929 433.792879022 633.100585938 319.299804688 633.100585938 c 0
 232.995136981 633.100585938 211.955444833 625.120469837 190 608 c 0
 167.480526077 588.88588843 162 528.770197804 162 444.001953125 c 0
 162 411.736813224 163.430107145 368.257166052 182 350 c 0
171.368164062 239.635742188 m 1
 173.562002679 129.706464759 190.131835938 75.8069518322 190.131835938 45.001953125 c 0
 190.131835938 10.6637027138 176.873031887 -9.998046875 141 -9.998046875 c 0
 74.8485142673 -9.998046875 52 126.773229598 52 365 c 0
 52 549.033591757 59.2384259259 644.428576108 111 692 c 0
 153.329578319 729.067912281 216.541949489 739 323 739 c 0
 508.182065335 739 634 624.090856927 634 477.001953125 c 0
 634 330.760095646 530.887990356 226.500976562 334.500976562 226.500976562 c 0
 216.418384641 226.500976562 171.368164062 239.635742188 171.368164062 239.635742188 c 1
EndSplineSet
Validated: 1
EndChar

StartChar: R
Encoding: 82 82 17
Width: 673
Flags: W
HStem: -9.99805 21G<107.924 158.937 576.232 610.069> -9.99805 21G<107.924 158.937 576.232 610.069> 265.684 90.2178<171.011 359.533> 633.101 105.899<195.247 426.545>
VStem: 52 110<100.508 600.422> 512 129.132<38.82 111.345> 512.1 111.9<418.893 561.627>
LayerCount: 2
Back
SplineSet
170 379 m 4
 179.725463649 358 223.262325546 355.901367188 311.700195312 355.901367188 c 4
 460.316852074 355.901367188 512.099609375 411.543664386 512.099609375 492.301757812 c 4
 512.099609375 584.67970355 423.792879021 633.100585938 309.299804688 633.100585938 c 4
 229.66990868 633.100585938 210.463429839 624.856736406 190 608 c 4
 167.480526077 593.547922383 162 548.094769945 162 484.001953125 c 4
 162 447.961183814 164.029440116 391.538175756 170 379 c 4
468.422851562 290.448242188 m 5
 559.998538712 228.002629345 641.131835938 109.091858055 641.131835938 34.001953125 c 4
 641.131835938 6.53135279607 627.410075948 -9.998046875 598 -9.998046875 c 4
 563.203707266 -9.998046875 541.806080449 25.3525493025 512 81 c 4
 439.020898248 217.250755064 380 265.68359375 218 265.68359375 c 6
 168.708984375 265.68359375 l 5
 172.414455415 131.730473249 190.131835938 80.9449300286 190.131835938 45.001953125 c 4
 190.131835938 10.6637027138 176.873031887 -9.998046875 141 -9.998046875 c 4
 74.8485142673 -9.998046875 52 126.773229598 52 365 c 4
 52 549.033591757 59.2384259259 644.428576108 111 692 c 4
 151.332900096 729.067912281 211.563555645 739 313 739 c 4
 498.182065334 739 624 630.669673703 624 492.001953125 c 4
 624 401.160868517 570.996305606 320.223236433 468.422851562 290.448242188 c 5
EndSplineSet
Fore
SplineSet
468.422851562 290.448242188 m 5xba
 559.100856895 255.031800974 641.131835938 96.8503702335 641.131835938 41.001953125 c 4
 641.131835938 12.1610300165 626.137534708 -9.998046875 594 -9.998046875 c 4
 558.46424475 -9.998046875 538.538503704 24.4832457965 512 81 c 4xbc
 448.020898248 217.250755064 378 265.68359375 218 265.68359375 c 6
 168.708984375 265.68359375 l 5
 172.414455415 131.730473249 190.131835938 80.9449300286 190.131835938 45.001953125 c 4
 190.131835938 10.6637027138 176.873031887 -9.998046875 141 -9.998046875 c 4
 74.8485142673 -9.998046875 52 126.773229598 52 365 c 4
 52 549.033591757 59.2384259265 644.428576107 111 692 c 4
 151.332900096 729.067912281 211.563555645 739 313 739 c 4
 498.182065334 739 624 630.669673703 624 492.001953125 c 4
 624 401.160868517 570.996305606 320.223236433 468.422851562 290.448242188 c 5xba
170 379 m 4
 179.725463649 358 223.262325546 355.901367188 311.700195312 355.901367188 c 4
 460.316852074 355.901367188 512.099609375 411.543664386 512.099609375 492.301757812 c 4x3a
 512.099609375 584.67970355 423.792879021 633.100585938 309.299804688 633.100585938 c 4
 229.66990868 633.100585938 212.312705384 622.319382022 190 608 c 4
 167.480526077 593.547922383 162 548.094769945 162 484.001953125 c 4
 162 447.961183814 164.164071692 391.601403787 170 379 c 4
EndSplineSet
Validated: 1
EndChar

StartChar: B
Encoding: 66 66 18
Width: 662
Flags: W
HStem: -10 99<198.205 455.095> 318.499 88.002<180.511 450.785> 638 101<197.781 431.484>
VStem: 52 115.818<119.196 609.169> 497.601 111.9<447.819 579.44> 515.601 112.399<140.823 267.69>
LayerCount: 2
Fore
SplineSet
196.150390625 308.404296875 m 0xf4
 174.278065062 300.0925087 167.818359375 279.007869002 167.818359375 222.543945312 c 0
 167.818359375 156.267833135 174.95637658 130.900405266 192 116 c 0
 217.602990354 91.538097068 266.064516129 89 332 89 c 0
 451.281336779 89 515.600585938 127.757057874 515.600585938 201.698242188 c 4
 515.600585938 281.29928877 456.740440097 318.499023436 333.499023438 318.499023438 c 0
 257.06981207 318.499023438 218.347135947 317.315124774 196.150390625 308.404296875 c 0xf4
191.150390625 416.595703125 m 0
 213.248276049 408.341994053 254.287505111 406.500976562 333.499023438 406.500976562 c 0
 455.197111738 406.500976564 497.600585938 441.789778739 497.600585938 517.301757812 c 0xf8
 497.600585938 596.491732728 420.508781271 638 332 638 c 0
 266.064516129 638 217.243003872 635.439840164 192 612 c 0
 173.395210046 596.192070583 167.818359375 571.354221098 167.818359375 504.456054688 c 0
 167.818359375 436.362495596 173.162204147 422.969816668 191.150390625 416.595703125 c 0
509.366210938 362.64453125 m 1
 509.366210938 362.64453125 628 322.562427165 628 194.500976562 c 0xf4
 628 75.1138065838 515 -10 328.500976562 -10 c 0
 241.8093347 -10 158.325040425 2.20618922703 111 38 c 0
 52.448159732 80.5254214131 52 180.966408243 52 365 c 0
 52 549.033591757 57.1609486727 646.793170052 111 692 c 0
 154.53561363 730.068011594 219.548712431 739 328.500976562 739 c 0
 495.819820161 739 609.500976562 641.63436833 609.500976562 517.001953125 c 0
 609.500976562 393.754474709 509.366210938 362.64453125 509.366210938 362.64453125 c 1
EndSplineSet
Validated: 1
EndChar

StartChar: S
Encoding: 83 83 19
Width: 605
Flags: W
HStem: -9.99805 106.899<182.579 399.566> 632.101 106.899<200.233 407.598>
VStem: 51 106.9<480.605 594.563> 453.16 110.9<143.7 256.218>
LayerCount: 2
Fore
SplineSet
293.290039062 739 m 0
 425.68071922 739 533.186523438 679.379242799 533.186523438 631.2421875 c 0
 533.186523438 601.143576401 511.0363286 578.389648438 481.736328125 578.389648438 c 0
 443.92083924 578.389648438 408.99527608 632.100585938 303.559570312 632.100585938 c 0
 192.790674179 632.100585938 157.900390625 590.147699389 157.900390625 535.900390625 c 0
 157.900390625 473.180126735 206.032323861 451.262438256 285.66015625 433 c 0
 452.001271415 394.850093693 564.060546875 333.645775638 564.060546875 195.001953125 c 0
 564.060546875 69.8115234375 454.13671875 -9.998046875 297.360351562 -9.998046875 c 0
 138.52734375 -9.998046875 30 57.6572265625 30 112.28125 c 0
 30 142.92487392 52.549600457 166.090820312 82.3779296875 166.090820312 c 0
 127.221284852 166.090820312 164.313369874 96.9013671875 297.090820312 96.9013671875 c 0
 398.94854672 96.9013671875 453.16015625 138.463837512 453.16015625 200.1015625 c 0
 453.16015625 267.592429474 392.499490986 298.271535046 285.9296875 323.100585938 c 0
 142.796521189 356.448312539 51 399.149649698 51 534 c 0
 51 642.909283263 139.925248776 739 293.290039062 739 c 0
EndSplineSet
Validated: 1
EndChar

StartChar: Q
Encoding: 81 81 20
Width: 789
Flags: W
HStem: -9.99805 105.899<291.663 500.4> 627.101 111.899<288.74 500.726>
VStem: 35 111.9<241.477 479.299> 642.1 111.9<243.469 481.919>
LayerCount: 2
Fore
SplineSet
146.900390625 360.900390625 m 0
 146.900390625 200.36359237 238.687399364 95.9013671875 395.700195312 95.9013671875 c 0
 552.618753675 95.9013671875 642.099609375 206.614695249 642.099609375 367.301757812 c 0
 642.099609375 517.745133934 550.312600636 627.100585938 393.299804688 627.100585938 c 0
 236.381246325 627.100585938 146.900390625 511.887407025 146.900390625 360.900390625 c 0
35 359 m 0
 35 568.047661939 177.994140625 739 393 739 c 0
 607.954101562 739 754 571.460322717 754 357.001953125 c 0
 754 139.386722973 600.205078125 69.3134765625 600.205078125 69.3134765625 c 5
 687.359878234 44.4326930101 749.131835938 -21.2405238421 749.131835938 -76.6796875 c 0
 749.131835938 -107.271946957 725.410075948 -125.6796875 700 -125.6796875 c 0
 652.401460369 -125.6796875 650 -73 586 -38 c 0
 550.966327987 -18.840960618 513.746006101 -9.99811416099 396 -9.998046875 c 0
 181.045898438 -9.99792403941 35 138.65399777 35 359 c 0
EndSplineSet
Validated: 1
EndChar

StartChar: T
Encoding: 84 84 21
Width: 633
Flags: W
HStem: -9.99805 21G<293.938 340.543> 616.719 122.281<77.6459 264.794 368.237 556.078> 638 81<170.794 462.425>
VStem: 259.5 114<8.57186 427.314>
LayerCount: 2
Fore
SplineSet
316.499023438 638 m 0xb0
 199.96875 638 123.845703125 616.71875 77.2685546875 616.71875 c 0
 45.0068359375 616.71875 30 640.25 30 664 c 0
 30 713.05078125 81.646484375 739 316.998046875 739 c 0
 552.349609375 739 603.499023438 713.050442536 603.499023438 664 c 0
 603.499023438 640.250003017 588.491843991 616.71875 556.23046875 616.71875 c 0xd0
 509.653351013 616.71875 433.029296875 638 316.499023438 638 c 0xb0
259.5 159 m 4
 259.5 657.439648438 262.114257812 719 314.5 719 c 4xb0
 370.82421875 719 373.5 665.882256203 373.5 155.001953125 c 4
 373.5 41.0164937814 363.586914062 -9.998046875 317.5 -9.998046875 c 4
 270.375 -9.998046875 259.5 38.5997591291 259.5 159 c 4
EndSplineSet
Validated: 5
EndChar

StartChar: A
Encoding: 65 65 22
Width: 734
Flags: W
HStem: -10 21G<60.3345 97.0239 634.388 672.177> -10 21G<60.3345 97.0239 634.388 672.177> 183.501 102<199.653 532.834> 607.998 131<342.751 391.877>
VStem: 32 119<37.5989 154.165> 580.412 122<36.1289 153.372>
LayerCount: 2
Fore
SplineSet
367.412109375 607.998046875 m 0xbc
 339.157226562 607.998046875 241.329610156 434.483357869 151 109.458984375 c 0
 124.909976489 15.5817548431 117.328125 -10 76.7197265625 -10 c 0
 43.94921875 -10 32 18.4306640625 32 51 c 0
 32 135.737304688 125.515337522 406.028670653 204.450195312 557 c 0
 277.630434801 696.96500845 313.566857062 738.998046875 367.412109375 738.998046875 c 0
 420.991879566 738.998046875 456.958322325 696.752556561 529.961914062 557 c 0
 605.652067839 412.104492188 702.412109375 135.737304688 702.412109375 51 c 0
 702.412109375 18.4306640625 689.661132812 -10 654.692382812 -10 c 0
 614.083984375 -10 605.109171729 16.1799063461 580.412109375 109.458984375 c 0
 496 428.277620544 394.358398438 607.998046875 367.412109375 607.998046875 c 0xbc
362.500976562 183.500976562 m 0
 131.082568359 183.500976562 102.500976562 183.850244635 102.500976562 232.500976562 c 0
 102.500976562 282.235669089 127.364503475 285.500976562 366.499023438 285.500976562 c 0
 590.335810122 285.500976562 631.499023438 285.345659151 631.499023438 235.500976562 c 0
 631.499023438 183.500976562 594.697654262 183.500976562 362.500976562 183.500976562 c 0
EndSplineSet
Validated: 5
EndChar

StartChar: X
Encoding: 88 88 23
Width: 697
Flags: W
HStem: -9.99805 21G<74.8921 128.174 576.136 622.857> -9.99805 21G<74.8921 128.174 576.136 622.857> 719 20G<87.666 130.799 565.728 609.953>
LayerCount: 2
Fore
SplineSet
642.200195312 690 m 0xa0
 642.200195312 648.48046875 616.198242188 594.819335938 412.03125 372 c 0
 193.590820312 133.603515625 169.348632812 -9.998046875 87 -9.998046875 c 0
 62.7841796875 -9.998046875 35 12.15625 35 44 c 0
 35 90.9580078125 120.515625 197.151367188 310.71484375 412 c 0
 529.741210938 659.411132812 538.255859375 739 593.200195312 739 c 0
 626.706054688 739 642.200195312 715.392578125 642.200195312 690 c 0xa0
55 692 m 0
 55 716.356445312 75.33203125 739 100 739 c 0
 161.59765625 739 170.975585938 665.739257812 386.484375 412 c 0
 570.60546875 195.215820312 662.200195312 90.9580078125 662.200195312 44 c 0
 662.200195312 12.15625 640.513671875 -9.998046875 605.200195312 -9.998046875 c 0
 547.072265625 -9.998046875 507 129 285.168945312 372 c 0
 83.529296875 592.880859375 55 650.219726562 55 692 c 0
EndSplineSet
Validated: 5
EndChar

StartChar: Y
Encoding: 89 89 24
Width: 694
Flags: W
HStem: -9.99805 21G<326.062 369.397> -9.99805 21G<326.062 369.397> 280 79<296.424 397.506> 718.998 20G<64.7697 107.839 589.772 631.543>
VStem: 294 106<6.51869 279.628>
LayerCount: 2
Fore
SplineSet
347 391 m 0x38
 379.646629259 391 434.616803254 451.653995113 493.412109375 559.5390625 c 0
 561.206139315 683.936127011 565.851279687 738.998046875 613.692382812 738.998046875 c 0
 649.394083242 738.998046875 662.412109375 714.296395597 662.412109375 685.998046875 c 0
 662.412109375 642.761942766 593.417025242 514.575329046 506.961914062 397.998046875 c 0
 438.594520256 305.810496014 399.853627237 280 347 280 c 0
 294.409314897 280 257.245675325 304.392755318 187.450195312 397.998046875 c 0
 99.5229884029 515.920465878 32 642.761942766 32 685.998046875 c 0
 32 714.296395597 45.8196332266 738.998046875 83.7197265625 738.998046875 c 0
 131.958576565 738.998046875 138.446955192 683.366900377 205 559.5390625 c 0
 264.227060805 449.341867097 315.702465634 391 347 391 c 0x38
294 159 m 0
 294 337.014648438 296.424129972 359 345 359 c 0
 397.505627649 359 400 339.787109375 400 155.001953125 c 0
 400 41.0166015625 390.79499163 -9.998046875 348 -9.998046875 c 0xb8
 304.125 -9.998046875 294 38.599609375 294 159 c 0
EndSplineSet
Validated: 5
EndChar

StartChar: Z
Encoding: 90 90 25
Width: 613
Flags: W
HStem: -9.99805 101<152.505 534.209> 638 101<99.2892 463.806>
VStem: 30 119.758<60.6664 151.339> 464.697 118.802<573.01 668.335>
LayerCount: 2
Fore
SplineSet
316.499023438 638 m 4
 209.710842974 638.000000003 139.951788718 616.71875 97.2685546875 616.71875 c 4
 65.0068359375 616.71875 50 640.25 50 664 c 4
 50 713.05078125 98.0474017375 739 316.998046875 739 c 4
 535.920236929 739 583.499023438 702.67061955 583.499023438 634 c 4
 583.499023438 560.785279167 459.892599637 432.246140861 330.309570312 312.99609375 c 4
 231.404222077 221.977481992 149.7578125 137.46656749 149.7578125 114.547851562 c 4
 149.7578125 91.39146104 207.505668457 91.0019531218 316.499023438 91.001953125 c 4
 423.307562349 91.0019531284 493.539125587 112.283203125 536.23046875 112.283203125 c 4
 568.491843991 112.283203125 583.499023438 88.751950108 583.499023438 65.001953125 c 4
 583.499023438 15.951510589 535.920236929 -9.998046875 316.998046875 -9.998046875 c 4
 81.646484375 -9.998046875 30 26.330859375 30 95.001953125 c 4
 30 169.840159976 134.550655551 258.67307905 266.84765625 388.875 c 4
 366.857582587 487.301150664 464.697265625 578.810986821 464.697265625 613.301757812 c 4
 464.697265625 634 429.355761373 637.999999997 316.499023438 638 c 4
EndSplineSet
Validated: 1
EndChar

StartChar: o
Encoding: 111 111 26
Width: 589
Flags: W
HStem: -9.99805 91.8994<206.758 379.458> 413.101 97.8994<209.542 380.552>
VStem: 35 97.9004<156.985 335.792> 456.1 97.9004<157.491 336.217>
LayerCount: 2
Fore
SplineSet
132.900390625 244.900390625 m 0
 132.900390625 146.155342429 192.960353752 81.9013671875 295.700195312 81.9013671875 c 4
 397.84997076 81.9013671875 456.099609375 151.005471931 456.099609375 251.301757812 c 0
 456.099609375 344.995644468 396.039646248 413.100585938 293.299804688 413.100585938 c 0
 191.15002924 413.100585938 132.900390625 340.302445527 132.900390625 244.900390625 c 0
35 243 m 0
 35 390.43361421 138.051643244 511 293 511 c 0
 448.410029107 511 554 396.968032497 554 251.001953125 c 0
 554 98.6307914403 450.948356756 -9.998046875 296 -9.998046875 c 0
 140.589970893 -9.998046875 35 91.9230263601 35 243 c 0
EndSplineSet
Validated: 1
EndChar

StartChar: dotlessi
Encoding: 305 305 27
Width: 224
Flags: W
HStem: -9.99805 21G<91.4688 133.986> 491 20G<90.7336 129.826>
VStem: 60 104<8.92506 488.078>
LayerCount: 2
Fore
SplineSet
60 235 m 0
 60 460.659541015 71.4672851563 511 110 511 c 0
 149.652954102 511 164 464.629581521 164 231.001953125 c 0
 164 47.4371773098 154.972288038 -9.998046875 113 -9.998046875 c 0
 69.9375 -9.998046875 60 43.5199049285 60 235 c 0
EndSplineSet
Validated: 1
EndChar

StartChar: a
Encoding: 97 97 28
Width: 615
Flags: W
HStem: -9.99805 91.8994<205.965 382.388> -9.99805 21G<476.386 522.96> 413.101 97.8994<209.152 380.615>
VStem: 35 97.9004<156.985 335.792> 456.1 108.032<92.9538 392.157> 466.132 57.8682<107.827 386.01>
LayerCount: 2
Fore
SplineSet
564.131835938 251 m 0x78
 564.131835938 95.1945449946 553.788627561 -9.998046875 492.131835938 -9.998046875 c 4
 460.63963345 -9.998046875 449 9.53669819081 449 42.001953125 c 4
 449 68.4419470175 466.131835938 121.184312653 466.131835938 250.001953125 c 4x74
 466.131835938 379.437229725 444 432.432865048 444 459 c 4
 444 491.465254935 455.099909916 511 485.131835938 511 c 0
 534.664523952 511 564.131835938 406.514966995 564.131835938 251 c 0x78
132.900390625 244.900390625 m 0
 132.900390625 146.155342429 192.960353752 81.9013671875 295.700195312 81.9013671875 c 0
 397.84997076 81.9013671875 456.099609375 151.005471931 456.099609375 251.301757812 c 0xb8
 456.099609375 344.995644468 396.039646248 413.100585938 293.299804688 413.100585938 c 0
 191.15002924 413.100585938 132.900390625 340.302445527 132.900390625 244.900390625 c 0
35 243 m 0
 35 390.43361421 134.057393506 511 283 511 c 0
 426.501214616 511 524 392.582154646 524 241.001953125 c 0xb4
 524 94.4687669838 424.942606494 -9.998046875 276 -9.998046875 c 0
 132.498785384 -9.998046875 35 91.9230263601 35 243 c 0
EndSplineSet
Validated: 5
EndChar

StartChar: d
Encoding: 100 100 29
Width: 615
Flags: W
HStem: -9.99805 91.8994<205.965 382.388> -9.99805 21G<476.386 522.96> 413.101 97.8994<209.152 380.615> 741 20G<459.291 507.343>
VStem: 35 97.9004<156.985 335.792> 456.1 108.032<98.8898 468.924> 466.132 57.8682<121.15 483.117>
LayerCount: 2
Fore
SplineSet
564.131835938 321 m 0x7c
 564.131835938 93.4073286496 553.788627561 -9.998046875 492.131835938 -9.998046875 c 4
 460.63963345 -9.998046875 449 9.53669819081 449 42.001953125 c 4
 449 77.3400218852 466.131835938 147.832222109 466.131835938 320.001953125 c 4x7a
 466.131835938 573.651980581 430 663.043398476 430 713 c 4
 430 742.967927632 442.44921875 761 476.131835938 761 c 4
 538.554547233 761 564.131835938 564.481500496 564.131835938 321 c 0x7c
132.900390625 244.900390625 m 0
 132.900390625 146.155342429 192.960353752 81.9013671875 295.700195312 81.9013671875 c 0
 397.84997076 81.9013671875 456.099609375 151.005471931 456.099609375 251.301757812 c 0xbc
 456.099609375 344.995644468 396.039646248 413.100585938 293.299804688 413.100585938 c 0
 191.15002924 413.100585938 132.900390625 340.302445527 132.900390625 244.900390625 c 0
35 243 m 0
 35 390.43361421 134.057393506 511 283 511 c 0
 426.501214616 511 524 392.582154646 524 241.001953125 c 0xba
 524 94.4687669838 424.942606494 -9.998046875 276 -9.998046875 c 0
 132.498785384 -9.998046875 35 91.9230263601 35 243 c 0
EndSplineSet
Validated: 5
EndChar

StartChar: b
Encoding: 98 98 30
Width: 615
Flags: W
HStem: -9.99805 91.8994<231.744 408.166> -9.99805 21G<91.1716 137.746> 413.101 97.8994<233.517 404.979> 741 20G<104.853 152.937>
VStem: 50 108.032<94.0569 462.724> 90.1318 57.8682<121.328 483.537> 481.231 97.9004<156.985 335.792>
LayerCount: 2
Fore
SplineSet
50 311 m 0x7a
 50 560.015170962 74.7053356808 761 135 761 c 0
 170.873031887 761 184.131835938 742.967927632 184.131835938 713 c 4
 184.131835938 661.772231814 148 570.106211829 148 310.001953125 c 4x76
 148 144.025377901 165.131835938 76.0688683327 165.131835938 42.001953125 c 4
 165.131835938 9.53669819081 153.492202488 -9.998046875 122 -9.998046875 c 4
 60.3432083763 -9.998046875 50 90.2832807435 50 311 c 0x7a
481.231445312 244.900390625 m 0
 481.231445312 340.302445527 422.981806698 413.100585938 320.83203125 413.100585938 c 0
 218.09218969 413.100585938 158.032226562 344.995644468 158.032226562 251.301757812 c 0
 158.032226562 151.005471931 216.281865177 81.9013671875 318.431640625 81.9013671875 c 0xba
 421.171482185 81.9013671875 481.231445312 146.155342429 481.231445312 244.900390625 c 0
579.131835938 243 m 0
 579.131835938 91.9230263601 481.633050554 -9.998046875 338.131835938 -9.998046875 c 0
 189.189229443 -9.998046875 90.1318359375 98.6307914403 90.1318359375 251.001953125 c 0xb6
 90.1318359375 396.968032497 187.630621321 511 331.131835938 511 c 0
 480.074442432 511 579.131835938 390.43361421 579.131835938 243 c 0
EndSplineSet
Validated: 5
EndChar

StartChar: c
Encoding: 99 99 31
Width: 563
Flags: W
HStem: -10.0889 92.8994<214.204 379.953> 418.101 92.8994<215.836 373.836>
VStem: 35 100.9<157.312 337.156>
LayerCount: 2
Fore
SplineSet
299.299804688 82.810546875 m 4
 417.846175212 82.8105468754 422.043674063 172 476 172 c 0
 508.232020577 172 523.522460938 145.092664036 523.522460938 126.190429688 c 0
 523.522460938 76.4568412817 435.944427121 -10.0888671875 296 -10.0888671875 c 0
 140.589957022 -10.0888671875 35 91.9059815902 35 243 c 0
 35 390.43361421 136.853368322 511 290 511 c 0
 429.65345111 511 517.522460938 424.432359815 517.522460938 377 c 0
 517.522460938 344.556626146 492.014832747 326.911132812 470.14453125 326.911132812 c 0
 415.015867355 326.911132812 411.943139763 418.100585937 293.299804688 418.100585938 c 0
 193.060568179 418.100585938 135.900390625 343.13841295 135.900390625 244.900390625 c 0
 135.900390625 147.108666677 196.034098682 82.8105468747 299.299804688 82.810546875 c 4
EndSplineSet
Validated: 1
EndChar

StartChar: e
Encoding: 101 101 32
Width: 552
Flags: W
HStem: -10.0889 90.8994<210.85 399.007> 196 74<159.269 402.07> 418.101 92.8994<199.115 379.603>
VStem: 35 109.739<145.534 354.505> 421 101.522<290.757 380.72>
LayerCount: 2
Fore
SplineSet
296.299804688 80.810546875 m 0
 414.846175212 80.810546875 419.043674063 133 473 133 c 4
 498.449539211 133 510.522460938 111.966400852 510.522460938 97.1904296875 c 0
 510.522460938 47.4476421875 426.793630995 -10.0888671875 293 -10.0888671875 c 0
 139.376279355 -10.0888671875 35 91.9059815902 35 243 c 0
 35 390.43361421 135.655093401 511 287 511 c 0
 460.109443432 511 522.522460938 405.00716453 522.522460938 333 c 0
 522.522460938 212.689618644 405.985937544 196 295.524414062 196 c 0
 193.347386868 196 142.857421875 219.709960938 142.857421875 219.709960938 c 1
 144.288655795 134.821522899 208.527023812 80.810546875 296.299804688 80.810546875 c 0
421 328 m 0
 421 388.979129106 363.065733196 418.100585938 285.299804688 418.100585938 c 0
 209.772045457 418.100585938 144.739257812 378.114599265 144.739257812 316.376953125 c 0
 144.739257812 283.989776958 195.390770235 270 288.522460938 270 c 0
 382.091859513 270 421 288.288288288 421 328 c 0
EndSplineSet
Validated: 1
EndChar

StartChar: l
Encoding: 108 108 33
Width: 289
Flags: W
HStem: -9.99805 85.998<197.058 273.768> 741 20G<106.789 154.841>
VStem: 50 98<132.093 571.724>
LayerCount: 2
Fore
SplineSet
50 311 m 4
 50 560.015170962 75.5772887048 761 138 761 c 4
 171.682617188 761 184.131835938 742.967927632 184.131835938 713 c 4
 184.131835938 661.772231814 148 570.106211829 148 310.001953125 c 4
 148 125.829872624 177.444412337 91.8395066445 239.30859375 76 c 4
 263.759543612 69.7396571982 279.131835938 60.6325303071 279.131835938 32 c 4
 279.131835938 10.0131780857 263.714137753 -9.998046875 222 -9.998046875 c 4
 132.426896371 -9.998046875 50 40.2832807435 50 311 c 4
EndSplineSet
Validated: 1
EndChar

StartChar: m
Encoding: 109 109 34
Width: 904
Flags: W
HStem: -9.99805 21G<89.4561 135.841 436.195 481.466 782.291 828.676> 422.101 88.8994<214.063 359.992 577.296 719.776>
VStem: 50 98.0322<213.335 355.889> 96.1318 51.8682<168.26 386.01> 430.132 82<208.027 392.582> 770.132 98<43.0319 368.54>
LayerCount: 2
Fore
SplineSet
512.032226562 241.301757812 m 0xcc
 512.032226562 205.438230717 490.909834911 195.885742188 471 195.885742188 c 0
 450.052594134 195.885742188 430.131835938 208.027213037 430.131835938 241.001953125 c 0
 430.131835938 392.582154646 513.323583325 511 660 511 c 4
 794.059785274 511 868.131835938 412.260871508 868.131835938 271 c 0
 868.131835938 103.255340325 858.219594577 -9.998046875 799.131835938 -9.998046875 c 0
 765.44921875 -9.998046875 753 12.5420435856 753 50.001953125 c 0
 753 78.9842541226 770.131835938 136.798001069 770.131835938 278.001953125 c 0
 770.131835938 368.678504662 726.081364629 422.100585938 648.83203125 422.100585938 c 4
 562.500292179 422.100585938 512.032226562 355.888686616 512.032226562 241.301757812 c 0xcc
50 251 m 0xec
 50 406.514966995 79.4673119857 511 129 511 c 0
 159.031926021 511 170.131835938 491.465254935 170.131835938 459 c 0
 170.131835938 432.432865048 148 379.437229725 148 250.001953125 c 0xdc
 148 121.184312653 165.131835938 68.4419470175 165.131835938 42.001953125 c 0
 165.131835938 9.53669819081 152.682617188 -9.998046875 119 -9.998046875 c 0
 59.9122413606 -9.998046875 50 95.1945449946 50 251 c 0xec
148.032226562 241.301757812 m 0xec
 148.032226562 213.334900339 134.631469863 205.885742188 122 205.885742188 c 0
 108.741001362 205.885742188 96.1318359375 215.336058217 96.1318359375 241.001953125 c 0xdc
 96.1318359375 392.582154646 170.275815909 511 301 511 c 4
 436.992115108 511 512.131835938 408.146741154 512.131835938 261 c 0
 512.131835938 59.2249426596 508.799806968 -9.998046875 454.131835938 -9.998046875 c 0
 418.25880405 -9.998046875 405 13.6690481086 405 53.001953125 c 0
 405 80.3317545043 411.131835938 134.849103598 411.131835938 268.001953125 c 0
 411.131835938 364.971177241 367.081364629 422.100585938 289.83203125 422.100585938 c 4
 200.344887854 422.100585938 148.032226562 355.888686616 148.032226562 241.301757812 c 0xec
EndSplineSet
Validated: 5
EndChar

StartChar: t
Encoding: 116 116 36
Width: 378
Flags: W
HStem: -9.99805 85.998<255.669 347.549> 418.934 92<19.8379 359.929>
VStem: 103.998 101<134.611 485.099>
LayerCount: 2
Fore
SplineSet
180 418.93359375 m 0
 61.0693359375 418.93359375 10 419.247070312 10 462.93359375 c 0
 10 507.9765625 58.91015625 510.93359375 183.998046875 510.93359375 c 0
 315.999023438 510.93359375 368.998046875 510.793945312 368.998046875 465.93359375 c 0
 368.998046875 418.93359375 318.67578125 418.93359375 180 418.93359375 c 0
103.998046875 291 m 0
 103.998046875 517.88034668 117.15628756 701 184.998046875 701 c 0
 216.490249363 701 228.129882812 682.967773438 228.129882812 653 c 0
 228.129882812 606.856759189 204.998046875 524.289189504 204.998046875 290.001953125 c 4
 204.998046875 116.500749455 239.924194999 90.4854460428 313.306640625 76 c 0
 338.093623493 71.2390066046 353.129882812 60.6328125 353.129882812 32 c 0
 353.129882812 10.0126953125 337.711914062 -9.998046875 295.998046875 -9.998046875 c 0
 196.009765625 -9.998046875 103.998046875 37.1504066036 103.998046875 291 c 0
EndSplineSet
Validated: 5
EndChar

StartChar: s
Encoding: 115 115 37
Width: 485
Flags: W
HStem: -9.99805 90.8994<152.941 327.487> 420.101 90.8994<164.327 321.763>
VStem: 48 97.9004<322.047 401.374> 346.16 97.9004<100.399 177.335>
LayerCount: 2
Fore
SplineSet
243.290039062 511 m 4
 352.646690934 511 424.186523438 455.353959946 424.186523438 413 c 4
 424.186523438 389.546852596 406.896891848 370.389648438 386 370.389648438 c 4
 339.182768668 370.389648438 325.037313772 420.100585938 241 420.100585938 c 4
 171.786388458 420.100585938 145.900390625 392.538992999 145.900390625 356.900390625 c 4
 145.900390625 322.608709444 179.982015112 310.26297231 235.66015625 299 c 4
 371.194929881 271.583057349 444.060546875 234.712260241 444.060546875 134 c 4
 444.060546875 50.3457745808 362.988096079 -9.998046875 247.360351562 -9.998046875 c 4
 118.231263364 -9.998046875 30 53.1638308826 30 97 c 4
 30 123.95211494 48.6749455151 141.090820312 73.3779296875 141.090820312 c 4
 119.834060053 141.090820312 139.667578707 80.9013671875 247.090820312 80.9013671875 c 4
 311.747834803 80.9013671875 346.16015625 105.146174318 346.16015625 141.1015625 c 4
 346.16015625 177.315925726 306.166522141 194.726728801 235.9296875 207.100585938 c 4
 120.782302381 227.386484361 48 260.792821567 48 356 c 4
 48 438.346043443 119.675316799 511 243.290039062 511 c 4
EndSplineSet
Validated: 1
EndChar

StartChar: uni0237
Encoding: 567 567 38
Width: 223
Flags: W
HStem: -190.064 85.998<-50.3953 34.2397> 490.934 20G<86.2246 136.184>
VStem: 75.1318 98<-56.1525 350.996>
LayerCount: 2
Fore
SplineSet
173.131835938 90.93359375 m 0
 173.131835938 -136.048749626 90.7049395666 -190.064453125 1.1318359375 -190.064453125 c 0
 -40.5823018158 -190.064453125 -56 -170.053228164 -56 -148.06640625 c 0
 -56 -119.433875943 -40.866315506 -109.307263244 -16.1767578125 -104.06640625 c 0
 45.6874236004 -90.9344849795 75.1318359375 -62.7543894745 75.1318359375 89.935546875 c 0
 75.1318359375 329.386265585 59 413.773558881 59 460.93359375 c 0
 59 492.150185033 71.4492187499 510.93359375 101 510.93359375 c 0
 171.367567393 510.93359375 173.131835938 414 173.131835938 90.93359375 c 0
EndSplineSet
Validated: 1
EndChar

StartChar: period
Encoding: 46 46 40
Width: 198
Flags: W
HStem: -9.99805 122.998<49.6762 148.324>
VStem: 35 128<4.18342 97.8315>
LayerCount: 2
Fore
SplineSet
35 52 m 0
 35 85.5576509955 60.563198324 113 99 113 c 4
 137.108206371 113 163 85.3698261569 163 50.001953125 c 4
 163 14.9740998642 137.436801676 -9.998046875 99 -9.998046875 c 4
 60.8917936289 -9.998046875 35 14.9780648145 35 52 c 0
EndSplineSet
Validated: 1
EndChar

StartChar: p
Encoding: 112 112 41
Width: 615
Flags: W
HStem: -9.99805 91.8994<231.744 408.166> 413.101 97.8994<233.516 404.979>
VStem: 50 108.032<36.0765 404.445> 90.1318 57.8682<37.353 376.972> 481.231 97.9004<156.985 335.792>
LayerCount: 2
Fore
SplineSet
50 190.001953125 m 0xe8
 50 410.71875 60.3430706522 511 122 511 c 4
 153.4921875 511 165.131835938 491.46484375 165.131835938 459 c 4
 165.131835938 424.932617188 148 356.9765625 148 191 c 4xd8
 148 -23.9249476908 174.131835938 -99.6680812016 174.131835938 -141.998046875 c 4
 174.131835938 -171.965820312 161.682617188 -189.998046875 128 -189.998046875 c 4
 72.6705422794 -189.998046875 50 -20.2774769176 50 190.001953125 c 0xe8
481.231445312 244.900390625 m 0
 481.231445312 340.301965652 422.981959372 413.100585938 320.83203125 413.100585938 c 0
 218.091879865 413.100585938 158.032226562 344.996002032 158.032226562 251.301757812 c 0xe8
 158.032226562 151.005764596 216.281712503 81.9013671875 318.431640625 81.9013671875 c 0
 421.17179201 81.9013671875 481.231445312 146.154908466 481.231445312 244.900390625 c 0
579.131835938 243 m 0
 579.131835938 91.9228515625 481.6328125 -9.998046875 338.131835938 -9.998046875 c 0
 189.189453125 -9.998046875 90.1318359375 98.630859375 90.1318359375 251.001953125 c 0xd8
 90.1318359375 396.967773438 187.630859375 511 331.131835938 511 c 0
 480.07421875 511 579.131835938 390.43359375 579.131835938 243 c 0
EndSplineSet
Validated: 5
EndChar

StartChar: q
Encoding: 113 113 42
Width: 615
Flags: W
HStem: -9.99805 91.8994<205.965 382.388> 413.101 97.8994<209.152 380.615>
VStem: 35 97.9004<156.985 335.792> 456.1 108.032<28.4933 399.612> 466.132 57.8682<33.4994 372.876>
LayerCount: 2
Fore
SplineSet
564.131835938 180.001953125 m 0xf0
 564.131835938 -24.7442087573 541.461293658 -189.998046875 486.131835938 -189.998046875 c 4
 452.44921875 -189.998046875 440 -171.965820312 440 -141.998046875 c 4
 440 -100.939517517 466.131835938 -27.4700007888 466.131835938 181 c 4xe8
 466.131835938 353.169921875 449 423.662109375 449 459 c 4
 449 491.46484375 460.639648438 511 492.131835938 511 c 4
 553.788765285 511 564.131835938 407.594726562 564.131835938 180.001953125 c 0xf0
132.900390625 244.900390625 m 0
 132.900390625 146.154908466 192.960043928 81.9013671875 295.700195312 81.9013671875 c 0
 397.850123434 81.9013671875 456.099609375 151.005764596 456.099609375 251.301757812 c 0xf0
 456.099609375 344.996002032 396.039956072 413.100585938 293.299804688 413.100585938 c 0
 191.149876566 413.100585938 132.900390625 340.301965652 132.900390625 244.900390625 c 0
35 243 m 0
 35 390.43359375 134.057617188 511 283 511 c 0
 426.500976562 511 524 392.58203125 524 241.001953125 c 0xe8
 524 94.46875 424.942382812 -9.998046875 276 -9.998046875 c 0
 132.499023438 -9.998046875 35 91.9228515625 35 243 c 0
EndSplineSet
Validated: 5
EndChar

StartChar: n
Encoding: 110 110 44
Width: 575
Flags: W
HStem: -9.99805 21G<89.4561 135.841 453.291 499.676> 422.101 88.8994<222.397 380.196>
VStem: 50 98.0322<213.335 355.889> 96.1318 51.8682<168.26 386.01> 441.132 98<41.3813 357.34>
LayerCount: 2
Fore
SplineSet
50 251 m 0xe8
 50 406.514966995 79.4673119857 511 129 511 c 0
 159.031926021 511 170.131835938 491.465254935 170.131835938 459 c 0
 170.131835938 432.432865048 148 379.437229725 148 250.001953125 c 0xd8
 148 121.184312653 165.131835938 68.4419470175 165.131835938 42.001953125 c 0
 165.131835938 9.53669819081 152.682617188 -9.998046875 119 -9.998046875 c 0
 59.9122413606 -9.998046875 50 95.1945449946 50 251 c 0xe8
148.032226562 241.301757812 m 0xe8
 148.032226562 213.334900339 134.631469863 205.885742188 122 205.885742188 c 0
 108.741001362 205.885742188 96.1318359375 215.336058217 96.1318359375 241.001953125 c 0xd8
 96.1318359375 392.582154646 176.066387055 511 317 511 c 0
 460.077324496 511 539.131835938 404.0326108 539.131835938 251 c 0
 539.131835938 95.1945449946 529.219594577 -9.998046875 470.131835938 -9.998046875 c 0
 436.44921875 -9.998046875 424 12.5420435856 424 50.001953125 c 0
 424 76.4419470175 441.131835938 129.184312653 441.131835938 258.001953125 c 0
 441.131835938 361.26384982 391.99721301 422.100585938 305.83203125 422.100585938 c 4
 206.247594015 422.100585938 148.032226562 355.888686616 148.032226562 241.301757812 c 0xe8
EndSplineSet
Validated: 5
EndChar

StartChar: g
Encoding: 103 103 45
Width: 615
Flags: W
HStem: -190.064 96.998<169.412 348.263> 10.002 87.8994<204.858 383.458> 417.101 93.8994<205.048 381.681>
VStem: 35 93.9004<170.302 340.783> 460.1 104.032<79.3935 374.859> 466.132 57.8682<34.7063 369.55>
LayerCount: 2
Fore
SplineSet
466.131835938 151.935546875 m 0xf4
 466.131835938 342.132652526 452 419.976637116 452 459 c 0
 452 491.46484375 463.639648438 511 495.131835938 511 c 0
 554.219726562 511 564.131835938 398.196138447 564.131835938 150.93359375 c 0xf8
 564.131835938 -124.515067289 404.070304613 -190.064453125 230.131835938 -190.064453125 c 0
 178.195762919 -190.064453125 159 -165.76490911 159 -139.06640625 c 0
 159 -109.132397293 180.625449317 -94.0457094437 217.823242188 -93.06640625 c 0
 386.059409883 -88.6372666801 466.131835938 -40.8941232678 466.131835938 151.935546875 c 0xf4
128.900390625 254.900390625 m 0
 128.900390625 159.789733267 190.435712855 97.9013671875 295.700195312 97.9013671875 c 4
 400.397512493 97.9013671875 460.099609375 164.558152858 460.099609375 261.301757812 c 0
 460.099609375 351.521530234 398.564287145 417.100585938 293.299804688 417.100585938 c 0
 188.602487507 417.100585938 128.900390625 346.898821862 128.900390625 254.900390625 c 0
35 253 m 0
 35 394.932340252 134.057617188 511 283 511 c 0
 426.500976562 511 524 396.967913671 524 251.001953125 c 0xf4
 524 110.30672622 424.942382812 10.001953125 276 10.001953125 c 0
 132.499023438 10.001953125 35 107.894326453 35 253 c 0
EndSplineSet
Validated: 5
EndChar

StartChar: h
Encoding: 104 104 46
Width: 575
Flags: W
HStem: -9.99805 21G<91.1716 137.746 451.386 497.96> 422.101 88.8994<222.655 380.196> 741 20G<106.789 153.746>
VStem: 96.1318 51.8682<179.681 481.344> 441.132 98<43.0814 357.34>
LayerCount: 2
Fore
SplineSet
50 311 m 0
 50 560.015170962 75.5772887048 761 138 761 c 4
 169.492202488 761 181.131835938 742.967927632 181.131835938 713 c 4
 181.131835938 661.772231814 148 570.106211829 148 310.001953125 c 0
 148 144.025377901 165.131835938 76.0688683327 165.131835938 42.001953125 c 0
 165.131835938 9.53669819081 153.492202488 -9.998046875 122 -9.998046875 c 0
 60.3432083763 -9.998046875 50 90.2832807435 50 311 c 0
149 241 m 0
 149 213.271430702 135.101057087 205.885742188 122 205.885742188 c 0
 108.741001362 205.885742188 96.1318359375 215.336058217 96.1318359375 241.001953125 c 0
 96.1318359375 392.582154646 176.066387055 511 317 511 c 0
 460.077324496 511 539.131835938 404.0326108 539.131835938 251 c 0
 539.131835938 95.1945449946 528.788627561 -9.998046875 467.131835938 -9.998046875 c 0
 435.63963345 -9.998046875 424 12.5420435856 424 50.001953125 c 0
 424 76.4419470175 441.131835938 129.184312653 441.131835938 258.001953125 c 0
 441.131835938 361.26384982 391.99721301 422.100585938 305.83203125 422.100585938 c 0
 206.858337313 422.100585938 149 355.778177283 149 241 c 0
EndSplineSet
Validated: 5
EndChar

StartChar: f
Encoding: 102 102 47
Width: 378
Flags: W
HStem: -9.99805 21G<151.658 202.839> -9.99805 21G<151.658 202.839> 418.934 92<19.8379 359.929> 675.002 85.998<263.586 347.766>
VStem: 103.998 102<127.34 601.768>
LayerCount: 2
Fore
SplineSet
180 418.93359375 m 0x38
 61.0693359375 418.93359375 10 419.247070312 10 462.93359375 c 0
 10 507.9765625 58.91015625 510.93359375 183.998046875 510.93359375 c 0
 315.999023438 510.93359375 368.998046875 510.793945312 368.998046875 465.93359375 c 0
 368.998046875 418.93359375 318.67578125 418.93359375 180 418.93359375 c 0x38
103.998046875 390.001953125 m 0
 103.998046875 702.88671875 196.009765625 761 295.998046875 761 c 0
 337.711914062 761 353.129882812 740.989257812 353.129882812 719.001953125 c 0
 353.129882812 690.369140625 337.764648438 681.236328125 313.306640625 675.001953125 c 0
 240.601726145 655.778320312 205.998046875 634.524414062 205.998046875 391 c 4
 205.998046875 163.166992188 232.129882812 82.8740234375 232.129882812 38.001953125 c 4
 232.129882812 8.0341796875 219.680664062 -9.998046875 185.998046875 -9.998046875 c 4xb8
 117.318734975 -9.998046875 103.998046875 168.655273438 103.998046875 390.001953125 c 0
EndSplineSet
Validated: 5
EndChar

StartChar: u
Encoding: 117 117 48
Width: 575
Flags: W
HStem: -9.99805 88.8994<208.936 366.735> 491 20G<89.4561 135.841 452.56 491.763>
VStem: 50 98<143.662 459.621> 441.132 51.8682<114.802 331.623>
LayerCount: 2
Fore
SplineSet
539.131835938 251 m 0
 539.131835938 95.1943359375 529.219726562 -9.998046875 470.131835938 -9.998046875 c 0
 436.44921875 -9.998046875 424 9.537109375 424 42.001953125 c 0
 424 68.4423828125 441.131835938 121.184570312 441.131835938 250.001953125 c 0
 441.131835938 377.579556127 422 419.813970744 422 456 c 0
 422 490.337815505 434.988590595 511 470.131835938 511 c 0
 513.394160403 511 539.131835938 436.514648438 539.131835938 251 c 0
441.099609375 259.700195312 m 0
 441.099609375 287.666992188 454.5 295.116210938 467.131835938 295.116210938 c 0
 480.390625 295.116210938 493 285.666015625 493 260 c 0
 493 108.419921875 413.065429688 -9.998046875 272.131835938 -9.998046875 c 0
 129.0546875 -9.998046875 50 96.9697265625 50 250.001953125 c 0
 50 405.807617188 59.912109375 511 119 511 c 0
 152.682617188 511 165.131835938 488.459960938 165.131835938 451 c 0
 165.131835938 424.559570312 148 371.817382812 148 243 c 0
 148 139.73828125 197.134765625 78.9013671875 283.299804688 78.9013671875 c 0
 382.883789062 78.9013671875 441.099609375 145.11328125 441.099609375 259.700195312 c 0
EndSplineSet
Validated: 5
EndChar

StartChar: v
Encoding: 118 118 49
Width: 564
Flags: W
HStem: -10 105<257.157 308.361> 490.998 20G<62.8689 98.8371 468.575 503.444>
VStem: 32 115<353.83 471.227> 420.412 112<348.715 475.956>
LayerCount: 2
Fore
SplineSet
282 95 m 0
 312.862807994 95 378.712384763 231.545097136 420.412109375 401.5390625 c 0
 442.372819937 487.943285552 450.457680978 510.998046875 486.692382812 510.998046875 c 0
 520.195690336 510.998046875 532.412109375 482.56784446 532.412109375 449.998046875 c 0
 532.412109375 395.402361499 480.633889092 241.74164961 422.55859375 123.985351562 c 0
 373.539016683 24.5908690504 328.442502033 -10 282 -10 c 0
 232.046268805 -10 193.869948969 23.9883923657 130.450195312 153.998046875 c 0
 89.175704638 238.610205757 32 400.428434698 32 449.998046875 c 0
 32 482.56784446 45.0180261333 510.998046875 80.7197265625 510.998046875 c 0
 116.954428397 510.998046875 121.97675321 486.152706501 147 401.5390625 c 0
 196.545406482 227.801228517 252.245301835 95 282 95 c 0
EndSplineSet
Validated: 1
EndChar

StartChar: k
Encoding: 107 107 50
Width: 543
Flags: W
HStem: -9.99805 21G<91.1716 137.746 450.17 477.705> -9.99805 21G<91.1716 137.746 450.17 477.705> 203.501 102<150.789 298.756> 491 20G<439.051 470.75> 741 20G<106.789 153.746>
VStem: 50 98<48.1478 571.724> 72.501 75.499<136.872 427.669>
LayerCount: 2
Fore
SplineSet
50 311 m 0xbc
 50 560.015170962 75.5772887048 761 138 761 c 0
 169.492202488 761 181.131835938 742.967927632 181.131835938 713 c 0
 181.131835938 661.772231814 148 570.106211829 148 310.001953125 c 0
 148 144.025377901 165.131835938 76.0688683327 165.131835938 42.001953125 c 0
 165.131835938 9.53669819081 153.492202488 -9.998046875 122 -9.998046875 c 0
 60.3432083763 -9.998046875 50 90.2832807435 50 311 c 0xbc
204.500976562 203.500976562 m 0
 92.6623338368 203.500976562 72.5009765625 203.850244634 72.5009765625 252.500976562 c 0xba
 72.5009765625 302.235669089 94.6861550249 305.500976562 208.499023438 305.500976562 c 0
 296.349638025 305.500976562 326 338 369 399 c 0
 407.560781873 453.702504518 419.102564103 511 459 511 c 0
 482.500687326 511 501.131835938 492.967927632 501.131835938 463 c 0
 501.131835938 399.082515573 414.296875 282.127929688 332 259.001953125 c 5
 425.825195312 229.530273438 511.131835938 93.2576538614 511.131835938 34.001953125 c 0
 511.131835938 6.53135279607 488.41015625 -9.998046875 467 -9.998046875 c 0
 433.340820312 -9.998046875 418.081408347 25.4499152791 396.08203125 66.0439453125 c 0
 339.399414062 170.63671875 294.875911295 203.500976562 204.500976562 203.500976562 c 0
EndSplineSet
Validated: 5
EndChar

StartChar: r
Encoding: 114 114 51
Width: 384
Flags: W
HStem: -9.99805 21G<89.4561 135.841> 421.002 89.998<232.367 366.519>
VStem: 50 98.0322<213.335 355.192> 96.1318 51.8682<168.26 386.01>
LayerCount: 2
Fore
SplineSet
324.30859375 421.001953125 m 0xd0
 197.263862603 410.65653037 148.032226562 355.192393608 148.032226562 241.301757812 c 0xe0
 148.032226562 213.334900339 134.631469863 205.885742188 122 205.885742188 c 0
 108.741001362 205.885742188 96.1318359375 215.336058217 96.1318359375 241.001953125 c 0
 96.1318359375 392.582154646 172.447280089 511 307 511 c 0
 356.015202162 511 374.131835938 489.559852613 374.131835938 466.001953125 c 0
 374.131835938 436.718394886 355.766413032 423.563605517 324.30859375 421.001953125 c 0xd0
50 251 m 0
 50 406.514966995 79.4673119857 511 129 511 c 0
 159.031926021 511 170.131835938 491.465254935 170.131835938 459 c 0
 170.131835938 432.432865048 148 379.437229725 148 250.001953125 c 0xd0
 148 121.184312653 165.131835938 68.4419470175 165.131835938 42.001953125 c 0
 165.131835938 9.53669819081 152.682617188 -9.998046875 119 -9.998046875 c 0
 59.9122413606 -9.998046875 50 95.1945449946 50 251 c 0
EndSplineSet
Validated: 5
EndChar

StartChar: z
Encoding: 122 122 52
Width: 493
Flags: W
HStem: -9.99805 92<142.998 414.761> 419 92<98.7362 350.265>
VStem: 30 111.758<87.6877 136.629> 352.697 110.802<363.8 413.378>
LayerCount: 2
Fore
SplineSet
256.499023438 419 m 0
 178.937121895 419.000000002 128.270045498 401.71875 97.2685546875 401.71875 c 0
 65.0068359375 401.71875 50 423.259253139 50 445 c 0
 50 488.1646875 87.250153825 511 256.998046875 511 c 0
 426.632119592 511 463.499023438 474.67061955 463.499023438 406 c 0
 463.499023438 342.435739872 404.931962804 296.693657101 280.309570312 214.99609375 c 0
 203.602379648 164.709861528 141.7578125 133.921371346 141.7578125 105.547851562 c 0
 141.7578125 82.39146104 181.496392328 82.0019531218 256.499023438 82.001953125 c 0
 334.142358772 82.0019531278 385.196449308 99.283203125 416.23046875 99.283203125 c 0
 448.491843991 99.283203125 463.499023438 77.7426972238 463.499023438 56.001953125 c 0
 463.499023438 12.8375636933 426.632119592 -9.998046875 256.998046875 -9.998046875 c 0
 70.8492364625 -9.998046875 30 26.330859375 30 95.001953125 c 0
 30 164.119329256 104.760165955 216.934781814 221.84765625 287.875 c 0
 301.634045835 336.215466357 352.697265625 373.082760587 352.697265625 394.301757812 c 0
 352.697265625 415 329.756436266 418.999999997 256.499023438 419 c 0
EndSplineSet
Validated: 1
EndChar

StartChar: w
Encoding: 119 119 53
Width: 804
Flags: W
HStem: -9.99805 111.285<204.582 247.579 556.88 598.525> 490.992 20G<62.9507 95.5653 708.394 739.634>
VStem: 32 114.097<316.769 463.153> 662.289 108.296<323.023 480.46>
LayerCount: 2
Fore
SplineSet
401.026367188 456.892578125 m 0
 452.92581124 456.892578125 475.546649561 430.312740838 522.323242188 227.829101562 c 0
 546.528810283 123.049526063 564.64180323 101.287109375 578 101.287109375 c 0
 599.026527235 101.287109375 621.2907196 153.76022528 662.2890625 395.826171875 c 0
 679.055721305 491.41900112 694.08416855 510.9921875 722.703125 510.9921875 c 0
 756.565429688 510.9921875 770.584960938 481.88671875 770.584960938 453.998046875 c 0
 770.584960938 409.23048868 741.654855148 270.709464196 715.918945312 191.998046875 c 0
 666.949462808 39.0410249078 638.802518626 -9.998046875 574.955078125 -9.998046875 c 0
 511.316948725 -9.998046875 477.275512689 70.743844877 447.499023438 168.408203125 c 0
 413.779721595 279.004652128 412.331362313 298.190429688 400 298.190429688 c 0
 388.815166719 298.190429688 383.516848804 279.459485199 355.0859375 168.408203125 c 0
 329.76261791 69.4951898653 291.268012212 -9.998046875 227.629882812 -9.998046875 c 0
 163.782442311 -9.998046875 136.253980428 39.2461153994 86.666015625 191.998046875 c 0
 60.768767533 270.656529018 32 409.23048868 32 453.998046875 c 0
 32 481.88671875 46.01953125 510.9921875 79.8818359375 510.9921875 c 0
 111.248700724 510.9921875 123.406174944 491.576541093 146.096679688 362.751953125 c 0
 182.008678005 153.759377073 204.07537586 101.287109375 226 101.287109375 c 0
 241.839198462 101.287109375 253.581002639 123.804471556 280.26171875 227.829101562 c 0
 331.76264384 428.624487084 349.354647573 456.892578125 401.026367188 456.892578125 c 0
EndSplineSet
Validated: 1
EndChar

StartChar: x
Encoding: 120 120 54
Width: 537
Flags: W
HStem: -9.99805 21G<72.5903 114.153 427.037 464.928> -9.99805 21G<72.5903 114.153 427.037 464.928> 491 20G<85.4883 118.446 417.189 451.928>
LayerCount: 2
Fore
SplineSet
482.200195312 466 m 0xa0
 482.200195312 437.537109375 464.106445312 400.75 322.03125 248 c 0
 167.452148438 81.8056640625 144.306640625 -9.998046875 84 -9.998046875 c 0
 61.1806640625 -9.998046875 35 10.515625 35 40 c 0
 35 71.6455078125 105.229492188 137.181640625 240.71484375 288 c 0
 392.28515625 456.723632812 398.177734375 511 436.200195312 511 c 0
 467.655273438 511 482.200195312 489.319335938 482.200195312 466 c 0xa0
55 468 m 0
 55 490.283203125 73.9765625 511 97 511 c 0
 139.891601562 511 146.580078125 454.861328125 296.484375 288 c 0
 430.502929688 138.821289062 502.200195312 71.6455078125 502.200195312 40 c 0
 502.200195312 10.515625 481.655273438 -9.998046875 448.200195312 -9.998046875 c 0
 405.874023438 -9.998046875 372.590820312 79.9384765625 215.168945312 248 c 0
 77.1376953125 395.359375 55 439.275390625 55 468 c 0
EndSplineSet
Validated: 5
EndChar

StartChar: y
Encoding: 121 121 55
Width: 564
Flags: W
HStem: -190.064 96.998<69.4123 180.325> 490.998 20G<62.8689 98.8371 468.575 503.444>
VStem: 32 115<350.279 470.523> 420.412 112<351.265 474.075>
LayerCount: 2
Fore
SplineSet
284 118 m 4
 314.416852678 118 377.918939653 244.627139033 420.412109375 401.5390625 c 0
 442.973501102 487.788388138 450.457680978 510.998046875 486.692382812 510.998046875 c 0
 520.195690336 510.998046875 532.412109375 482.56784446 532.412109375 449.998046875 c 0
 532.412109375 392.757593472 486.349681946 260.681713377 408.89453125 108.192382812 c 4
 293.010710092 -119.95314596 247.191715307 -190.064453125 130.131835938 -190.064453125 c 0
 78.1957629188 -190.064453125 59 -165.76490911 59 -139.06640625 c 0
 59 -109.132397293 80.6469561222 -94.665963562 117.823242188 -93.06640625 c 0
 197.70098217 -89.0917824928 230.56640625 -17.722344764 230.56640625 3.013671875 c 4
 230.56640625 21.555605458 189.667082091 62.5855449961 130.450195312 163.998046875 c 4
 78.7669339755 252.508759318 32 402.103083758 32 449.998046875 c 0
 32 482.56784446 45.0180261333 510.998046875 80.7197265625 510.998046875 c 0
 116.954428397 510.998046875 121.473936772 486.002378366 147 401.5390625 c 0
 197.279412504 240.836990253 253.804491492 118 284 118 c 4
EndSplineSet
Validated: 1
EndChar

StartChar: comma
Encoding: 44 44 56
Width: 218
Flags: W
HStem: -107.998 220.998<69.6588 95.6408>
VStem: -11 174<-70 68.002> 45.1025 117.897<-7.33178 54.2154>
LayerCount: 2
Fore
SplineSet
-11 -70 m 4xc0
 -11 -40.4979840529 16.3398609278 -30.2559568041 45.1025390625 9.068359375 c 4xa0
 76.2460434619 51.6477397857 69.6588334949 113 121 113 c 4
 146.008510431 113 163 93.2644062883 163 68.001953125 c 4
 163 6.66534826573 95.6408450448 -107.998046875 34 -107.998046875 c 4
 7.20516739532 -107.998046875 -11 -90.8989716343 -11 -70 c 4xc0
EndSplineSet
Validated: 1
EndChar

StartChar: zero
Encoding: 48 48 59
Width: 669
Flags: W
HStem: -9.99805 100.899<249.193 416.153> 632.101 106.899<252.847 413.869>
VStem: 35 106.9<225.648 497.844> 527.1 106.9<228.727 496.466>
LayerCount: 2
Fore
SplineSet
141.900390625 360.900390625 m 0
 141.900390625 197.334585014 213.396846938 90.9013671875 335.700195312 90.9013671875 c 4
 457.592206462 90.9013671875 527.099609375 203.654363059 527.099609375 367.301757812 c 4
 527.099609375 520.64051605 455.603153062 632.100585938 333.299804688 632.100585938 c 4
 211.407793538 632.100585938 141.900390625 514.723374448 141.900390625 360.900390625 c 0
35 359 m 0
 35 568.047661939 154.028642196 739 333 739 c 4
 512.227658089 739 634 575.846200568 634 367.001953125 c 4
 634 146.910275136 514.971357804 -9.998046875 336 -9.998046875 c 4
 156.772341911 -9.998046875 35 138.65399777 35 359 c 0
EndSplineSet
Validated: 1
EndChar

StartChar: one
Encoding: 49 49 60
Width: 386
Flags: W
HStem: -9.99805 21G<240.465 290.934> -9.99805 21G<240.465 290.934> 631 108<144.736 266.687>
VStem: 224.998 109<200.943 629.194>
LayerCount: 2
Fore
SplineSet
224.998046875 474 m 4xb0
 224.998046875 608.655430712 218.249523903 631 198 631 c 0
 166.615427851 631 110.786532221 581.380859375 70.9482421875 581.380859375 c 0
 44.2417296283 581.380859375 29 601.555464365 29 624 c 0
 29 678.628208706 169.141707822 739 236 739 c 0
 297.373725018 739 333.998046875 709.352941176 333.998046875 475 c 4
 333.998046875 106.892964399 322.736624557 -9.998046875 259.131835938 -9.998046875 c 4
 221.798527584 -9.998046875 208 12.1663754112 208 49.001953125 c 0
 208 103.026060572 224.998046875 210.79301596 224.998046875 474 c 4xb0
EndSplineSet
Validated: 1
EndChar

StartChar: two
Encoding: 50 50 61
Width: 583
Flags: W
HStem: -9.99805 101<165.911 504.485> 636 103<190.266 375.908>
VStem: 30 135.758<60.6664 142.51> 422.697 110.802<451.62 592.461>
LayerCount: 2
Fore
SplineSet
292.499023438 636 m 0
 156.416242004 636 141.905282541 556.71875 94.2685546875 556.71875 c 0
 59.9592769019 556.71875 44 580.25 44 604 c 0
 44 664.360371767 144.763253954 739 292.998046875 739 c 0
 472.999426796 739 533.499023438 624.611268602 533.499023438 535 c 0
 533.499023438 411.193667318 463.851410041 344.997315002 330.309570312 245.99609375 c 0
 242.232215381 180.699960938 165.7578125 137.915607338 165.7578125 114.547851562 c 0
 165.7578125 91.39146104 217.964352726 91.0019531212 316.499023438 91.001953125 c 0
 408.724960561 91.0019531284 469.367787448 112.283203125 506.23046875 112.283203125 c 0
 538.491843991 112.283203125 553.499023438 88.751950108 553.499023438 65.001953125 c 0
 553.499023438 15.951510589 511.27617826 -9.998046875 316.998046875 -9.998046875 c 0
 81.646484375 -9.998046875 30 26.330859375 30 95.001953125 c 0
 30 163.541811797 132.333399092 226.336378873 266.84765625 324.875 c 0
 356.766537003 390.745211157 422.697265625 447.323506257 422.697265625 527 c 0
 422.697265625 585.118571183 383.769333036 636 292.499023438 636 c 0
EndSplineSet
Validated: 1
EndChar

StartChar: three
Encoding: 51 51 62
Width: 589
Flags: W
HStem: -9.99805 102.899<172.409 389.44> 329.002 100.998<165.955 353.364> 638.101 100.899<187.506 371.963>
VStem: 411.16 111.9<480.341 600.331> 440.16 108.9<139.33 268.645>
LayerCount: 2
Fore
SplineSet
236 329.001953125 m 0xe8
 188.955451194 329.001953125 157 339.599492163 157 382 c 0
 157 417.657142858 185.404669944 430 236 430 c 0
 347.056423084 430 411.16015625 468.533588427 411.16015625 540.900390625 c 0
 411.16015625 593.916581586 373.210467374 638.100585938 290.090820312 638.100585938 c 0
 156.358155421 638.100585938 157.480232207 571.911132812 98.3779296875 571.911132812 c 0
 72.7349173259 571.911132812 51 590.656956797 51 620.720703125 c 0
 51 673.190692004 140.195503939 739 288.360351562 739 c 0
 425.859477255 739 523.060546875 659.190429688 523.060546875 544 c 0xf0
 523.060546875 412.696348608 408 378 408 378 c 1
 408 378 549.060546875 352.314279382 549.060546875 192.001953125 c 0
 549.060546875 73.8115234375 442.145066896 -9.998046875 290.360351562 -9.998046875 c 4
 125.506307124 -9.998046875 30 64.0161087998 30 117 c 4
 30 146.424694241 51.4927873736 167.090820312 76 167.090820312 c 4
 131.32297112 167.090820312 131.089137226 92.9013671875 291.090820312 92.9013671875 c 4
 383.235866026 92.9013671875 440.16015625 131.871845771 440.16015625 204 c 0
 440.16015625 290.490865618 356.29519334 329.001953125 236 329.001953125 c 0xe8
EndSplineSet
Validated: 1
EndChar

StartChar: four
Encoding: 52 52 63
Width: 668
Flags: W
HStem: -9.99805 21G<446.008 496.89> -9.99805 21G<446.008 496.89> 177.885 94.0635<156.644 515.511> 718.992 20G<340.764 377.878>
VStem: 42 108<248.907 373.577> 417 104<8.39163 510.268>
LayerCount: 2
Fore
SplineSet
417 279 m 0xbc
 417 438.633567116 417.20943859 529 470 529 c 0
 518.998094512 529 521 441.76492481 521 275.001953125 c 0
 521 52.9607453893 520.779194078 -9.998046875 473 -9.998046875 c 0
 419.01511549 -9.998046875 417 48.2456352982 417 279 c 0xbc
358.544921875 177.884765625 m 0
 75.110727186 177.884765625 42 214.80059361 42 286 c 0
 42 354.364917463 106.485612465 480.32828595 181.38671875 576 c 0
 251.924992032 666.099036526 315.528526337 738.9921875 366 738.9921875 c 0
 389.755923763 738.9921875 407 722.166987593 407 700 c 0
 407 658.247796744 343.367263184 621.223052069 278 539 c 0
 215.017221908 459.776303147 150 365.646783667 150 305 c 0
 150 277.317188758 197.651587561 271.948242188 362.034179688 271.948242188 c 0
 474.395723601 271.948242188 553.583084266 280.525390625 592.635742188 280.525390625 c 0
 625.307499892 280.525390625 639.064453125 262.496607534 639.064453125 240 c 0
 639.064453125 180.588059204 557.263640542 177.884765625 358.544921875 177.884765625 c 0
EndSplineSet
Validated: 5
EndChar

StartChar: five
Encoding: 53 53 64
Width: 589
Flags: W
HStem: -9.99805 101.899<173.688 377.885> 358 94.7432<164.549 375.397> 638 101<187.809 476.006>
VStem: 54 105.099<377.356 596.706> 435.16 108.9<145.276 301.72>
LayerCount: 2
Fore
SplineSet
290.360351562 -9.998046875 m 0
 125.506307124 -9.998046875 30 64.0161087998 30 117 c 0
 30 146.424694241 51.4927873736 167.090820312 76 167.090820312 c 0
 130.808556129 167.090820312 130.576896516 91.9013671875 289.090820312 91.9013671875 c 0
 379.475106373 91.9013671875 435.16015625 137.181786756 435.16015625 221.1015625 c 0
 435.16015625 313.73499439 380.584877905 358 278 358 c 0
 200.871333601 358 147.57588802 330 119 330 c 0
 70.8219461698 330 54 361.711618702 54 393 c 0
 54 513.307875267 81.0103441571 676.800917863 123.459960938 709.662109375 c 0
 154.09633443 733.378406787 184.404121529 739 304.500976562 739 c 0
 476.768463863 739 517.499023438 717.82861036 517.499023438 671 c 0
 517.499023438 644.793685397 499.558917901 626.71875 467 626.71875 c 0
 435.455461369 626.71875 381.467464975 638 304 638 c 0
 236.987510572 638 203.34706621 630.88680043 189 618 c 0
 172.369666077 603.062326247 159.098632812 490.32056281 159.098632812 444 c 0
 159.098632812 434.941488841 162.786890784 431.522460938 169 431.522460938 c 0
 184.847782303 431.522460938 213.822755637 452.743164062 294 452.743164062 c 0
 449.840874845 452.743164062 544.060546875 362.38311759 544.060546875 222.001953125 c 0
 544.060546875 86.2584893255 439.211464253 -9.998046875 290.360351562 -9.998046875 c 0
EndSplineSet
Validated: 1
EndChar

StartChar: six
Encoding: 54 54 65
Width: 595
Flags: W
HStem: -9.99805 100.899<211.217 383.952> 386.101 92.8994<216.293 384.783> 626 112.992<331.231 467.594>
VStem: 35 110.9<157.528 317.469> 453.1 106.9<157.736 319.151>
LayerCount: 2
Fore
SplineSet
145.900390625 238.900390625 m 4
 145.900390625 149.242537156 202.446942301 90.9013671875 300.700195312 90.9013671875 c 4
 398.321659552 90.9013671875 453.099609375 152.663004201 453.099609375 242.301757812 c 4
 453.099609375 320.16264453 396.553057699 386.100585938 298.299804688 386.100585938 c 4
 200.678340448 386.100585938 145.900390625 316.983644027 145.900390625 238.900390625 c 4
436 738.9921875 m 0
 476.94173177 738.9921875 494 717.36642702 494 688 c 0
 494 664.32707556 479.930954077 640.927782249 400 626 c 0
 233.341255382 594.87506876 171.176746224 495.254186405 161.176757812 423.362304688 c 1
 161.176757812 423.362304688 213.631057351 479 316 479 c 0
 457.920716367 479 560 377.21875 560 241.001953125 c 0
 560 94.46875 456.756835938 -9.998046875 300 -9.998046875 c 0
 142.810546875 -9.998046875 35 87.4775390625 35 278 c 0
 35 569 228.700080265 738.9921875 436 738.9921875 c 0
EndSplineSet
Validated: 1
EndChar

StartChar: seven
Encoding: 55 55 66
Width: 573
Flags: W
HStem: -9.99805 21G<151.178 191.879> -9.99805 21G<151.178 191.879> 638 101<99.0127 428.298>
VStem: 432.697 110.802<519.824 668.335>
LayerCount: 2
Fore
SplineSet
115.2421875 36 m 0xb0
 115.2421875 90.3798731766 170.721695194 95.4444266803 296.84765625 298.875 c 0
 377.592513284 429.109667166 432.697265625 554.823645546 432.697265625 601.301757812 c 0
 432.697265625 632.056541853 397.832710407 637.999999996 286.499023438 638 c 0
 194.323982435 638.000000003 134.110917108 616.71875 97.2685546875 616.71875 c 0
 65.0068359375 616.71875 50 640.25 50 664 c 0
 50 713.05078125 92.6487777813 739 286.998046875 739 c 0
 497.705550706 739 543.499023438 702.67061955 543.499023438 634 c 0
 543.499023438 551.916200931 489.483717611 410.891212445 403.571289062 274.110351562 c 0
 271.622618975 64.0346478547 218.75769669 -9.998046875 165 -9.998046875 c 0
 137.356128167 -9.998046875 115.2421875 10.8303298323 115.2421875 36 c 0xb0
EndSplineSet
Validated: 1
EndChar

StartChar: eight
Encoding: 56 56 67
Width: 597
Flags: W
HStem: -9.99805 95.8994<203.929 394.957> 337.101 87.8008<220.31 378.286> 352.002 61.998<162.453 436.932> 643.101 95.8994<219.299 375.886>
VStem: 35 107.9<141.864 278.5> 69 104.9<468.062 597.871> 423.1 104.9<467.425 597.213> 454.1 107.9<141.312 277.698>
LayerCount: 2
Fore
SplineSet
142.900390625 212.900390625 m 0xd9
 142.900390625 135.964527401 200.746976208 85.9013671875 299.700195312 85.9013671875 c 0
 398.028789306 85.9013671875 454.099609375 136.240769587 454.099609375 209.301757812 c 0
 454.099609375 278.499372036 396.253023792 337.100585938 297.299804688 337.100585938 c 0
 198.971210694 337.100585938 142.900390625 278.782765458 142.900390625 212.900390625 c 0xd9
35 212 m 0
 35 327.615123245 139.649414062 414 297 414 c 0xb9
 454.791992188 414 562 328.852470941 562 210.001953125 c 0
 562 81.56640625 457.350585938 -9.998046875 300 -9.998046875 c 0
 142.208007813 -9.998046875 35 79.4345703125 35 212 c 0
173.900390625 530.900390625 m 0xd6
 173.900390625 470.095497185 220.309725839 424.901367188 299.700195312 424.901367188 c 0
 378.286478788 424.901367188 423.099609375 470.595759142 423.099609375 529.301757812 c 0
 423.099609375 596.10416268 376.689334929 643.100585938 297.299804688 643.100585938 c 0
 218.713521212 643.100585938 173.900390625 595.28110659 173.900390625 530.900390625 c 0xd6
69 537 m 4
 69 647.49609375 160.069335938 739 297 739 c 0
 434.546875 739 528 649.79624544 528 537.001953125 c 4
 528 422.521427236 436.931640625 352.001953125 300 352.001953125 c 0xb6
 162.453125 352.001953125 69 420.294754949 69 537 c 4
EndSplineSet
Validated: 5
EndChar

StartChar: nine
Encoding: 57 57 68
Width: 595
Flags: W
HStem: -9.99805 112.992<127.406 263.769> 249.994 92.8994<210.217 378.707> 638.093 100.899<211.048 383.783>
VStem: 35 106.9<409.844 571.258> 449.1 110.9<411.526 571.466>
LayerCount: 2
Fore
SplineSet
449.099609375 490.09375 m 0
 449.099609375 579.751603469 392.553057699 638.092773438 294.299804688 638.092773438 c 0
 196.678340448 638.092773438 141.900390625 576.331136424 141.900390625 486.692382812 c 4
 141.900390625 408.831496095 198.446942301 342.893554688 296.700195312 342.893554688 c 0
 394.321659552 342.893554688 449.099609375 412.010496598 449.099609375 490.09375 c 0
159 -9.998046875 m 0
 118.05826823 -9.998046875 101 11.6277136047 101 40.994140625 c 0
 101 64.6670650654 115.069045923 88.066358376 195 102.994140625 c 0
 361.658744618 134.119071865 423.823253776 233.73995422 433.823242188 305.631835938 c 1
 433.823242188 305.631835938 381.368942649 249.994140625 279 249.994140625 c 0
 137.079283633 249.994140625 35 351.775390625 35 487.9921875 c 0
 35 634.525390625 138.243164062 738.9921875 295 738.9921875 c 0
 452.189453125 738.9921875 560 641.516601562 560 450.994140625 c 0
 560 159.994140625 366.299919735 -9.998046875 159 -9.998046875 c 0
EndSplineSet
Validated: 1
EndChar

StartChar: hyphen
Encoding: 45 45 69
Width: 358
Flags: W
HStem: 216.934 92<19.8379 340.91>
LayerCount: 2
Fore
SplineSet
180 216.93359375 m 4
 61.0693359375 216.93359375 10 217.247070312 10 260.93359375 c 4
 10 305.9765625 58.91015625 308.93359375 183.998046875 308.93359375 c 4
 301.728647593 308.93359375 348.998046875 308.793945312 348.998046875 263.93359375 c 4
 348.998046875 216.93359375 304.000943754 216.93359375 180 216.93359375 c 4
EndSplineSet
Validated: 1
EndChar

StartChar: exclam
Encoding: 33 33 70
Width: 230
Flags: W
HStem: -9.99805 122.998<65.6762 164.324> 719 20G<96.2729 134.652>
VStem: 51 128<4.18342 97.8315> 60 110<375.153 726.459> 71.168 91.7656<208.777 524.097>
LayerCount: 2
Fore
SplineSet
60 643.001953125 m 0xd0
 60 710.635538924 76.5458984375 739 116 739 c 0
 153.303710938 739 170 712.554741753 170 647 c 0xd0
 170 543.005094233 166.970703125 357.980015705 162.93359375 269 c 4
 160.868636986 222.283225384 146.784179688 201.001953125 118 201.001953125 c 4
 88.40625 201.001953125 74.119891999 222.377915728 71.16796875 270 c 4xc8
 65.5986328125 357.501776405 60 544.501110983 60 643.001953125 c 0xd0
EndSplineSet
Refer: 40 46 N 1 0 0 1 16 0 2
Validated: 1
EndChar

StartChar: question
Encoding: 63 63 71
Width: 605
Flags: W
HStem: -9.99805 122.998<215.676 314.324> 638 101<192.747 391.019>
VStem: 201 128<4.18342 97.8315> 214 99.9004<208.611 309.905> 435.16 107.9<472.559 598.708>
LayerCount: 2
Fore
SplineSet
292.499023438 638 m 0xd8
 156 638 141.905282541 556.71875 94.2685546875 556.71875 c 0
 59.9592769019 556.71875 44 580.25 44 604 c 0
 44 664.360371767 145.977278585 739 295.998046875 739 c 0
 452.298473957 739 543.060546875 646.190429688 543.060546875 541 c 4
 543.060546875 433.517749092 478.975249792 379.685336442 399.932617188 347.20703125 c 4
 322 315.184827003 313.900390625 297.683306006 313.900390625 259 c 4
 313.900390625 218 297.448020311 201 263 201 c 0
 228.896403518 201 214 225 214 269.001953125 c 0
 214 366.285304291 282.172879398 395.250172816 368.400390625 436 c 0
 410.449772406 455.871906499 435.16015625 489.3904563 435.16015625 534.900390625 c 0
 435.16015625 593.095000744 400.988537445 638 292.499023438 638 c 0xd8
EndSplineSet
Refer: 40 46 N 1 0 0 1 166 0 2
Validated: 1
EndChar

StartChar: quotesingle
Encoding: 39 39 72
Width: 218
Flags: W
HStem: 481.002 257.998<74.4674 144.037>
VStem: 60 98<491.748 729.486>
LayerCount: 2
Fore
SplineSet
60 652.001953125 m 0
 60 713.294921875 75.068359375 739 111 739 c 0
 143.467773438 739 158 715.141601562 158 656 c 0
 158 623.811100596 156.443359375 569.152283344 152.93359375 539 c 0
 148.262030209 498.866748215 137.502929688 481.001953125 110 481.001953125 c 0
 81.669921875 481.001953125 69.6337567854 498.974467095 65.16796875 540 c 0
 62.017578125 568.941466372 60 622.424449762 60 652.001953125 c 0
EndSplineSet
Validated: 1
EndChar

StartChar: dollar
Encoding: 36 36 74
Width: 605
Flags: W
HStem: -9.99805 106.899<182.579 399.566> 632.101 106.899<200.233 407.598>
VStem: 51 106.9<480.605 594.563> 255.5 94<83.4931 591.948> 453.16 110.9<143.7 256.218>
LayerCount: 2
Fore
SplineSet
255.5 339 m 0
 255.5 784.03515625 265.8203125 839 300.5 839 c 0
 336.481445312 839 349.5 791.533203125 349.5 335.001953125 c 0
 349.5 -40.875 341.357421875 -109.998046875 303.5 -109.998046875 c 0
 264.5 -109.998046875 255.5 -48.5712890625 255.5 339 c 0
EndSplineSet
Refer: 19 83 S 1 0 0 1 0 0 2
Validated: 5
EndChar

StartChar: plus
Encoding: 43 43 75
Width: 450
Flags: W
HStem: 316.934 92<40.9953 411.341>
VStem: 179.499 92<178.43 548.776>
LayerCount: 2
Fore
SplineSet
271.499023438 357.434570312 m 4
 271.499023438 224.51171875 271.185546875 167.434570312 227.499023438 167.434570312 c 4
 182.456054688 167.434570312 179.499023438 221.966796875 179.499023438 361.432617188 c 4
 179.499023438 501.99609375 179.638671875 558.432617188 224.499023438 558.432617188 c 4
 271.499023438 558.432617188 271.499023438 504.915039062 271.499023438 357.434570312 c 4
220 316.93359375 m 4
 87.0774931066 316.93359375 30 317.247070312 30 360.93359375 c 4
 30 405.9765625 84.5320763955 408.93359375 223.998046875 408.93359375 c 4
 364.561248945 408.93359375 420.998046875 408.793945312 420.998046875 363.93359375 c 4
 420.998046875 316.93359375 367.480683748 316.93359375 220 316.93359375 c 4
EndSplineSet
Validated: 5
EndChar

StartChar: equal
Encoding: 61 61 76
Width: 450
Flags: W
HStem: 226.934 92<40.9952 411.341> 406.934 92<40.9952 411.341>
LayerCount: 2
Fore
SplineSet
220 226.93359375 m 0
 87.0771484375 226.93359375 30 227.247070312 30 270.93359375 c 0
 30 315.9765625 84.5322265625 318.93359375 223.998046875 318.93359375 c 0
 364.561523438 318.93359375 420.998046875 318.793945312 420.998046875 273.93359375 c 0
 420.998046875 226.93359375 367.48046875 226.93359375 220 226.93359375 c 0
220 406.93359375 m 0
 87.0771484375 406.93359375 30 407.247070312 30 450.93359375 c 0
 30 495.9765625 84.5322265625 498.93359375 223.998046875 498.93359375 c 0
 364.561523438 498.93359375 420.998046875 498.793945312 420.998046875 453.93359375 c 0
 420.998046875 406.93359375 367.48046875 406.93359375 220 406.93359375 c 0
EndSplineSet
Validated: 1
EndChar

StartChar: slash
Encoding: 47 47 77
Width: 503
Flags: W
HStem: 741.002 20G<400.257 444.123>
LayerCount: 2
Fore
SplineSet
474.099609375 716.90234375 m 0
 474.099609375 675.722607078 412.61356274 551.103685856 312.331054688 298.599609375 c 4
 171.657313608 -55.6066601578 136.200195312 -189.994140625 78.599609375 -189.994140625 c 0
 49.9892578125 -189.994140625 30 -166.963867188 30 -146.795898438 c 0
 30 -101.791487752 95.0684959085 13.6184077132 232.014648438 350.599609375 c 4
 343.331940621 624.516285329 370.513343526 761.001953125 430 761.001953125 c 4
 458.24609375 761.001953125 474.099609375 738.52734375 474.099609375 716.90234375 c 0
EndSplineSet
Validated: 1
EndChar

StartChar: ampersand
Encoding: 38 38 78
Width: 704
Flags: W
HStem: -9.99805 96.8994<212.801 417.817> 329.002 100.998<232.57 423.584 538.285 685.506> 638.101 100.899<221.491 406.559>
VStem: 40 113.9<139.211 274.399> 66 111.9<479.19 599.402> 483 114.686<143.106 274.116>
LayerCount: 2
Fore
SplineSet
323.060546875 329.001953125 m 0xf4
 223.388044291 329.001953125 153.900390625 291.10703339 153.900390625 206 c 0
 153.900390625 128.678035377 216.552648631 86.9013671875 317.969726562 86.9013671875 c 0
 424.163260194 86.9013671875 483 137.308596843 483 204 c 0
 483 277.430952866 429.631669432 329.001953125 323.060546875 329.001953125 c 0xf4
538.2421875 328.124023438 m 1
 538.2421875 328.124023438 597.685546875 285.18514998 597.685546875 198 c 0
 597.685546875 76.567891897 495.832158044 -9.998046875 315.700195312 -9.998046875 c 0
 144.941230994 -9.998046875 40 73.8115234375 40 192.001953125 c 0xf4
 40 352.314279382 181.060546875 378 181.060546875 378 c 1
 181.060546875 378 66 412.696348608 66 544 c 0
 66 659.190429688 163.20106962 739 300.700195312 739 c 0
 448.865042936 739 538.060546875 673.190692004 538.060546875 620.720703125 c 0
 538.060546875 590.656956797 516.325629549 571.911132812 490.682617188 571.911132812 c 0
 434.663169573 571.911132812 435.726717338 638.100585938 308.969726562 638.100585938 c 0
 218.984621256 638.100585938 177.900390625 593.916581586 177.900390625 540.900390625 c 0xec
 177.900390625 468.533588427 238.344402623 430 343.060546875 430 c 0
 469.247248359 430 554.05698217 431.84765625 617.467773438 431.84765625 c 0
 667.639119052 431.84765625 694.060546875 415.030661814 694.060546875 379 c 0
 694.060546875 345.139487577 669.512341375 325.904296875 624.0390625 325.904296875 c 0
 596.91778305 325.904296875 538.2421875 328.124023438 538.2421875 328.124023438 c 1
EndSplineSet
Validated: 1
EndChar

StartChar: underscore
Encoding: 95 95 79
Width: 518
Flags: W
HStem: -92.0664 92<24.4675 496.988>
LayerCount: 2
Fore
SplineSet
260 -92.06640625 m 0
 85.101964614 -92.06640625 10 -91.752929688 10 -48.06640625 c 0
 10 -3.0234375 81.3978368319 -0.06640625 263.998046875 -0.06640625 c 0
 438.810150972 -0.06640625 508.998046875 -0.206054688 508.998046875 -45.06640625 c 4
 508.998046875 -92.06640625 442.700293739 -92.06640625 260 -92.06640625 c 0
EndSplineSet
Validated: 1
EndChar

StartChar: bar
Encoding: 124 124 80
Width: 224
Flags: W
HStem: 741 20G<85.7336 134.826>
VStem: 60 104<32.4219 557.579>
LayerCount: 2
Fore
SplineSet
60 299 m 4
 60 710.21270996 61.4672851563 761 110 761 c 4
 159.652954102 761 164 717.111967052 164 295.001953125 c 4
 164 -125.344117997 164 -189.998046875 113 -189.998046875 c 4
 60.9375 -189.998046875 60 -123.09868512 60 299 c 4
EndSplineSet
Validated: 1
EndChar

StartChar: backslash
Encoding: 92 92 81
Width: 503
Flags: W
HStem: 741.002 20G<59.9766 103.843>
LayerCount: 2
Fore
SplineSet
30 716.90234375 m 0
 30 738.52734375 45.853515625 761.001953125 74.099609375 761.001953125 c 4
 133.5859375 761.001953125 160.767578125 624.516601562 272.084960938 350.599609375 c 4
 409.03125 13.6181640625 474.099609375 -101.791015625 474.099609375 -146.795898438 c 0
 474.099609375 -166.963867188 454.110351562 -189.994140625 425.5 -189.994140625 c 0
 367.899414062 -189.994140625 332.442382812 -55.6064453125 191.768554688 298.599609375 c 4
 91.486328125 551.103515625 30 675.72265625 30 716.90234375 c 0
EndSplineSet
Validated: 1
EndChar

StartChar: parenleft
Encoding: 40 40 82
Width: 397
Flags: W
HStem: -190 89.043<271.523 380.488> 671.88 89.043<271.523 380.488>
VStem: 35 108.9<80.5109 490.892>
LayerCount: 2
Fore
SplineSet
143.900390625 285.900390625 m 4
 143.900390625 66.4284188218 193.156777214 -76.0397208908 329 -100.95703125 c 4
 349.315605057 -104.683461071 387.998046875 -102.724579824 387.998046875 -146.077148438 c 4
 387.998046875 -181.766238278 348.848628333 -190 312 -190 c 4
 126.36487301 -190 35 24.0685926693 35 285.922851562 c 0
 35 547.304055729 126.36487301 760.922851562 312 760.922851562 c 4
 348.848628333 760.922851562 387.998046875 752.68908984 387.998046875 717 c 4
 387.998046875 673.647431386 349.315605057 675.606312633 329 671.879882812 c 4
 193.156851427 646.962586066 143.900390625 504.926705338 143.900390625 285.900390625 c 4
EndSplineSet
Validated: 1
EndChar

StartChar: parenright
Encoding: 41 41 83
Width: 398
Flags: W
HStem: -190 89.043<16.5099 125.475> 671.88 89.043<16.5099 125.475>
VStem: 253.098 109.9<85.1412 491.765>
LayerCount: 2
Fore
SplineSet
253.09765625 285.900390625 m 0
 253.09765625 504.926705338 203.841195448 646.962586066 67.998046875 671.879882812 c 0
 47.6824418179 675.606312633 9 673.647431386 9 717 c 0
 9 752.68908984 48.149418542 760.922851562 84.998046875 760.922851562 c 0
 271.303336778 760.922851562 362.998046875 548.687922558 362.998046875 289 c 4
 362.998046875 25.4526842994 271.303336778 -190 84.998046875 -190 c 0
 48.149418542 -190 9 -181.766238278 9 -146.077148438 c 0
 9 -102.724579824 47.6824418179 -104.683461071 67.998046875 -100.95703125 c 0
 203.841269661 -76.0397208908 253.09765625 66.4284188218 253.09765625 285.900390625 c 0
EndSplineSet
Validated: 1
EndChar

StartChar: bracketleft
Encoding: 91 91 84
Width: 395
Flags: W
HStem: -190 91<185.262 350.613> 670 91<185.385 353.895>
VStem: 52 103<49.9833 583.441>
LayerCount: 2
Fore
SplineSet
155 315.001953125 m 0
 155 114.446203824 159.677675736 -21.970749751 183 -73 c 0
 193.095400338 -95.0887380002 201.855704717 -99 248 -99 c 0
 300.536128408 -99 322.231790002 -84.71875 343.23046875 -84.71875 c 0
 372.761794346 -84.71875 386.499023438 -100.784701333 386.499023438 -122 c 0
 386.499023438 -164.742430735 352.037037158 -190 215.500976562 -190 c 0
 161.650759529 -190 128.326817945 -185.222243342 108 -162 c 0
 56.8822240976 -103.600823389 52 46.5473294554 52 315 c 0
 52 550.810626747 62.6118482791 689.14935027 108 734 c 0
 129.532820518 755.277821505 161.650759529 761 215.500976562 761 c 0
 353.799915453 761 386.499023438 738.510383531 386.499023438 700 c 0
 386.499023438 677.273135228 373.396769523 658.71875 345.23046875 658.71875 c 0
 323.790782433 658.71875 301.639475459 670 248 670 c 0
 201.855704717 670 193.733448368 664.85158741 183 644 c 0
 162.285161359 603.757828631 155 485.056337723 155 315.001953125 c 0
EndSplineSet
Validated: 1
EndChar

StartChar: bracketright
Encoding: 93 93 85
Width: 395
Flags: W
HStem: -190 91<44.8857 210.237> 670 91<41.6036 210.114>
VStem: 240.499 103<49.9833 583.441>
LayerCount: 2
Fore
SplineSet
240.499023438 315.001953125 m 4
 240.499023438 485.056337723 233.213862078 603.757828631 212.499023438 644 c 4
 201.765575069 664.85158741 193.643318721 670 147.499023438 670 c 4
 93.8595479789 670 71.7082410045 658.71875 50.2685546875 658.71875 c 4
 22.1022539149 658.71875 9 677.273135228 9 700 c 4
 9 738.510383531 41.6991079847 761 179.998046875 761 c 4
 233.848263908 761 265.966202919 755.277821505 287.499023438 734 c 4
 332.887175158 689.14935027 343.499023438 550.810626747 343.499023438 315 c 4
 343.499023438 46.5473294554 338.61679934 -103.600823389 287.499023438 -162 c 4
 267.172205493 -185.222243342 233.848263908 -190 179.998046875 -190 c 4
 43.4619862793 -190 9 -164.742430735 9 -122 c 4
 9 -100.784701333 22.737229092 -84.71875 52.2685546875 -84.71875 c 4
 73.2672334356 -84.71875 94.9628950296 -99 147.499023438 -99 c 4
 193.643318721 -99 202.403623099 -95.0887380002 212.499023438 -73 c 4
 235.821347702 -21.970749751 240.499023438 114.446203824 240.499023438 315.001953125 c 4
EndSplineSet
Validated: 1
EndChar

StartChar: asciicircum
Encoding: 94 94 86
Width: 484
Flags: W
HStem: 637.998 101<217.688 258.03>
VStem: 32 116<413.913 484.254> 330.412 122<414.447 474.477>
LayerCount: 2
Fore
SplineSet
237.412109375 637.998046875 m 0
 225.7384157 637.998046875 191.554040518 576.846651881 148 469.458984375 c 0
 113.572691035 384.574359108 113.421508117 360 71.7197265625 360 c 0
 42.6132066958 360 32 383.769899462 32 411 c 0
 32 443.823145689 77.1965178014 547.603793132 114.450195312 607 c 0
 169.667896767 708.512670402 196.783504062 738.998046875 237.412109375 738.998046875 c 0
 279.125536628 738.998046875 304.748887883 710.015818865 363.961914062 607 c 0
 398.236043808 547.371607914 452.412109375 443.823145689 452.412109375 411 c 0
 452.412109375 383.769899462 440.997160644 360 409.692382812 360 c 0
 366.350526584 360 362.892977237 385.818782519 330.412109375 469.458984375 c 0
 288.556117958 577.240697162 249.177390515 637.998046875 237.412109375 637.998046875 c 0
EndSplineSet
Validated: 1
EndChar

StartChar: grave
Encoding: 96 96 87
Width: 258
Flags: W
HStem: 517.994 220.998<115.024 117.895>
VStem: 32 194<547.992 697.994>
LayerCount: 2
Fore
SplineSet
226 547.9921875 m 0
 226 531.492876239 211.840494792 517.994140625 191 517.994140625 c 4
 115.02434593 517.994140625 32 635.263205788 32 697.994140625 c 0
 32 721.011165553 47.373000372 738.9921875 70 738.9921875 c 4
 117.895132249 738.9921875 104.493522101 678.195290995 172.36328125 607.22265625 c 4
 194.553999989 584.017420287 226 577.092235186 226 547.9921875 c 0
EndSplineSet
Validated: 1
EndChar

StartChar: less
Encoding: 60 60 88
Width: 450
Flags: W
HStem: 189.293 106<277.197 377.13> 417.705 112<282.14 375.018>
LayerCount: 2
Fore
SplineSet
156.500976562 354.705078125 m 0
 156.500976562 346.948111443 200.395703505 324.23331985 305.040039062 295.29296875 c 0
 391.785437558 271.302732915 414.499023438 265.24788007 414.499023438 229.012695312 c 0
 414.499023438 199.90625 390.729492188 189.29296875 363.499023438 189.29296875 c 0
 330.67578125 189.29296875 227.563385233 224.977043271 167.499023438 251.743164062 c 0
 65.986328125 296.979656774 35.5009765625 320.684544323 35.5009765625 354.705078125 c 0
 35.5009765625 389.826463042 64.4833984375 410.400029645 167.499023438 461.254882812 c 0
 226.018102773 490.143502253 330.67578125 529.705078125 363.499023438 529.705078125 c 0
 390.729492188 529.705078125 414.499023438 518.290039062 414.499023438 486.985351562 c 0
 414.499023438 449.110462784 390.310591377 440.733605592 305.040039062 417.705078125 c 0
 200.048850714 389.350711946 156.500976562 362.675340222 156.500976562 354.705078125 c 0
EndSplineSet
Validated: 1
EndChar

StartChar: greater
Encoding: 62 62 89
Width: 450
Flags: W
HStem: 189.293 106<72.8701 172.803> 417.705 112<74.9816 167.859>
LayerCount: 2
Fore
SplineSet
293.499023438 354.705078125 m 0
 293.499023438 362.67578125 249.951171875 389.350585938 144.959960938 417.705078125 c 0
 59.689453125 440.733398438 35.5009765625 449.110351562 35.5009765625 486.985351562 c 0
 35.5009765625 518.290039062 59.2705078125 529.705078125 86.5009765625 529.705078125 c 0
 119.32421875 529.705078125 223.981445312 490.143554688 282.500976562 461.254882812 c 0
 385.516601562 410.400390625 414.499023438 389.826171875 414.499023438 354.705078125 c 0
 414.499023438 320.684570312 384.013671875 296.979492188 282.500976562 251.743164062 c 0
 222.436523438 224.9765625 119.32421875 189.29296875 86.5009765625 189.29296875 c 0
 59.2705078125 189.29296875 35.5009765625 199.90625 35.5009765625 229.012695312 c 0
 35.5009765625 265.248046875 58.21484375 271.302734375 144.959960938 295.29296875 c 0
 249.604492188 324.233398438 293.499023438 346.948242188 293.499023438 354.705078125 c 0
EndSplineSet
Validated: 1
EndChar

StartChar: percent
Encoding: 37 37 90
Width: 894
Flags: W
HStem: -9.99805 85.8994<605.586 734.237> -9.99414 21G<172.188 205.025 172.188 205.025> 277.101 91.8994<607.03 733.414> 359.994 85.8994<160.586 289.237> 647.093 91.8994<162.03 288.414> 719.002 20G<688.081 725.87>
VStem: 35 91.9004<479.044 610.806> 322.1 91.9004<481.275 612.987> 480 91.9004<109.052 240.814> 767.1 91.9004<111.283 242.995>
LayerCount: 2
Fore
SplineSet
571.900390625 173.900390625 m 0xa3c0
 571.900390625 114.532438054 608.349529111 75.9013671875 670.700195312 75.9013671875 c 0
 732.091806731 75.9013671875 767.099609375 118.489790405 767.099609375 180.301757812 c 0
 767.099609375 236.355676965 730.650470889 277.100585938 668.299804688 277.100585938 c 0
 606.908193269 277.100585938 571.900390625 232.434869022 571.900390625 173.900390625 c 0xa3c0
480 172 m 0
 480 280.374708953 555.091895077 369 668 369 c 0
 781.729178388 369 859 286.107765237 859 180.001953125 c 0
 859 69.0804177989 783.908104923 -9.998046875 671 -9.998046875 c 0
 557.270821612 -9.998046875 480 63.3204490316 480 172 c 0
126.900390625 543.892578125 m 0
 126.900390625 484.524625554 163.349529111 445.893554688 225.700195312 445.893554688 c 0
 287.091806731 445.893554688 322.099609375 488.481977904 322.099609375 550.293945312 c 0
 322.099609375 606.347864465 285.650470889 647.092773438 223.299804688 647.092773438 c 0x1bc0
 161.908193269 647.092773438 126.900390625 602.427056522 126.900390625 543.892578125 c 0
35 541.9921875 m 0
 35 650.366896453 110.091895077 738.9921875 223 738.9921875 c 0
 336.729178388 738.9921875 414 656.099952737 414 549.994140625 c 0
 414 439.072605298 338.908104923 359.994140625 226 359.994140625 c 0
 112.270821612 359.994140625 35 433.312636532 35 541.9921875 c 0
EndSplineSet
Refer: 130 8260 N 1 0 0 1 344.95 0 2
Validated: 1
EndChar

StartChar: asciitilde
Encoding: 126 126 91
Width: 484
VWidth: 999
Flags: W
HStem: 289 89<280.732 394.998> 362 89<98.1428 218.752>
LayerCount: 2
Fore
SplineSet
475 392 m 0x80
 475 335.371247367 425.704355566 289 348 289 c 0x80
 261.434960937 289 218.850492437 362 158 362 c 0
 96.6540527344 362 85.3720703125 313 48 313 c 0
 23.384765625 313 9 328.860351562 9 356 c 0
 9 406.915153952 64.3446614583 451 149 451 c 0x40
 246.487465716 451 280.535857505 378 336 378 c 0
 407.817937078 378 397.190508868 427 438 427 c 0
 459.211914062 427 475 413.842573117 475 392 c 0x80
EndSplineSet
Validated: 1
EndChar

StartChar: asterisk
Encoding: 42 42 92
Width: 386
Flags: W
VStem: 150.724 84.9531<633.579 780.133>
LayerCount: 2
Fore
SplineSet
192.99609375 536.20703125 m 1
 192.99609375 536.20703125 238.205735467 424.296875 287.631835938 424.296875 c 0
 306.601110788 424.296875 325.33984375 439.969821015 325.33984375 461.534179688 c 0
 325.33984375 498.550618791 244.896484375 572.05859375 244.896484375 572.05859375 c 1
 244.896484375 572.05859375 371.400390625 584.937983793 371.400390625 644.875 c 0
 371.400390625 664.224545932 356.379207444 677.588867188 334.630859375 677.588867188 c 0
 296.277583547 677.588867188 223.474609375 633.537109375 223.474609375 633.537109375 c 1
 223.474609375 633.537109375 235.676757812 691.433821071 235.676757812 727.774414062 c 0
 235.676757812 765.816630824 221.332931043 785.25 193.25390625 785.25 c 0
 165.070581938 785.25 150.723632812 765.816630824 150.723632812 727.774414062 c 0
 150.723632812 691.433821071 162.92578125 633.537109375 162.92578125 633.537109375 c 1
 162.92578125 633.537109375 90.1228070775 677.588867188 51.76953125 677.588867188 c 0
 30.0211831817 677.588867188 15 664.224545932 15 644.875 c 0
 15 584.937983793 141.50390625 572.05859375 141.50390625 572.05859375 c 1
 141.50390625 572.05859375 61.060546875 498.550618791 61.060546875 461.534179688 c 0
 61.060546875 439.969821015 79.7992798363 424.296875 98.7685546875 424.296875 c 0
 147.981593102 424.296875 192.99609375 536.20703125 192.99609375 536.20703125 c 1
EndSplineSet
Validated: 9
EndChar

StartChar: braceleft
Encoding: 123 123 93
Width: 410
Flags: W
HStem: -190 93.9961<218.724 371.468> 270.532 88<13.7153 123.459> 667 93.9961<215.2 371.468>
VStem: 96.877 103<-78.5455 96.7077 506.535 651.749> 136.877 99<90.1237 257.015 372.651 516.417>
LayerCount: 2
Fore
SplineSet
96.876953125 604.99609375 m 0xf0
 96.876953125 702.820379696 142.246050824 760.99609375 268.876953125 760.99609375 c 0
 344.619174012 760.99609375 405.876953125 737.104810414 405.876953125 687.99609375 c 0
 405.876953125 663.997209891 391.514222268 652 371.876953125 652 c 0
 340.943761565 652 329.580292166 667 275.876953125 667 c 0
 227.197617188 667 199.876953125 646.362399608 199.876953125 598 c 0xf0
 199.876953125 533.113533525 235.876953125 488.987441072 235.876953125 416.538085938 c 0
 235.876953125 334.541015625 174.876953125 311.538085938 174.876953125 311.538085938 c 1
 174.876953125 311.538085938 235.876953125 286.538085938 235.876953125 206.538085938 c 0xe8
 235.876953125 132.178553353 199.876953125 77.4344808629 199.876953125 -9.998046875 c 4
 199.876953125 -74.1777941645 227.197617188 -96.00390625 275.876953125 -96.00390625 c 0
 329.580292166 -96.00390625 340.943761565 -83.00390625 371.876953125 -83.00390625 c 0
 391.514222268 -83.00390625 405.876953125 -94.3345321511 405.876953125 -117 c 0
 405.876953125 -166.108716664 344.619174012 -190 268.876953125 -190 c 0
 142.246050824 -190 96.876953125 -128.819730361 96.876953125 -25.005859375 c 4xf0
 96.876953125 59.012331407 136.876953125 122.493832441 136.876953125 199.532226562 c 0
 136.876953125 253.730162663 111.65234375 270.532226562 61.876953125 270.532226562 c 0
 26.9215127648 270.532226562 9 283.741775097 9 315.122070312 c 0
 9 346.07197017 26.3434382989 358.532226562 61.876953125 358.532226562 c 0
 111.65234375 358.532226562 136.876953125 375.335325326 136.876953125 429.532226562 c 0xe8
 136.876953125 470.982888767 96.876953125 548.196675285 96.876953125 604.99609375 c 0xf0
EndSplineSet
Validated: 1
EndChar

StartChar: braceright
Encoding: 125 125 94
Width: 410
Flags: W
HStem: -190 93.9961<38.4085 191.153> 270.532 88<286.418 396.162> 667 93.9961<38.4085 194.677>
VStem: 174 99<90.1237 257.015 372.651 516.417> 210 103<-78.5455 96.7077 506.535 651.749>
LayerCount: 2
Fore
SplineSet
313 604.99609375 m 4xe8
 313 702.820379696 267.630902301 760.99609375 141 760.99609375 c 4
 65.2577791132 760.99609375 4 737.104810414 4 687.99609375 c 4
 4 663.997209891 18.3627308567 652 38 652 c 4
 68.9331915599 652 80.2966609589 667 134 667 c 4
 182.679335937 667 210 646.362399608 210 598 c 4xe8
 210 533.113533525 174 488.987441072 174 416.538085938 c 4
 174 334.541015625 235 311.538085938 235 311.538085938 c 5
 235 311.538085938 174 286.538085938 174 206.538085938 c 4xf0
 174 132.178553353 210 77.4344808629 210 -9.998046875 c 4
 210 -74.1777941645 182.679335937 -96.00390625 134 -96.00390625 c 4
 80.2966609589 -96.00390625 68.9331915599 -83.00390625 38 -83.00390625 c 4
 18.3627308567 -83.00390625 4 -94.3345321511 4 -117 c 4
 4 -166.108716664 65.2577791132 -190 141 -190 c 4
 267.630902301 -190 313 -128.819730361 313 -25.005859375 c 4xe8
 313 59.012331407 273 122.493832441 273 199.532226562 c 4
 273 253.730162663 298.224609375 270.532226562 348 270.532226562 c 4
 382.95544036 270.532226562 400.876953125 283.741775097 400.876953125 315.122070312 c 4
 400.876953125 346.07197017 383.533514826 358.532226562 348 358.532226562 c 4
 298.224609375 358.532226562 273 375.335325326 273 429.532226562 c 4xf0
 273 470.982888767 313 548.196675285 313 604.99609375 c 4xe8
EndSplineSet
Validated: 9
EndChar

StartChar: at
Encoding: 64 64 95
Width: 919
Flags: W
HStem: -132.089 96.8994<352.496 660.559> 87.4795 85.8994<540.109 697.584> 438.578 91.8994<539.561 698.318> 647.101 103.899<346.304 610.374>
VStem: 35 103.9<175.367 434.836> 386.721 95.9004<228.397 381.347> 751.82 132.18<204.685 473.573> 790.1 39.6211<215.611 471.485>
LayerCount: 2
Fore
SplineSet
482.62109375 303.377929688 m 0xfe
 482.62109375 224.62433004 533.826997637 173.37890625 621.420898438 173.37890625 c 0
 704.465284496 173.37890625 751.8203125 229.021203449 751.8203125 309.779296875 c 0
 751.8203125 384.363661568 702.827923423 438.578125 619.020507812 438.578125 c 0
 532.155043876 438.578125 482.62109375 380.062599595 482.62109375 303.377929688 c 0xfe
386.720703125 309.477539062 m 0
 386.720703125 431.055258244 475.393047312 530.477539062 608.720703125 530.477539062 c 0
 740.31310325 530.477539062 829.720703125 432.673319607 829.720703125 307.479492188 c 0xfd
 829.720703125 179.044030231 742.646058834 87.4794921875 611.720703125 87.4794921875 c 0
 477.746540102 87.4794921875 386.720703125 176.912116166 386.720703125 309.477539062 c 0
790.099609375 320.301757812 m 0
 790.099609375 510.29627826 698.692341687 647.100585938 473.299804688 647.100585938 c 4
 260.338770784 647.100585938 138.900390625 499.426918375 138.900390625 305.900390625 c 0
 138.900390625 98.5562888777 268.004668114 -35.189453125 488.299804688 -35.189453125 c 0
 666.973851616 -35.189453125 710.984273086 14 764.14453125 14 c 0
 783.971083188 14 803.522460938 -3.06194253938 803.522460938 -26.8095703125 c 0
 803.522460938 -77.5812106362 681.301592251 -132.088867188 486 -132.088867188 c 0
 218.648199446 -132.088867188 35 43.6550071155 35 304 c 0
 35 549.906065492 209.94813853 751 473 751 c 0
 741.144941208 751 884 562.782863632 884 320.001953125 c 0xfe
 884 180.348778173 861.27360307 92.4794921875 816.720703125 92.4794921875 c 0
 789.711245687 92.4794921875 773.911132812 111.465445469 773.911132812 143.857421875 c 0
 773.911132812 191.187201984 790.099609375 252.177192537 790.099609375 320.301757812 c 0
EndSplineSet
Validated: 5
EndChar

StartChar: numbersign
Encoding: 35 35 96
Width: 696
Flags: W
HStem: -9.99805 21G<131.043 168.982 381.043 418.982> -9.99805 21G<131.043 168.982 381.043 418.982> 189.011 94<257.198 586.401> 447.011 94<317.198 646.401> 718.992 20G<274.957 316.792 524.957 566.792>
LayerCount: 2
Fore
SplineSet
590.91796875 698.90234375 m 0xb8
 590.91796875 659.495117188 572.508491919 584.158326463 509.686523438 298.599609375 c 0
 449.034132819 22.9027588624 442.965650357 -9.998046875 394.999023438 -9.998046875 c 0
 367.086914062 -9.998046875 356.279296875 10.3662109375 356.279296875 28.2001953125 c 0
 356.279296875 57.37109375 372.23079919 107.812039102 425.920898438 350.599609375 c 0
 482.397176283 605.986328125 494.915067867 738.9921875 554.999023438 738.9921875 c 0
 578.584960938 738.9921875 590.91796875 723.665039062 590.91796875 698.90234375 c 0xb8
329 189.010742188 m 0
 44.1770833333 189.010742188 9 189.345290799 9 236.010742188 c 0
 9 280.115234375 39.5140594566 283.010742188 332.998046875 283.010742188 c 0
 582.1750062 283.010742188 627.998046875 282.87109375 627.998046875 238.010742188 c 0
 627.998046875 189.010742188 587.092612633 189.010742188 329 189.010742188 c 0
389 447.010742188 m 0
 104.177083333 447.010742188 69 447.331054688 69 492.010742188 c 0
 69 537.992021277 99.5140594566 541.010742188 392.998046875 541.010742188 c 0
 642.1750062 541.010742188 687.998046875 540.864887153 687.998046875 494.010742188 c 0
 687.998046875 447.010742188 647.092612633 447.010742188 389 447.010742188 c 0
340.91796875 698.90234375 m 0
 340.91796875 659.495117188 322.508491919 584.158326463 259.686523438 298.599609375 c 0
 199.034132819 22.9027588624 192.965650357 -9.998046875 144.999023438 -9.998046875 c 0
 117.086914062 -9.998046875 106.279296875 10.3662109375 106.279296875 28.2001953125 c 0
 106.279296875 57.37109375 122.23079919 107.812039102 175.920898438 350.599609375 c 0
 232.397176283 605.986328125 244.915067867 738.9921875 304.999023438 738.9921875 c 0
 328.584960938 738.9921875 340.91796875 723.665039062 340.91796875 698.90234375 c 0
EndSplineSet
Validated: 5
EndChar

StartChar: cent
Encoding: 162 162 97
Width: 563
Flags: W
HStem: -9.99805 21G<284 322.429> -9.99805 21G<284 322.429> 100.911 92.8994<214.204 379.953> 529.101 92.8994<215.836 373.836> 719 20G<283.16 318.491>
VStem: 35 100.9<268.312 448.156> 255.5 94<80.2498 590.675>
LayerCount: 2
Fore
SplineSet
255.5 339 m 0xbe
 255.5 675.028125 265.8203125 739 300.5 739 c 0
 336.481445312 739 349.5 680.951254875 349.5 335.001953125 c 0
 349.5 63.5917310393 341.357421875 -9.998046875 303.5 -9.998046875 c 0
 264.5 -9.998046875 255.5 57.7478590407 255.5 339 c 0xbe
EndSplineSet
Refer: 31 99 N 1 0 0 1 0 111 2
Validated: 5
EndChar

StartChar: sterling
Encoding: 163 163 98
Width: 631
Flags: W
HStem: -9.99805 101<215.615 537.318> 635.442 103.558<389.107 518.96>
VStem: 9 418.998<281.342 377.797> 87.998 110.802<108.697 270.411>
LayerCount: 2
Fore
SplineSet
219 281 m 0xe0
 72.0859375 281 9 281.341796875 9 329 c 0
 9 377.796875 69.154296875 381 222.998046875 381 c 0
 369.26953125 381 427.998046875 380.84765625 427.998046875 332 c 0
 427.998046875 281 372.350585938 281 219 281 c 0xe0
533.254882812 688.001953125 m 0
 533.254882812 655.737524503 505 643 450.225585938 635.442382812 c 0
 317.501007029 617.129424547 198.799804688 462.034945316 198.799804688 157.700195312 c 0
 198.799804688 101.803710938 233.663967978 91.001953125 344.998046875 91.001953125 c 0
 437.172851562 91.001953125 497.385742188 112.283203125 534.228515625 112.283203125 c 0
 566.490234375 112.283203125 581.497070312 88.751953125 581.497070312 65.001953125 c 0
 581.497070312 15.951171875 538.848632812 -9.998046875 344.499023438 -9.998046875 c 0
 133.791314702 -9.998046875 87.998046875 36.7109375 87.998046875 125.001953125 c 0xd0
 87.998046875 578.826171875 310.919507502 739 452.998046875 739 c 0
 506.466515384 739 533.254882812 719.639157946 533.254882812 688.001953125 c 0
EndSplineSet
Validated: 5
EndChar

StartChar: yen
Encoding: 165 165 99
Width: 650
Flags: W
HStem: 110.867 92<100.811 546.881> 260.867 102.066<271.472 374.46> 293.934 58.9336<277.169 366.418> 718.998 20G<62.2354 101.254>
VStem: 269 108<10.8356 351.557>
LayerCount: 2
Fore
SplineSet
323 390.93359375 m 0xb8
 353.862671027 390.93359375 406.819454912 452.592966379 461.412109375 563.47265625 c 0
 522.66036511 687.870117188 529.033661261 742.931640625 573.692382812 742.931640625 c 0
 606.462890625 742.931640625 618.412109375 719.162109375 618.412109375 691.931640625 c 0
 618.412109375 649.896484375 569.808468354 523.271750192 485.961914062 411.931640625 c 0
 417.312732889 320.772171782 376.844726562 293.93359375 323 293.93359375 c 0
 269.420898438 293.93359375 226.251022318 316.332537143 160.450195312 411.931640625 c 0
 81.8656350553 526.103663227 32 646.553423582 32 687.998046875 c 0
 32 715.228515625 44.7509765625 738.998046875 79.7197265625 738.998046875 c 0
 122.78747509 738.998046875 129.61919332 684.586570311 188 563.47265625 c 0
 242.751496692 449.887927945 293.245643029 390.93359375 323 390.93359375 c 0xb8
269 162.93359375 m 0
 269 340.948242188 271.471679688 362.93359375 321 362.93359375 c 0xd8
 374.459960938 362.93359375 377 343.720703125 377 158.935546875 c 0
 377 44.9501953125 367.618164062 -6.064453125 324 -6.064453125 c 0
 279.3125 -6.064453125 269 42.533203125 269 162.93359375 c 0
317.500976562 110.8671875 m 0
 156.594366776 110.8671875 87.5009765625 111.180664062 87.5009765625 154.8671875 c 0
 87.5009765625 199.91015625 153.277074379 202.8671875 321.499023438 202.8671875 c 0
 490.603307424 202.8671875 558.499023438 202.727539062 558.499023438 157.8671875 c 0
 558.499023438 110.8671875 494.331077519 110.8671875 317.500976562 110.8671875 c 0
317.500976562 260.8671875 m 0
 156.594366776 260.8671875 87.5009765625 261.180664062 87.5009765625 304.8671875 c 0
 87.5009765625 349.91015625 153.277074379 352.8671875 321.499023438 352.8671875 c 0xb8
 490.603307424 352.8671875 558.499023438 352.727539062 558.499023438 307.8671875 c 0
 558.499023438 260.8671875 494.331077519 260.8671875 317.500976562 260.8671875 c 0
EndSplineSet
Validated: 5
EndChar

StartChar: brokenbar
Encoding: 166 166 100
Width: 224
Flags: W
HStem: 741 20G<85.7336 134.826>
VStem: 60 104<-175.339 226.778 344.661 746.778>
LayerCount: 2
Fore
SplineSet
60 559 m 4
 60 703.966715551 61.4672851563 761 110 761 c 0
 159.652954102 761 164 706.683742863 164 555.001953125 c 4
 164 395.290161489 164 330.001953125 113 330.001953125 c 0
 60.9375 330.001953125 60 396.697720441 60 559 c 4
60 39 m 0
 60 183.966715551 61.4672851563 241 110 241 c 0
 159.652954102 241 164 186.683742863 164 35.001953125 c 0
 164 -124.709838511 164 -189.998046875 113 -189.998046875 c 0
 60.9375 -189.998046875 60 -123.302279559 60 39 c 0
EndSplineSet
Validated: 1
EndChar

StartChar: dieresis
Encoding: 168 168 101
Width: 418
Flags: W
HStem: 615.994 122.998<49.6762 148.324 269.676 368.324>
VStem: 35 128<630.176 723.824> 255 128<630.176 723.824>
LayerCount: 2
Fore
SplineSet
255 677.9921875 m 4
 255 711.549838496 280.563198324 738.9921875 319 738.9921875 c 4
 357.108206371 738.9921875 383 711.362013657 383 675.994140625 c 4
 383 640.966287364 357.436801676 615.994140625 319 615.994140625 c 4
 280.891793629 615.994140625 255 640.970252314 255 677.9921875 c 4
35 677.9921875 m 0
 35 711.549838496 60.563198324 738.9921875 99 738.9921875 c 0
 137.108206371 738.9921875 163 711.362013657 163 675.994140625 c 0
 163 640.966287364 137.436801676 615.994140625 99 615.994140625 c 0
 60.8917936289 615.994140625 35 640.970252314 35 677.9921875 c 0
EndSplineSet
Validated: 1
EndChar

StartChar: copyright
Encoding: 169 169 102
Width: 809
Flags: W
HStem: -9.99805 85.8994<287.764 523.652> 177.184 73.4492<348.501 483.968> 478.278 73.4492<349.771 479.802> 647.101 91.8994<285.348 521.236>
VStem: 35 86.9004<240.091 480.538> 231.631 78.9502<289.845 437.271> 687.1 86.9004<241.944 482.277>
LayerCount: 2
Fore
SplineSet
413.780273438 250.6328125 m 0
 496.288212365 250.6328125 485.367953338 294.727539062 527.203125 294.727539062 c 0
 548.442654851 294.727539062 560.891601562 282.214185762 560.891601562 260.823242188 c 0
 560.891601562 220.299898252 503.630559043 177.18359375 412.130859375 177.18359375 c 0
 304.653799001 177.18359375 231.630859375 251.554829451 231.630859375 361.727539062 c 0
 231.630859375 466.251370032 303.127929688 551.727539062 410.630859375 551.727539062 c 0
 501.940310541 551.727539062 559.391601562 505.435928022 559.391601562 463.087890625 c 0
 559.391601562 441.696947051 546.942654851 429.18359375 525.703125 429.18359375 c 0
 483.867953338 429.18359375 494.788212365 478.278320312 412.280273438 478.278320312 c 0
 347.513500945 478.278320312 310.581054688 428.245633543 310.581054688 362.677734375 c 0
 310.581054688 295.079013713 348.560087401 250.6328125 413.780273438 250.6328125 c 0
121.900390625 360.900390625 m 0
 121.900390625 188.247562947 226.59956909 75.9013671875 405.700195312 75.9013671875 c 0
 584.908374629 75.9013671875 687.099609375 194.773366488 687.099609375 367.301757812 c 0
 687.099609375 529.326662396 582.40043091 647.100585938 403.299804688 647.100585938 c 0
 224.091625371 647.100585938 121.900390625 523.231276718 121.900390625 360.900390625 c 0
35 359 m 0
 35 568.047661939 181.988390363 739 403 739 c 0
 623.908508807 739 774 575.846200568 774 367.001953125 c 0
 774 146.910275136 627.011609637 -9.998046875 406 -9.998046875 c 0
 185.091491193 -9.998046875 35 138.65399777 35 359 c 0
EndSplineSet
Validated: 1
EndChar

StartChar: registered
Encoding: 174 174 103
Width: 809
Flags: W
HStem: -9.99805 85.8994<287.764 523.652> 315.092 55.1094<329.789 429.161> 488.801 62.9492<331.887 467.33> 647.101 91.8994<285.348 521.236>
VStem: 35 86.9004<240.091 480.538> 250.283 75<209.569 480.323> 485.333 75.9502<385.189 470.822> 687.1 86.9004<241.944 482.277>
LayerCount: 2
Fore
SplineSet
329.283203125 381.75 m 4
 334.145901437 371.250443918 355.914182363 370.201171875 400.1328125 370.201171875 c 4
 463.317469212 370.201171875 485.333007812 393.942984855 485.333007812 428.401367188 c 4
 485.333007812 468.029351803 447.710999206 488.80078125 398.932617188 488.80078125 c 4
 359.1179951 488.80078125 350.956072186 482.53277983 339.283203125 476.25 c 4
 328.023466164 470.189583499 325.283203125 451.128999799 325.283203125 424.251953125 c 4
 325.283203125 409.663623649 326.813642574 387.082284227 329.283203125 381.75 c 4
483.494140625 327.474609375 m 5
 529.2819842 298.686958563 569.848632812 243.868667802 569.848632812 209.251953125 c 4
 569.848632812 189.273334704 558.852149129 177.251953125 535.283203125 177.251953125 c 4
 515.052800373 177.251953125 503.214100341 194.005950751 485.283203125 222.75 c 4
 445.68997713 286.219754146 426.017897003 315.091796875 353.283203125 315.091796875 c 6
 329.637695312 315.091796875 l 5
 331.663314527 250.543817879 341.348632812 226.071792406 341.348632812 208.751953125 c 4
 341.348632812 190.230955162 331.750883121 177.251953125 305.783203125 177.251953125 c 4
 258.531433932 177.251953125 250.283203125 245.637235184 250.283203125 364.75 c 4
 250.283203125 452.827238868 255.988333515 492.537850564 285.783203125 521.25 c 4
 310.745002685 545.304709033 343.034732329 551.75 400.783203125 551.75 c 4
 496.351439415 551.75 561.283203125 497.58526516 561.283203125 428.251953125 c 4
 561.283203125 382.831190751 534.781189575 342.36217863 483.494140625 327.474609375 c 5
121.900390625 360.900390625 m 0
 121.900390625 188.247562947 226.59956909 75.9013671875 405.700195312 75.9013671875 c 0
 584.908374629 75.9013671875 687.099609375 194.773366488 687.099609375 367.301757812 c 0
 687.099609375 529.326662396 582.40043091 647.100585938 403.299804688 647.100585938 c 0
 224.091625371 647.100585938 121.900390625 523.231276718 121.900390625 360.900390625 c 0
35 359 m 0
 35 568.047661939 181.988390363 739 403 739 c 0
 623.908508807 739 774 575.846200568 774 367.001953125 c 0
 774 146.910275136 627.011609637 -9.998046875 406 -9.998046875 c 0
 185.091491193 -9.998046875 35 138.65399777 35 359 c 0
EndSplineSet
Validated: 1
EndChar

StartChar: uni2117
Encoding: 8471 8471 104
Width: 809
Flags: W
HStem: -9.99805 85.8994<287.764 523.652> 295.501 61.7002<339.363 475.218> 488.801 62.9492<339.28 474.185> 647.101 91.8994<285.348 521.236>
VStem: 35 86.9004<240.091 480.538> 259.283 74<279.542 482.61> 493.55 71.9502<375.561 469.602> 687.1 86.9004<241.944 482.277>
LayerCount: 2
Fore
SplineSet
35 359 m 0
 35 568.047661939 181.988390363 739 403 739 c 0
 623.908508807 739 774 575.846200568 774 367.001953125 c 0
 774 146.910275136 627.011609637 -9.998046875 406 -9.998046875 c 0
 185.091491193 -9.998046875 35 138.65399777 35 359 c 0
121.900390625 360.900390625 m 0
 121.900390625 188.247562947 226.59956909 75.9013671875 405.700195312 75.9013671875 c 0
 584.908374629 75.9013671875 687.099609375 194.773366488 687.099609375 367.301757812 c 0
 687.099609375 529.326662396 582.40043091 647.100585938 403.299804688 647.100585938 c 0
 224.091625371 647.100585938 121.900390625 523.231276718 121.900390625 360.900390625 c 0
409.1328125 357.201171875 m 0
 462.170014644 357.201171875 493.549804688 380.002486569 493.549804688 422.901367188 c 4
 493.549804688 466.137895342 456.541061336 488.80078125 407.932617188 488.80078125 c 0
 384.910063023 488.80078125 359.286322866 487.320024231 349.283203125 480.25 c 0
 336.414932312 471.723380104 333.283203125 453.196542585 333.283203125 424.251953125 c 0
 333.283203125 409.663623649 333.748899757 390.184402346 336.283203125 381.75 c 0
 342.831232657 359.957535711 363.665943155 357.201171875 409.1328125 357.201171875 c 0
339.280273438 300.013671875 m 1
 342.18542777 246.581311556 350.348632812 224.652579878 350.348632812 208.751953125 c 0
 350.348632812 190.230955162 340.750883121 177.251953125 314.783203125 177.251953125 c 0
 267.531433932 177.251953125 259.283203125 245.637235184 259.283203125 364.75 c 0
 259.283203125 452.827238868 265.633667595 491.882903469 294.783203125 521.25 c 0
 318.659707052 545.304709033 349.545535407 551.75 404.783203125 551.75 c 0
 500.571052531 551.75 565.5 494.295856772 565.5 420.751953125 c 4
 565.5 347.630739328 512.222418961 295.500976562 410.75 295.500976562 c 0
 363.999940044 295.500976562 339.280273438 300.013671875 339.280273438 300.013671875 c 1
EndSplineSet
Validated: 1
EndChar

StartChar: plusminus
Encoding: 177 177 105
Width: 450
Flags: W
HStem: 152.934 92.3564<52.9858 183.161 268.363 396.288> 167.435 71.499<135.506 320.184> 336.934 92<40.9953 411.341>
VStem: 179.499 92<242.643 548.776>
LayerCount: 2
Fore
SplineSet
220 152.93359375 m 0xb0
 87.0774931066 152.93359375 30 169.145901192 30 206.93359375 c 0
 30 235.488729517 55.1614362616 245.290039062 86.935546875 245.290039062 c 0xb0
 121.328749273 245.290039062 166.498198895 238.93359375 223.998046875 238.93359375 c 0x70
 286.700584093 238.93359375 335.056516596 247.412109375 370.87109375 247.412109375 c 0
 406.904404235 247.412109375 420.998046875 236.094086039 420.998046875 209.93359375 c 0
 420.998046875 168.818839652 367.480683748 152.93359375 220 152.93359375 c 0xb0
271.499023438 357.434570312 m 0
 271.499023438 224.51171875 271.185546875 167.434570312 227.499023438 167.434570312 c 0x70
 182.456054688 167.434570312 179.499023438 221.966796875 179.499023438 361.432617188 c 0
 179.499023438 501.99609375 179.638671875 558.432617188 224.499023438 558.432617188 c 0
 271.499023438 558.432617188 271.499023438 504.915039062 271.499023438 357.434570312 c 0
220 336.93359375 m 0
 87.0774931066 336.93359375 30 337.247070312 30 380.93359375 c 0
 30 425.9765625 84.5320763955 428.93359375 223.998046875 428.93359375 c 0
 364.561248945 428.93359375 420.998046875 428.793945312 420.998046875 383.93359375 c 0
 420.998046875 336.93359375 367.480683748 336.93359375 220 336.93359375 c 0
EndSplineSet
Validated: 5
EndChar

StartChar: mu
Encoding: 181 181 106
Width: 575
Flags: W
HStem: -9.99805 88.8994<207.447 367.14> -9.99805 21G<453.291 499.676> 491 20G<89.4561 135.841 452.56 491.763>
VStem: 60 85<19.2867 362.951> 441.132 51.8682<114.802 331.623>
LayerCount: 2
Fore
SplineSet
50 190.001953125 m 0x38
 50 410.71875 59.912109375 511 119 511 c 0
 152.682601157 511 165.131835938 484.702674279 165.131835938 441 c 0
 165.131835938 409.220724989 145 345.828882929 145 191 c 0
 145 -23.9249476908 171.131835938 -99.6680812016 171.131835938 -141.998046875 c 0
 171.131835938 -171.965820312 158.682617188 -189.998046875 125 -189.998046875 c 0
 71.7985983456 -189.998046875 50 -20.2774769176 50 190.001953125 c 0x38
539.131835938 251 m 0
 539.131835938 95.1943359375 529.219726562 -9.998046875 470.131835938 -9.998046875 c 0x78
 436.44921875 -9.998046875 424 9.537109375 424 42.001953125 c 0
 424 68.4423828125 441.131835938 121.184570312 441.131835938 250.001953125 c 0
 441.131835938 377.579556127 422 419.813970744 422 456 c 0
 422 490.337815505 434.988590595 511 470.131835938 511 c 0
 513.394160403 511 539.131835938 436.514648438 539.131835938 251 c 0
441.099609375 259.700195312 m 0
 441.099609375 287.666992188 454.5 295.116210938 467.131835938 295.116210938 c 0
 480.390625 295.116210938 493 285.666015625 493 260 c 0
 493 108.419921875 416.684537523 -9.998046875 282.131835938 -9.998046875 c 0
 139.0546875 -9.998046875 60 96.9697265625 60 250.001953125 c 0
 60 286.41541029 71.5641025641 311 101 311 c 4
 129.695652174 311 145 289 145 243 c 0
 145 139.73828125 195.22422985 78.9013671875 283.299804688 78.9013671875 c 0xb8
 382.883789062 78.9013671875 441.099609375 145.11328125 441.099609375 259.700195312 c 0
EndSplineSet
Validated: 5
EndChar

StartChar: degree
Encoding: 176 176 109
Width: 399
Flags: W
HStem: 409.994 75.8994<140.693 257.244> 657.093 81.8994<142.453 258.307>
VStem: 35 81.9004<510.051 630.83> 282.1 81.9004<511.547 632.279>
LayerCount: 2
Fore
SplineSet
116.900390625 568.892578125 m 0
 116.900390625 518.611647622 147.815742085 485.893554688 200.700195312 485.893554688 c 0
 252.539112036 485.893554688 282.099609375 522.362974475 282.099609375 575.293945312 c 0
 282.099609375 622.661718118 251.184257915 657.092773438 198.299804688 657.092773438 c 0
 146.460887964 657.092773438 116.900390625 618.919154253 116.900390625 568.892578125 c 0
35 566.9921875 m 0
 35 661.613760799 100.106270732 738.9921875 198 738.9921875 c 0
 296.843160275 738.9921875 364 667.064647364 364 574.994140625 c 0
 364 478.667544158 298.893729268 409.994140625 201 409.994140625 c 0
 102.156839725 409.994140625 35 473.241306486 35 566.9921875 c 0
EndSplineSet
Validated: 1
EndChar

StartChar: multiply
Encoding: 215 215 112
Width: 450
Flags: W
VStem: 61.4004 327.199<210.516 266.372>
LayerCount: 2
Fore
SplineSet
378.599609375 486 m 0
 378.599609375 468.765625 366.041383081 447.294774348 274.431640625 354 c 4
 167.374439525 244.973632812 151.958266074 190.001953125 110.400390625 190.001953125 c 0
 87.580078125 190.001953125 61.400390625 210.515625 61.400390625 240 c 0
 61.400390625 268.633789062 109.24043695 294.404421121 201.115234375 390 c 4
 301.525994729 494.47723457 301.203184691 531 332.599609375 531 c 0
 364.055664062 531 378.599609375 509.319335938 378.599609375 486 c 0
71.400390625 488 m 0
 71.400390625 510.283203125 90.376953125 531 113.400390625 531 c 0
 149.390625 531 148.924512826 496.127705618 252.884765625 390 c 4
 343.08077856 297.923502964 388.599609375 266.372243374 388.599609375 236 c 0
 388.599609375 208.874023438 361.859375 190.001953125 344.599609375 190.001953125 c 0
 303.171875 190.001953125 290.109142769 251.236978234 171.568359375 362 c 4
 81.2451171875 446.396905048 71.400390625 471.548632813 71.400390625 488 c 0
EndSplineSet
Validated: 5
EndChar

StartChar: macron
Encoding: 175 175 113
Width: 410
Flags: W
HStem: 652.992 86<50.5662 329.413>
LayerCount: 2
Fore
SplineSet
200 738.9921875 m 4
 332.805846252 738.9921875 380.998046875 723.106941598 380.998046875 681.9921875 c 0
 380.998046875 655.831695211 366.904404235 644.513671875 330.87109375 644.513671875 c 0
 299.93346004 644.513671875 258.162252717 652.9921875 203.998046875 652.9921875 c 4
 150.693354242 652.9921875 108.819441301 646.635742188 76.935546875 646.635742188 c 0
 50.7421520635 646.635742188 30 656.437051733 30 684.9921875 c 0
 30 722.779880058 81.0693359375 738.9921875 200 738.9921875 c 4
EndSplineSet
Validated: 1
EndChar

StartChar: acute
Encoding: 180 180 114
Width: 258
Flags: W
HStem: 517.994 220.998<140.104 142.976>
VStem: 32 194<547.992 697.994>
LayerCount: 2
Fore
SplineSet
32 547.9921875 m 0
 32 577.091796875 63.4462890625 584.017578125 85.63671875 607.22265625 c 4
 153.506835938 678.1953125 140.104492188 738.9921875 188 738.9921875 c 4
 210.626953125 738.9921875 226 721.010742188 226 697.994140625 c 0
 226 635.263671875 142.975585938 517.994140625 67 517.994140625 c 0
 46.1591796875 517.994140625 32 531.493164062 32 547.9921875 c 0
EndSplineSet
Validated: 1
EndChar

StartChar: divide
Encoding: 247 247 115
Width: 450
Flags: W
HStem: 153.936 122.998<175.676 274.324> 316.934 92<40.9953 411.341> 448.934 122.998<175.676 274.324>
VStem: 161 128<168.117 261.765 463.115 556.763>
CounterMasks: 1 e0
LayerCount: 2
Fore
SplineSet
220 316.93359375 m 4
 87.0774931066 316.93359375 30 317.247070312 30 360.93359375 c 4
 30 405.9765625 84.5320763955 408.93359375 223.998046875 408.93359375 c 4
 364.561248945 408.93359375 420.998046875 408.793945312 420.998046875 363.93359375 c 4
 420.998046875 316.93359375 367.480683748 316.93359375 220 316.93359375 c 4
161 510.931640625 m 4
 161 544.489257812 186.563476562 571.931640625 225 571.931640625 c 4
 263.108398438 571.931640625 289 544.301757812 289 508.93359375 c 4
 289 473.905273438 263.436523438 448.93359375 225 448.93359375 c 4
 186.891601562 448.93359375 161 473.91015625 161 510.931640625 c 4
161 215.93359375 m 0
 161 249.491210938 186.563476562 276.93359375 225 276.93359375 c 0
 263.108398438 276.93359375 289 249.303710938 289 213.935546875 c 0
 289 178.907226562 263.436523438 153.935546875 225 153.935546875 c 0
 186.891601562 153.935546875 161 178.912109375 161 215.93359375 c 0
EndSplineSet
Validated: 1
EndChar

StartChar: minus
Encoding: 8722 8722 116
Width: 450
Flags: W
HStem: 316.934 92<40.9953 411.341>
LayerCount: 2
Fore
SplineSet
220 316.93359375 m 4
 87.0774931066 316.93359375 30 317.247070312 30 360.93359375 c 4
 30 405.9765625 84.5320763955 408.93359375 223.998046875 408.93359375 c 4
 364.561248945 408.93359375 420.998046875 408.793945312 420.998046875 363.93359375 c 4
 420.998046875 316.93359375 367.480683748 316.93359375 220 316.93359375 c 4
EndSplineSet
Validated: 1
EndChar

StartChar: logicalnot
Encoding: 172 172 117
Width: 450
Flags: W
HStem: 339.25 90<62.3496 326.614>
VStem: 332.5 97<204.411 329.621>
LayerCount: 2
Fore
SplineSet
224.5 429.25 m 0
 88.2684502423 429.25 10.5 412.305573219 10.5 363.25 c 0
 10.5 329.56640625 30.78515625 317.1171875 58 317.1171875 c 0
 83.5163908122 317.1171875 118.337867131 339.25 216.498046875 339.25 c 0
 261.468474201 339.25 284.226125203 337.2883964 303.5 332.25 c 0
 326.035100673 326.35908438 332.5 318.9056875 332.5 286.25 c 0
 332.5 253.011480365 329.21875 242.710410371 329.21875 226 c 0
 329.21875 199.392578125 346.260791642 183.75 371.5 183.75 c 0
 409.432158321 183.75 429.5 226.746599455 429.5 318.749023438 c 0
 429.5 358.948768674 416.521961705 382.366101851 392 399 c 0
 357.109935079 424.079804779 318.767772243 429.25 224.5 429.25 c 0
EndSplineSet
Validated: 9
EndChar

StartChar: longs
Encoding: 383 383 118
Width: 324
Flags: W
HStem: -9.99805 21G<97.6603 148.841> -9.99805 21G<97.6603 148.841> 675.002 85.998<209.588 293.768>
VStem: 50 102<127.34 601.768>
LayerCount: 2
Fore
SplineSet
50 390.001953125 m 0xb0
 50 702.88671875 142.01171875 761 242 761 c 0
 283.713867188 761 299.131835938 740.989257812 299.131835938 719.001953125 c 0
 299.131835938 690.369140625 283.766601562 681.236328125 259.30859375 675.001953125 c 0
 186.603679271 655.778320312 152 634.524414062 152 391 c 4
 152 163.166992188 178.131835938 82.8740234375 178.131835938 38.001953125 c 4
 178.131835938 8.0341796875 165.682617188 -9.998046875 132 -9.998046875 c 4
 63.320688101 -9.998046875 50 168.655273438 50 390.001953125 c 0xb0
EndSplineSet
Validated: 1
EndChar

StartChar: kgreenlandic
Encoding: 312 312 119
Width: 543
Flags: W
HStem: -9.99805 21G<89.4561 135.841 445.17 482.705> -9.99805 21G<89.4561 135.841 445.17 482.705> 203.501 102<150.789 299.018> 491 20G<104.234 144.016 442.551 474.75>
VStem: 50 120.132<31.5018 200.032 305.267 439.318> 72.501 75.499<123.556 378.66>
LayerCount: 2
Fore
SplineSet
50 251 m 4xb8
 50 406.514966995 79.4673119857 511 129 511 c 4
 159.031926021 511 170.131835938 491.465254935 170.131835938 459 c 4xb8
 170.131835938 432.432865048 148 379.437229725 148 250.001953125 c 4xb4
 148 121.184312653 165.131835938 68.4419470175 165.131835938 42.001953125 c 4
 165.131835938 9.53669819081 152.682617188 -9.998046875 119 -9.998046875 c 4
 59.9122413606 -9.998046875 50 95.1945449946 50 251 c 4xb8
204.500976562 203.500976562 m 0
 92.6623338368 203.500976562 72.5009765625 203.850244634 72.5009765625 252.500976562 c 0xb4
 72.5009765625 302.235669089 94.6861550249 305.500976562 208.499023438 305.500976562 c 0
 296.349638025 305.500976562 331.329766477 336.773758684 380 418 c 0
 413.298055051 473.571458345 423.102564103 511 462 511 c 0
 487.500687326 511 501.131835938 492.967927632 501.131835938 463 c 0
 501.131835938 399.082515573 404.296821742 281.127995304 322 254.001953125 c 1
 415.825104158 224.53020955 511.131835938 83.2576538614 511.131835938 34.001953125 c 0
 511.131835938 6.53135279607 497.410075948 -9.998046875 468 -9.998046875 c 0
 422.340549372 -9.998046875 413.032904006 25.4240742118 382 81 c 0
 330.109971169 173.928344409 294.875911295 203.500976562 204.500976562 203.500976562 c 0
EndSplineSet
Validated: 5
EndChar

StartChar: florin
Encoding: 402 402 120
Width: 378
Flags: W
HStem: -190.064 85.998<-15.4024 65.8433> 418.934 92<19.8379 359.929> 675.002 85.998<263.586 347.766>
VStem: 110.132 102<-54.5712 614.693>
LayerCount: 2
Fore
SplineSet
180 418.93359375 m 0
 61.0693359375 418.93359375 10 419.247070312 10 462.93359375 c 0
 10 507.9765625 58.91015625 510.93359375 183.998046875 510.93359375 c 0
 315.999023438 510.93359375 368.998046875 510.793945312 368.998046875 465.93359375 c 0
 368.998046875 418.93359375 318.67578125 418.93359375 180 418.93359375 c 0
212.131835938 70.93359375 m 4
 212.131835938 -129.893310405 127.788034999 -190.064453125 36.1318359375 -190.064453125 c 0
 -5.5823018158 -190.064453125 -21 -170.053228164 -21 -148.06640625 c 0
 -21 -119.433875943 -5.89465737754 -109.171921133 18.8232421875 -104.06640625 c 0
 80.6874236004 -91.2882776665 110.131835938 -57.0133173987 110.131835938 69.935546875 c 0
 110.131835938 124.403543486 103.998046875 290.801241913 103.998046875 390.001953125 c 0
 103.998046875 702.88671875 196.009765625 761 295.998046875 761 c 0
 337.711914062 761 353.129882812 740.989257812 353.129882812 719.001953125 c 0
 353.129882812 690.369140625 337.764648438 681.236328125 313.306640625 675.001953125 c 0
 240.601726145 655.778320312 205.998046875 634.524414062 205.998046875 391 c 4
 205.998046875 334.467448612 212.131835938 164.869794447 212.131835938 70.93359375 c 4
EndSplineSet
Validated: 5
EndChar

StartChar: Thorn
Encoding: 222 222 121
Width: 629
Flags: W
HStem: -9.99805 21G<100.064 158.937> -9.99805 21G<100.064 158.937> 159.501 95.4004<184.296 429.417> 490.101 101.899<195.27 420.76> 719 20G<103.323 158.937>
VStem: 52.5811 109.419<187.509 549.374> 482.1 111.9<303.221 433.476>
LayerCount: 2
Fore
SplineSet
182 279 m 0x3e
 199.501361085 258.900225726 234.510564753 254.901367188 321.700195312 254.901367188 c 0
 440.652761995 254.901367188 482.099609375 301.977059585 482.099609375 370.301757812 c 4
 482.099609375 448.901628218 411.210396852 490.100585938 319.299804688 490.100585938 c 0
 232.995136981 490.100585938 212.495563073 481.404319166 190 465 c 0
 167.480526077 448.578244453 162 417.655741837 162 367.001953125 c 0
 162 336.796247448 164.404025795 299.20843453 182 279 c 0x3e
171.368164062 172.635742188 m 1
 173.562002679 122.248295553 190.131835938 76.0528513782 190.131835938 45.001953125 c 0
 190.131835938 10.6637027138 176.873031887 -9.998046875 141 -9.998046875 c 0xbe
 59.1288624872 -9.998046875 52.5810546875 204.997907413 52.5810546875 370.826171875 c 0
 52.5810546875 580.579515901 65.6464967641 739 141 739 c 0
 176.873031887 739 190.131835938 718.338250411 190.131835938 684 c 0
 190.131835938 644.975747248 173.642599513 615.32779689 171.384765625 577.008789062 c 1
 171.384765625 577.008789062 218.062705217 592 323 592 c 0
 484.364436353 592 594 494.63436833 594 370.001953125 c 4
 594 247.11199782 504.659255245 159.500976562 334.500976562 159.500976562 c 0
 216.418384641 159.500976562 171.368164062 172.635742188 171.368164062 172.635742188 c 1
EndSplineSet
Validated: 1
EndChar

StartChar: thorn
Encoding: 254 254 122
Width: 615
Flags: W
HStem: -9.99805 91.8994<231.744 408.166> 413.101 97.8994<233.516 404.979>
VStem: 50 108.032<36.0765 399.246> 90.1318 54.8682<37.353 451.29> 481.231 97.9004<156.985 335.792>
LayerCount: 2
Fore
SplineSet
50 190.001953125 m 0xe8
 50 575.741658288 72.7851845562 751 139 751 c 0
 170.4921875 751 182.131835938 731.46484375 182.131835938 699 c 0
 182.131835938 634.424513177 145 505.612290112 145 191 c 0xd8
 145 -23.9249476908 171.131835938 -99.6680812016 171.131835938 -141.998046875 c 0
 171.131835938 -171.965820312 158.682617188 -189.998046875 125 -189.998046875 c 0
 71.7985983456 -189.998046875 50 -20.2774769176 50 190.001953125 c 0xe8
481.231445312 244.900390625 m 0
 481.231445312 340.301965652 422.981959372 413.100585938 320.83203125 413.100585938 c 0
 218.091879865 413.100585938 158.032226562 344.996002032 158.032226562 251.301757812 c 0xe8
 158.032226562 151.005764596 216.281712503 81.9013671875 318.431640625 81.9013671875 c 0
 421.17179201 81.9013671875 481.231445312 146.154908466 481.231445312 244.900390625 c 0
579.131835938 243 m 0
 579.131835938 91.9228515625 481.6328125 -9.998046875 338.131835938 -9.998046875 c 0
 189.189453125 -9.998046875 90.1318359375 98.630859375 90.1318359375 251.001953125 c 0xd8
 90.1318359375 396.967773438 187.630859375 511 331.131835938 511 c 0
 480.07421875 511 579.131835938 390.43359375 579.131835938 243 c 0
EndSplineSet
Validated: 5
EndChar

StartChar: Oslash
Encoding: 216 216 123
Width: 789
Flags: W
HStem: -9.99805 105.899<288.274 500.26> 627.101 111.899<288.74 500.726>
VStem: 35 111.9<241.477 479.299> 642.1 111.9<247.707 480.926>
LayerCount: 2
Fore
SplineSet
456.118164062 360.932617188 m 0
 228.750976562 -6.025390625 206.25 -82.19921875 151.303710938 -82.19921875 c 0
 128.2421875 -82.19921875 100.25 -62.095703125 100.25 -31.3369140625 c 0
 100.25 0 119.978515625 0 386.051757812 426.08984375 c 0
 536.868164062 667.606445312 589.833984375 796.44921875 645.823242188 796.44921875 c 0
 666.853515625 796.44921875 688.75 779.698242188 688.75 752.642578125 c 0
 688.75 714 658.938476562 688.272460938 456.118164062 360.932617188 c 0
EndSplineSet
Refer: 1 79 S 1 0 0 1 0 0 2
Validated: 5
EndChar

StartChar: oslash
Encoding: 248 248 124
Width: 589
Flags: W
HStem: -9.99805 91.8994<206.758 379.458> 413.101 97.8994<209.542 380.552>
VStem: 35 97.9004<156.985 335.792> 456.1 97.9004<157.491 336.217>
LayerCount: 2
Fore
SplineSet
349.956054688 256.551757812 m 0
 153.41015625 6.033203125 141.469726562 -52.2666015625 95.623046875 -52.2666015625 c 0
 74.8681640625 -52.2666015625 49.6748046875 -34.173828125 49.6748046875 -6.4912109375 c 0
 49.6748046875 15.546875 62.8032130679 19.1829940967 286.896484375 315.193359375 c 0
 407.020507812 473.868164062 454.611328125 558.516601562 500.69140625 558.516601562 c 0
 519.618164062 558.516601562 539.325195312 543.440429688 539.325195312 519.090820312 c 0
 539.325195312 493.19140625 512.236503862 463.395369937 349.956054688 256.551757812 c 0
EndSplineSet
Refer: 26 111 S 1 0 0 1 0 0 2
Validated: 5
EndChar

StartChar: uni018F
Encoding: 399 399 125
Width: 732
Flags: W
HStem: -10.0889 106.899<228.221 449.276> 349.911 93<198.597 533.822> 632.101 106.899<217.709 450.355>
VStem: 29 111.522<171.302 303.759> 566.591 129.932<226.791 323.424>
LayerCount: 2
Fore
SplineSet
566.590820312 290.900390625 m 0
 566.590820312 168.742978668 467.342310643 96.810546875 341.522460938 96.810546875 c 0
 219.828650174 96.810546875 140.522460938 152.736444747 140.522460938 240.911132812 c 0
 140.522460938 315.541763444 196.758673074 349.911132812 332 349.911132812 c 0
 439.443356727 349.911132812 566.590820313 346.138007765 566.590820312 290.900390625 c 0
577.538085938 414.338867188 m 1
 577.538085938 414.338867188 492.196295692 442.911132812 335.998046875 442.911132812 c 0
 186.60701717 442.911132813 29 417.693971796 29 235.911132812 c 0
 29 136.395613294 116.322844035 -10.0888671875 339.522460938 -10.0888671875 c 0
 570.114216367 -10.0888671875 696.522460938 150.863470873 696.522460938 369.911132812 c 0
 696.522460938 590.257135043 554.522173909 739 345.522460938 739 c 0
 168.673257063 739 58 651.819230223 58 601.720703125 c 0
 58 571.556626146 75.5076281908 553.911132812 105.377929688 553.911132812 c 0
 169.835719646 553.911132812 169.933122305 632.100585937 342.22265625 632.100585938 c 0
 474.807638806 632.100585938 568.550553428 559.695338824 577.538085938 414.338867188 c 1
EndSplineSet
Validated: 9
EndChar

StartChar: fraction
Encoding: 8260 8260 130
Width: 204
Flags: W
HStem: -9.99414 21G<-172.762 -139.925> -9.99414 21G<-172.762 -139.925> 719.002 20G<343.131 380.92>
LayerCount: 2
Fore
SplineSet
404.099609375 700.90234375 m 4xa0
 404.099609375 656.219726562 314.366940133 562.033203125 147.331054688 348.599609375 c 0
 -48.4722729157 90.63671875 -118.44946182 -9.994140625 -161.400390625 -9.994140625 c 0
 -184.124023438 -9.994140625 -200 9.8369140625 -200 27.2041015625 c 0
 -200 70.9892578125 -114.593342014 150.633789062 77.0146484375 400.599609375 c 0
 249.200105051 627.29296875 316.262192381 739.001953125 370 739.001953125 c 4
 391.840820312 739.001953125 404.099609375 719.584960938 404.099609375 700.90234375 c 4xa0
EndSplineSet
Validated: 1
EndChar

StartChar: AE
Encoding: 198 198 132
Width: 1003
Flags: W
HStem: -10 101<589.357 892.96> -10 21G<60.3345 99.2107> 217.501 94<232.93 438.087> 313.501 102<556.889 850.994> 638 100.998<591.221 925.661>
VStem: 32 127<48.624 135.626> 442 89.499<217.501 311.358> 462.501 89.499<228.656 498.186>
LayerCount: 2
Fore
SplineSet
632.500976562 313.500976562 m 0x3d
 481.18894043 313.500976562 462.500976562 313.850244634 462.500976562 362.500976562 c 0
 462.500976562 412.235669089 478.888238409 415.500976562 636.499023438 415.500976562 c 0
 811.795026979 415.500976562 861.499023438 415.34565915 861.499023438 365.500976562 c 0
 861.499023438 313.500976562 815.348042805 313.500976562 632.500976562 313.500976562 c 0x3d
362.500976562 217.500976562 m 0
 184.486816406 217.500976562 162.500976562 217.821732956 162.500976562 262.500976562 c 0
 162.500976562 308.482107389 181.713660098 311.500976562 366.499023438 311.500976562 c 0
 505.869098165 311.500976562 531.499023438 311.358084544 531.499023438 265.500976562 c 0x3e
 531.499023438 217.500976562 508.37855998 217.500976562 362.500976562 217.500976562 c 0
552 365.001953125 m 0x7d
 552 241.980252694 563.869990227 158.898533269 580 127 c 0
 595.380476296 96.5837360461 613.36009296 91 695 91 c 0
 821.460380793 91 873.684282894 115.28125 924.23046875 115.28125 c 0
 957.856868814 115.28125 973.499023438 94.2384308775 973.499023438 73 c 0
 973.499023438 18.7175102599 918.883598619 -10 702.500976562 -10 c 0
 601.563555645 -10 544.176025808 3.19502522581 501 38 c 0
 444.660764246 83.4160762257 442 180.966408243 442 365 c 0xbe
 442 458.49723384 443.702182443 530.15662423 451.358398438 584.854492188 c 1
 451.358398438 584.854492188 373.725863563 518.043174589 310.922952895 428 c 0
 259.847249452 354.77061567 209.213985307 251.42112702 159 109.458984375 c 0
 126.055958956 16.3214525602 121.701657467 -10 76.7197265625 -10 c 0
 43.94921875 -10 32 18.4306640625 32 51 c 0
 32 124.014752656 144.36032409 362.993269578 234.450195312 487 c 0
 389.884688755 700.952168708 465 738.997958502 700.008744152 738.997958502 c 0
 912.432800071 738.997958502 973.499023438 716.227571269 973.499023438 664 c 0
 973.499023438 640.250003017 958.491843991 616.71875 926.23046875 616.71875 c 0
 875.243275325 616.71875 822.563727844 638 695 638 c 0
 658 638 635.459828308 638 613.2355102 630.687255689 c 0
 597.731145138 625.585661263 589.627559306 616.398112318 580 602 c 0
 560.195255799 572.381808056 552 487.502853647 552 365.001953125 c 0x7d
EndSplineSet
Validated: 5
EndChar

StartChar: ae
Encoding: 230 230 133
Width: 902
Flags: W
HStem: -10.0889 90.8994<560.85 749.007> -9.99805 75.8994<173.103 340.467> 196 74<509.269 752.07> 247.101 73.8994<171.385 337.823> 418.101 92.8994<549.115 729.603> 427.458 83.542<161.215 330.176>
VStem: 35 97.9004<101.467 211.428> 376.1 108.032<128.836 314.317> 385 79<139.537 246.441> 385 109.739<145.534 354.505> 771 101.522<290.757 380.72>
LayerCount: 2
Back
SplineSet
484.131835938 251 m 4xf0
 484.131835938 95.1945449946 474.219594576 -9.998046875 415.131835938 -9.998046875 c 4
 383.63963345 -9.998046875 372 9.53669819081 372 42.001953125 c 4
 372 68.4419470175 389.131835938 121.184312653 389.131835938 250.001953125 c 4xe8
 389.131835938 409.377176372 312.075364014 427.458007812 245.998046875 427.458007812 c 4
 168.918437519 427.458007812 155.551332146 390.900390625 119.038085938 390.900390625 c 4
 93.9659852395 390.900390625 77 403.458118229 77 431 c 4
 77 480.946546054 152.372354295 511 245.131835938 511 c 4
 394.983892081 511 484.131835938 426.514966995 484.131835938 251 c 4xf0
132.900390625 158.900390625 m 4
 132.900390625 102.56144541 178.203588351 65.9013671875 255.700195312 65.9013671875 c 4
 332.376118242 65.9013671875 376.099609375 102.370786975 376.099609375 155.301757812 c 4xf0
 376.099609375 208.46029485 330.796411649 247.100585938 253.299804688 247.100585938 c 4
 176.623881758 247.100585938 132.900390625 208.926966753 132.900390625 158.900390625 c 4
35 153 m 4
 35 245.421071594 118.080394553 321 243 321 c 4
 356.729178389 321 434 255.212688855 434 171.001953125 c 4xe8
 434 65.3345957881 354.913855185 -9.998046875 236 -9.998046875 c 4
 116.316414366 -9.998046875 35 55.6662381973 35 153 c 4
EndSplineSet
Fore
SplineSet
484.131835938 251 m 0x0720
 484.131835938 172.79937535 476.087118311 120.001953125 428.131835938 120.001953125 c 0
 396.63963345 120.001953125 385 139.536698191 385 172.001953125 c 0x06a0
 385 181.916950835 389.131835938 201.695337948 389.131835938 250.001953125 c 0
 389.131835938 409.377176372 312.075364014 427.458007812 245.998046875 427.458007812 c 0
 168.918437519 427.458007812 155.551332146 390.900390625 119.038085938 390.900390625 c 0
 93.9659852395 390.900390625 77 403.458118229 77 431 c 0
 77 480.946546054 152.372354295 511 245.131835938 511 c 0
 394.983892081 511 484.131835938 426.514966995 484.131835938 251 c 0x0720
132.900390625 158.900390625 m 0
 132.900390625 102.56144541 178.203588351 65.9013671875 255.700195312 65.9013671875 c 0
 332.376118242 65.9013671875 376.099609375 102.370786975 376.099609375 155.301757812 c 0
 376.099609375 208.46029485 330.796411649 247.100585938 253.299804688 247.100585938 c 0x5320
 176.623881758 247.100585938 132.900390625 208.926966753 132.900390625 158.900390625 c 0
35 153 m 0
 35 245.421071594 118.080394553 321 243 321 c 0
 374.592400125 321 464 246.440933154 464 151.001953125 c 0x52a0
 464 57.0105468751 376.925355708 -9.998046875 246 -9.998046875 c 0
 120.36200712 -9.998046875 35 55.6662381973 35 153 c 0
EndSplineSet
Refer: 32 101 N 1 0 0 1 350 0 2
Validated: 5
EndChar

StartChar: Eth
Encoding: 208 208 136
Width: 821
Flags: W
HStem: -9.99805 106.899<264.95 514.27> 301.934 102<23.2274 406.418> 632.101 106.899<264.147 512.34>
VStem: 112 112<140.929 588.12> 674.1 111.9<250.941 479.104>
LayerCount: 2
Fore
SplineSet
190 301.93359375 m 4
 64.0734145221 301.93359375 10 302.282692649 10 350.93359375 c 0
 10 400.668538411 61.7211163227 403.93359375 193.998046875 403.93359375 c 4
 354.53959517 403.93359375 418.998046875 403.778428819 418.998046875 353.93359375 c 4
 418.998046875 301.93359375 358.025500699 301.93359375 190 301.93359375 c 4
EndSplineSet
Refer: 12 68 N 1 0 0 1 60 0 2
Validated: 5
EndChar

StartChar: eth
Encoding: 240 240 137
Width: 597
Flags: W
HStem: -9.99805 91.8994<206.758 380.719> 420.101 90.8994<211.562 379.202> 549 102<268.065 331.558> 741.002 20G<290.659 359.15>
VStem: 35 97.9004<156.985 337.701> 456.1 105.9<160.178 340.177>
LayerCount: 2
Fore
SplineSet
274.001953125 549 m 0
 230.627240349 549 212.001953125 557.242231889 212.001953125 583 c 0
 212.001953125 622.900988163 284.290793322 635.963297074 370 651 c 0
 427 661 453.834446147 671 496 671 c 0
 526.243533573 671 551 659.447296627 551 631 c 0
 551 594.099985096 468.871647884 576.965122687 390 563 c 0
 346.099383773 555.226896381 306.984907333 549 274.001953125 549 c 0
35 243 m 0
 35 390.43361421 134.856243453 511 285 511 c 0
 385.485676825 511 440.529296875 458.020507812 440.529296875 458.020507812 c 1
 376.177983936 642.699529555 259.868164062 660.818647249 259.868164062 718.001953125 c 0
 259.868164062 744.848221629 275.317382812 761.001953125 306 761.001953125 c 0
 412.299224302 761.001953125 562 521.151235668 562 284 c 0
 562 90.4323381945 455.752956965 -9.998046875 296 -9.998046875 c 0
 140.589970893 -9.998046875 35 91.9230263601 35 243 c 0
132.900390625 244.900390625 m 0
 132.900390625 146.155342429 192.960353752 81.9013671875 295.700195312 81.9013671875 c 0
 397.84997076 81.9013671875 456.099609375 151.005471931 456.099609375 251.301757812 c 0
 456.099609375 349.04917943 396.039646248 420.100585938 293.299804688 420.100585938 c 0
 191.15002924 420.100585938 132.900390625 344.272799919 132.900390625 244.900390625 c 0
EndSplineSet
Validated: 5
EndChar

StartChar: Delta
Encoding: 8710 8710 138
Width: 688
Flags: W
HStem: -10 93<127.788 549.21> 607.998 131<317.201 371.397>
VStem: 9 110.711<96.0794 198.653> 563.201 116.211<52.8679 200.237>
LayerCount: 2
Fore
SplineSet
344.412109375 607.998046875 m 0
 287.20703125 607.998046875 119.7109375 180.608398438 119.7109375 125.392578125 c 0
 119.7109375 85.9267578125 167.206054688 83 343.690429688 83 c 4
 518.681640625 83 563.201171875 92.7861328125 563.201171875 132.693359375 c 4
 563.201171875 197.274414062 401.698242188 607.998046875 344.412109375 607.998046875 c 0
351.692382812 -10 m 0
 74.7568359375 -10 9 -10 9 101 c 0
 9 177.364257812 103.737304688 420.353515625 181.450195312 557 c 0
 259.529296875 694.291992188 290.56640625 738.998046875 344.412109375 738.998046875 c 0
 397.9921875 738.998046875 427.890625 693.411132812 506.961914062 557 c 0
 582.65234375 426.421875 679.412109375 177.364257812 679.412109375 101 c 0
 679.412109375 5.3408203125 625.97265625 -10 351.692382812 -10 c 0
EndSplineSet
Validated: 1
EndChar

StartChar: Eng
Encoding: 330 330 139
Width: 753
Flags: W
HStem: -189.994 109.231<347.893 472.423> -9.99805 21G<106.039 154.841> -9.99805 21G<106.039 154.841> 640.101 98.8994<271.152 483.303>
VStem: 52 110<126.773 602.041> 92 69.9004<208.753 585.366> 591.1 109.9<95.805 501.937>
LayerCount: 2
Back
SplineSet
52 365 m 4xf0
 52 603.086914062 74.0783396291 739 138 739 c 4
 171.682617188 739 184.131835938 718.713918586 184.131835938 685 c 4xf0
 184.131835938 644.195798439 162 562.800322806 162 364.001953125 c 4xe8
 162 165.820967783 184.131835938 84.6788668058 184.131835938 44.001953125 c 4
 184.131835938 10.2880345395 171.682617188 -9.998046875 138 -9.998046875 c 4
 74.0783396291 -9.998046875 52 126.773229598 52 365 c 4xf0
92 364.001953125 m 4
 92 607.930836144 188.752514105 739 403 739 c 4
 609.227455364 739 701 590.415726902 701 382 c 4
 701 143.313819472 669.053496308 -9.998046875 615.131835938 -9.998046875 c 4
 581.44921875 -9.998046875 569 10.288034539 569 44.001953125 c 4
 569 87.3748942089 591.099609375 174.745149886 591.099609375 381.700195312 c 4
 591.099609375 533.722913451 544.044963724 640.100585938 382.700195312 640.100585938 c 4
 211.93451236 640.100585938 161.900390625 540.225686486 161.900390625 388.1015625 c 4
 161.900390625 236.038142688 166.131835938 174.734139693 166.131835938 144.001953125 c 4
 166.131835938 122.774671052 159.079852523 110.001953125 140 110.001953125 c 4
 104.322794212 110.001953125 92 208.753262799 92 364.001953125 c 4
EndSplineSet
Fore
SplineSet
52 365 m 0xda
 52 603.086914062 74.0783396291 739 138 739 c 0
 171.682617188 739 184.131835938 718.713918586 184.131835938 685 c 0
 184.131835938 644.195798439 162 562.800322806 162 364.001953125 c 0
 162 165.820967783 184.131835938 84.6788668058 184.131835938 44.001953125 c 0
 184.131835938 10.2880345395 171.682617188 -9.998046875 138 -9.998046875 c 0
 74.0783396291 -9.998046875 52 126.773229598 52 365 c 0xda
591.099609375 310.700195312 m 0
 591.099609375 524.493798402 544.044963724 640.100585938 382.700195312 640.100585938 c 0
 211.93451236 640.100585938 161.900390625 540.225686486 161.900390625 388.1015625 c 0
 161.900390625 236.038142688 166.131835938 174.734139693 166.131835938 144.001953125 c 0
 166.131835938 122.774671052 159.079852523 110.001953125 140 110.001953125 c 0
 104.322794212 110.001953125 92 208.753262799 92 364.001953125 c 0x96
 92 607.930836144 188.752514105 739 403 739 c 0
 609.227455364 739 701 580.865353261 701 311 c 0
 701 -7.26803553879 588.352539062 -189.994140625 399 -189.994140625 c 0
 343.413085937 -189.994140625 322.868164062 -172.337890625 322.868164062 -142.994140625 c 0
 322.868164062 -91.9462890625 373.121274396 -98.1503350775 427.868164062 -80.7626953125 c 0
 507.286132812 -55.5395083899 591.099609375 13.1987218956 591.099609375 310.700195312 c 0
EndSplineSet
Validated: 5
EndChar

StartChar: eng
Encoding: 331 331 140
Width: 575
Flags: W
HStem: -189.998 85.998<275.599 367.872> -9.99805 21G<89.4561 135.841> -9.99805 21G<89.4561 135.841> 422.101 88.8994<222.397 375.892>
VStem: 50 98.0322<213.335 355.889> 96.1318 51.8682<168.26 386.01> 441.132 98<-7.62753 343.514>
LayerCount: 2
Fore
SplineSet
441.131835938 198.001953125 m 0x96
 441.131835938 359.019885294 391.99721301 422.100585938 305.83203125 422.100585938 c 0
 206.247594015 422.100585938 148.032226562 355.888686616 148.032226562 241.301757812 c 0x9a
 148.032226562 213.334900339 134.631469863 205.885742188 122 205.885742188 c 0
 108.741001362 205.885742188 96.1318359375 215.336058217 96.1318359375 241.001953125 c 0
 96.1318359375 392.582154646 176.066387055 511 317 511 c 0
 460.077324496 511 539.131835938 399.347828677 539.131835938 191 c 0
 539.131835937 -116.759539481 437.535893899 -189.998046875 327.131835938 -189.998046875 c 4
 285.417698184 -189.998046875 270 -169.986821914 270 -148 c 4
 270 -119.367469693 285.109008349 -109.123230125 309.823242188 -104 c 4
 398.788566602 -85.5575982195 441.131835936 -39.6897724339 441.131835938 198.001953125 c 0x96
50 251 m 0
 50 406.514966995 79.4673119857 511 129 511 c 0
 159.031926021 511 170.131835938 491.465254935 170.131835938 459 c 0
 170.131835938 432.432865048 148 379.437229725 148 250.001953125 c 0
 148 121.184312653 165.131835938 68.4419470175 165.131835938 42.001953125 c 0
 165.131835938 9.53669819081 152.682617188 -9.998046875 119 -9.998046875 c 0xd6
 59.9122413606 -9.998046875 50 95.1945449946 50 251 c 0
EndSplineSet
Validated: 5
EndChar

StartChar: paragraph
Encoding: 182 182 141
Width: 829
Flags: W
HStem: 232.636 99.2656<216.54 430.724> 633.101 105.899<227.936 414.706 533.778 635.367>
VStem: 35 111.9<394.556 557.266> 447 110<222.777 600.073> 657.632 119.368<82.4252 612.808>
LayerCount: 2
Fore
SplineSet
437.631835938 232.635742188 m 1
 434.268802596 24.9981702456 408.868164062 -76.80877559 408.868164062 -134.994140625 c 0
 408.868164062 -169.332391036 422.126968113 -189.994140625 458 -189.994140625 c 0
 531.584236939 -189.994140625 557 53.1602186218 557 365 c 0
 557 492.171575852 552.452716813 575.434231168 533.766601562 631.099609375 c 1
 533.766601562 631.101561547 549.70509854 633.100585938 571 633.100585938 c 0
 605.980547921 633.100585938 628.261687968 627.574003399 639 608 c 0
 654.984969412 578.862287792 657.631835938 510.93359375 657.631835938 358 c 0
 657.631835938 87.503658788 628.868164062 -56.9671755347 628.868164062 -134.994140625 c 0
 628.868164062 -169.332391036 642.126968113 -189.994140625 678 -189.994140625 c 0
 751.584236939 -189.994140625 777 53.1602186218 777 365 c 0
 777 549.033591757 770.888980733 645.685243834 718 692 c 0
 678.947651368 726.198049944 627.393232042 739 536 739 c 2
 316 739 l 2
 148.681156401 739 35 624.090856927 35 477.001953125 c 0
 35 334.341556815 110.525187299 232.635742188 307.631835938 232.635742188 c 2
 437.631835938 232.635742188 l 1
410.47265625 338.536132812 m 0
 398.093547856 335.18273928 376.450807896 331.901367188 317.299804688 331.901367188 c 0
 190.931215485 331.901367188 146.900390625 391.215066443 146.900390625 477.301757812 c 0
 146.900390625 579.521185929 222.143982605 633.100585938 319.700195312 633.100585938 c 0
 385.980547921 633.100585938 400.47623 623.722632229 419 608 c 0
 441.519473923 588.88588843 447 528.770197804 447 444.001953125 c 0
 447 407.801966486 444.946329882 347.874753215 410.47265625 338.536132812 c 0
EndSplineSet
Validated: 9
EndChar

StartChar: section
Encoding: 167 167 142
Width: 506
Flags: W
HStem: -29.998 90.8994<151.398 333.812> 668.101 90.8994<180.706 347.47>
VStem: 35 97.9004<324.317 420.964> 65 97.9004<561.288 649.673> 353.16 97.9004<81.4918 163.463> 373.16 97.9004<308.92 402.705>
LayerCount: 2
Fore
SplineSet
260.290039062 759 m 0xd0
 369.646484375 759 441.186523438 709.031728316 441.186523438 671 c 0
 441.186523438 647.546875 423.896484375 628.389648438 403 628.389648438 c 0
 356.182617188 628.389648438 342.037109375 668.100585938 258 668.100585938 c 0
 188.786132812 668.100585938 162.900390625 642.283457327 162.900390625 608.900390625 c 0
 162.900390625 562.763230618 199.592314741 541.152476707 262.66015625 531 c 0
 398.049731306 509.205382105 471.060546875 455.927600337 471.060546875 366 c 0xd4
 471.060546875 257.447251392 379.544921875 228.55078125 379.544921875 228.55078125 c 1
 379.544921875 228.55078125 451.060546875 198.565604483 451.060546875 116 c 0
 451.060546875 31.1838221316 369.98828125 -29.998046875 254.360351562 -29.998046875 c 0
 125.231445312 -29.998046875 37 27.2609538714 37 67 c 0
 37 93.9521484375 55.6748046875 111.090820312 80.3779296875 111.090820312 c 0
 126.833984375 111.090820312 146.66796875 60.9013671875 254.090820312 60.9013671875 c 0
 318.748046875 60.9013671875 353.16015625 85.9519673825 353.16015625 123.1015625 c 0
 353.16015625 165.901020724 307.91015625 186.476706767 222.9296875 201.100585938 c 0
 107.522565072 220.96044125 35 269.070512971 35 360 c 0xe8
 35 469.150799625 123.373046875 497.21875 123.373046875 497.21875 c 1
 123.373046875 497.21875 65 519.973460999 65 598 c 0
 65 683.53327873 136.67578125 759 260.290039062 759 c 0xd0
287.090820312 288.901367188 m 0
 343.263857345 288.901367188 373.16015625 317.57617817 373.16015625 360.1015625 c 0
 373.16015625 416.463267931 288.633789063 440.100585938 218 440.100585938 c 4
 156.064453125 440.100585938 132.900390625 408.178075433 132.900390625 366.900390625 c 0xe4
 132.900390625 323.000665955 186.667659074 288.901367188 287.090820312 288.901367188 c 0
EndSplineSet
Validated: 1
EndChar

StartChar: uni01B7
Encoding: 439 439 143
Width: 629
Flags: W
HStem: -9.99805 99.8994<183.728 411.181> 638 101<99.2892 447.477>
VStem: 447.697 128.802<581.13 668.335> 478.16 110.9<146.007 273.821>
LayerCount: 2
Fore
SplineSet
355 407 m 1xe0
 355 407 384.489578307 407.527589918 424 398.670898438 c 0
 489.031001724 384.093490903 589.060546875 332.432760692 589.060546875 204.001953125 c 0
 589.060546875 73.7903097927 469.746682753 -9.998046875 300.360351562 -9.998046875 c 0
 129.174542574 -9.998046875 30 72.8617255908 30 119.28125 c 0
 30 150.576875495 50.077768204 170.090820312 78.3779296875 170.090820312 c 0
 142.444993346 170.090820312 135.419234267 89.9013671875 301.090820312 89.9013671875 c 0
 410.543659502 89.9013671875 478.16015625 132.379582778 478.16015625 211 c 0xd0
 478.16015625 292.647452822 403.156523176 329.001953125 276 329.001953125 c 0
 228.955451194 329.001953125 197 341.392118992 197 382 c 0
 197 417.128249849 250.252027986 443.366318097 319 491 c 0
 385.190539433 536.861703378 447.697265625 593.971502553 447.697265625 613.301757812 c 0
 447.697265625 634 416.409828165 637.999999997 316.499023438 638 c 0
 209.710842974 638.000000003 139.951788718 616.71875 97.2685546875 616.71875 c 0
 65.0068359375 616.71875 50 640.25 50 664 c 0
 50 713.05078125 98.0474017375 739 316.998046875 739 c 0
 530.169956573 739 576.499023438 702.67061955 576.499023438 634 c 0
 576.499023438 572.225734 466.541572681 475.91796875 355 407 c 1xe0
EndSplineSet
Validated: 33
EndChar

StartChar: uni0292
Encoding: 658 658 144
Width: 533
Flags: W
HStem: -189.994 93.8994<155.642 349.43> 419 92<98.7362 365.18>
VStem: 369.697 113.802<353.274 443.032> 398.16 100.9<-50.5874 79.3849>
LayerCount: 2
Fore
SplineSet
306.309570312 206.99609375 m 1xd0
 426.85020841 298.392746452 483.499023438 356.843515475 483.499023438 416 c 0
 483.499023438 470.064522809 443.061492037 511 256.998046875 511 c 0
 87.250153825 511 50 488.1646875 50 445 c 0
 50 423.259253139 65.0068359375 401.71875 97.2685546875 401.71875 c 0
 128.270045498 401.71875 178.937121895 419.000000002 256.499023438 419 c 0
 342.702369474 418.999999998 369.697265625 414.676090309 369.697265625 392.301757812 c 0xe0
 369.697265625 368.264826715 341.558450481 343.189385526 266 282.115234375 c 0
 197.296221941 226.581738133 167 210.79902134 167 182.00390625 c 0
 167 145.32614967 194.910457372 129.005859375 236 129.005859375 c 0
 331.547964434 129.005859375 398.16015625 94.8079462754 398.16015625 18.00390625 c 0
 398.16015625 -56.071926877 345.054511213 -96.0947265625 259.090820312 -96.0947265625 c 0
 122.430540427 -96.0947265625 128.22599531 -29.9052734375 75.3779296875 -29.9052734375 c 0
 48.8327106953 -29.9052734375 30 -47.4989161642 30 -75.71484375 c 0
 30 -124.068690382 113.767953686 -189.994140625 258.360351562 -189.994140625 c 0
 399.584097382 -189.994140625 499.060546875 -106.184570313 499.060546875 12.005859375 c 0
 499.060546875 127.913246737 423.300268657 175.070512019 359 194.16015625 c 0
 328.992846054 203.068764335 306.309570312 206.99609375 306.309570312 206.99609375 c 1xd0
EndSplineSet
Validated: 9
EndChar

StartChar: guilsinglleft
Encoding: 8249 8249 145
Width: 360
Flags: W
VStem: 35.501 99<321.638 388.01>
LayerCount: 2
Fore
SplineSet
134.500976562 353.705078125 m 4
 134.500976562 335.41015625 158.008542317 316.272604733 229.040039062 264.705078125 c 4
 293.467145635 217.932214188 324.499023438 216.953364801 324.499023438 181.424804688 c 0
 324.499023438 155.120117188 300.729492188 138.705078125 279 138.705078125 c 0
 244.979898827 138.705078125 210.72522848 167.922524003 157.499023438 210.155273438 c 0
 65.3561250192 283.266778154 35.5009765625 306.387601007 35.5009765625 353.705078125 c 0
 35.5009765625 402.041633914 65.3630375741 425.148862917 157.499023438 498.254882812 c 0
 210.72522848 540.487632247 244.979898827 569.705078125 279 569.705078125 c 0
 300.729492188 569.705078125 324.499023438 558.290039062 324.499023438 526.985351562 c 0
 324.499023438 500.890413502 294.761114453 488.641623517 229.040039062 443.705078125 c 4
 158.008542317 395.137551517 134.500976562 373 134.500976562 353.705078125 c 4
EndSplineSet
Validated: 1
EndChar

StartChar: guilsinglright
Encoding: 8250 8250 146
Width: 360
Flags: W
VStem: 225.499 99<321.638 388.01>
LayerCount: 2
Fore
SplineSet
225.499023438 353.705078125 m 0
 225.499023438 373 201.99155131 395.137695312 130.959960938 443.705078125 c 0
 65.2385631753 488.641651661 35.5009765625 500.890625 35.5009765625 526.985351562 c 0
 35.5009765625 558.290039062 59.2705078125 569.705078125 81 569.705078125 c 0
 115.020507812 569.705078125 149.274414062 540.487304688 202.500976562 498.254882812 c 0
 294.63671875 425.1484375 324.499023438 402.041992188 324.499023438 353.705078125 c 0
 324.499023438 306.387695312 294.643554688 283.266601562 202.500976562 210.155273438 c 0
 149.274414062 167.922851562 115.020507812 138.705078125 81 138.705078125 c 0
 59.2705078125 138.705078125 35.5009765625 155.120117188 35.5009765625 181.424804688 c 0
 35.5009765625 216.953125 66.532852869 217.932405178 130.959960938 264.705078125 c 0
 201.99155131 316.272460938 225.499023438 335.41015625 225.499023438 353.705078125 c 0
EndSplineSet
Validated: 1
EndChar

StartChar: currency
Encoding: 164 164 149
Width: 543
Flags: W
HStem: 150.002 82.8994<197.808 344.233> 490.101 88.8994<197.171 345.192>
VStem: 55 92.9004<282.379 439.252> 395.1 92.9004<284.053 441.428>
LayerCount: 2
Fore
SplineSet
351 193.344726562 m 1
 411.693359375 245 l 1
 465.683133589 213.24039172 513.131835938 154.3492885 513.131835938 108.344726562 c 0
 513.131835938 83.9438936756 491.341350001 64.3447265625 468 64.3447265625 c 0
 419.148867221 64.3447265625 422.274467499 137.627402609 351 193.344726562 c 1
192 193.344726562 m 1
 120.725532501 137.627402609 123.851132779 64.3447265625 75 64.3447265625 c 0
 51.6586499985 64.3447265625 29.8681640625 83.9438936756 29.8681640625 108.344726562 c 0
 29.8681640625 154.3492885 77.3168664111 213.24039172 131.306640625 245 c 1
 192 193.344726562 l 1
273 150.001953125 m 0
 143.193922048 150.001953125 55 234.19748548 55 359 c 0
 55 480.027593754 140.87636937 579 270 579 c 0
 399.806077952 579 488 486.02024618 488 367.001953125 c 0
 488 237.650619335 407.489361702 150.001953125 273 150.001953125 c 0
351 529 m 1
 422.274467499 584.717323954 419.148867221 658 468 658 c 0
 491.341350001 658 513.131835938 638.400832887 513.131835938 614 c 0
 513.131835938 567.995438062 465.683133589 509.104334842 411.693359375 477.344726562 c 1
 351 529 l 1
192 529 m 1
 131.306640625 477.344726562 l 1
 77.3168664111 509.104334842 29.8681640625 567.995438062 29.8681640625 614 c 0
 29.8681640625 638.400832887 51.6586499985 658 75 658 c 0
 123.851132779 658 120.725532501 584.717323954 192 529 c 1
147.900390625 360.900390625 m 0
 147.900390625 283.358393919 193.941426621 232.901367188 272.700195312 232.901367188 c 0
 350.649810867 232.901367188 395.099609375 287.727797262 395.099609375 367.301757812 c 0
 395.099609375 438.411663967 349.058573379 490.100585938 270.299804688 490.100585938 c 0
 192.350189133 490.100585938 147.900390625 434.181899624 147.900390625 360.900390625 c 0
EndSplineSet
Validated: 5
EndChar

StartChar: cedilla
Encoding: 184 184 150
Width: 236
Flags: W
HStem: -220 61<33.9586 134.919> -79 60<60.6944 133.954>
VStem: 139 68<-154.82 -85.3907>
LayerCount: 2
Fore
SplineSet
207 -117 m 0
 207 -193.296296296 154.6875 -220 99 -220 c 0
 49.1911764706 -220 16 -202 16 -175 c 0
 16 -157.068965517 29.5416666667 -149 41 -149 c 0
 57.7391304348 -149 70.8913043478 -159 96 -159 c 0
 113.981818182 -159 139 -151.083333333 139 -119 c 0
 139 -92.4649122807 123.065900785 -82.6475290934 96 -79 c 4
 71.0381682385 -75.6360252224 59 -69.6666666667 59 -51 c 0
 59 -32.268292683 72.2692307692 -19 105 -19 c 4
 157.623440044 -19 207 -52.848583878 207 -117 c 0
EndSplineSet
Validated: 1
EndChar

StartChar: tilde
Encoding: 732 732 151
Width: 384
VWidth: 999
Flags: W
HStem: 611.992 79<203.426 323.5> 659.992 79<59.8146 179.559>
LayerCount: 2
Fore
SplineSet
375 681.9921875 m 0x80
 375 643.506627458 332.691139816 611.9921875 266 611.9921875 c 4x80
 198.570390625 611.9921875 165.399330951 659.9921875 118 659.9921875 c 0
 78.4039794922 659.9921875 71.1219726562 635.9921875 47 635.9921875 c 0
 23.0159254808 635.9921875 9 653.715629209 9 673.9921875 c 0
 9 713.02242017 49.7178580729 738.9921875 112 738.9921875 c 0x40
 189.155855219 738.9921875 216.103245512 690.9921875 260 690.9921875 c 4
 305.363956105 690.9921875 307.392649025 714.9921875 339 714.9921875 c 0
 359.638619087 714.9921875 375 702.586613582 375 681.9921875 c 0x80
EndSplineSet
Validated: 1
EndChar

StartChar: dotaccent
Encoding: 729 729 152
Width: 198
Flags: W
HStem: 615.994 122.998<49.6762 148.324>
VStem: 35 128<630.176 723.824>
LayerCount: 2
Fore
SplineSet
35 677.9921875 m 0
 35 711.549838496 60.563198324 738.9921875 99 738.9921875 c 0
 137.108206371 738.9921875 163 711.362013657 163 675.994140625 c 0
 163 640.966287364 137.436801676 615.994140625 99 615.994140625 c 0
 60.8917936289 615.994140625 35 640.970252314 35 677.9921875 c 0
EndSplineSet
Validated: 1
EndChar

StartChar: lira
Encoding: 8356 8356 153
Width: 631
Flags: W
HStem: -9.99805 101<215.615 537.318> 211 100<22.7421 416.536> 635.442 103.558<389.107 518.96>
VStem: 9 418.998<211.342 307.797> 24 418.998<371.342 467.797> 87.998 110.802<108.697 203.1>
LayerCount: 2
Fore
SplineSet
219 211 m 0xf0
 72.0859375 211 9 211.341796875 9 259 c 0
 9 307.796875 69.154296875 311 222.998046875 311 c 0
 369.26953125 311 427.998046875 310.84765625 427.998046875 262 c 0
 427.998046875 211 372.350585938 211 219 211 c 0xf0
234 371 m 4
 87.0859375 371 24 371.341796875 24 419 c 4
 24 467.796875 84.154296875 471 237.998046875 471 c 4
 384.26953125 471 442.998046875 470.84765625 442.998046875 422 c 4xe8
 442.998046875 371 387.350585938 371 234 371 c 4
533.254882812 688.001953125 m 0
 533.254882812 655.737524503 505 643 450.225585938 635.442382812 c 0
 317.501007029 617.129424547 198.799804688 462.034945316 198.799804688 157.700195312 c 0
 198.799804688 101.803710938 233.663967978 91.001953125 344.998046875 91.001953125 c 0
 437.172851562 91.001953125 497.385742188 112.283203125 534.228515625 112.283203125 c 0
 566.490234375 112.283203125 581.497070312 88.751953125 581.497070312 65.001953125 c 0
 581.497070312 15.951171875 538.848632812 -9.998046875 344.499023438 -9.998046875 c 0
 133.791314702 -9.998046875 87.998046875 36.7109375 87.998046875 125.001953125 c 0xe4
 87.998046875 578.826171875 310.919507502 739 452.998046875 739 c 0
 506.466515384 739 533.254882812 719.639157946 533.254882812 688.001953125 c 0
EndSplineSet
Validated: 5
EndChar

StartChar: Euro
Encoding: 8364 8364 154
Width: 763
Flags: W
HStem: -10.0889 106.899<350.333 554.943> 241.934 92<41.4582 426.949> 632.101 106.899<349.164 551.318>
VStem: 115 117.9<336.55 387.763>
LayerCount: 2
Fore
SplineSet
228 241.93359375 m 0
 89.4803967928 241.93359375 30 242.247070312 30 285.93359375 c 0
 30 330.9765625 86.7810008132 333.93359375 231.998046875 333.93359375 c 0
 378.269684923 333.93359375 436.998046875 333.793945312 436.998046875 288.93359375 c 0
 436.998046875 241.93359375 381.350395191 241.93359375 228 241.93359375 c 0
240 391.93359375 m 0
 93.0852693257 391.93359375 30 392.247070312 30 435.93359375 c 0
 30 480.9765625 90.1541621893 483.93359375 243.998046875 483.93359375 c 0
 405.967129006 483.93359375 470.998046875 483.793945312 470.998046875 438.93359375 c 0
 470.998046875 391.93359375 409.492692905 391.93359375 240 391.93359375 c 0
449.299804688 96.810546875 m 0
 612.132662211 96.8105468755 616.888097985 195 673.14453125 195 c 0
 700.652956341 195 723.522460938 177.354506667 723.522460938 147.190429688 c 0
 723.522460938 85.2103751733 616.698407749 -10.0888671875 446 -10.0888671875 c 0
 248.909102583 -10.0888671875 115 118.65399777 115 359 c 0
 115 588.047661939 246.011391411 739 443 739 c 0
 613.343487279 739 720.522460938 637.310576642 720.522460938 571.720703125 c 0
 720.522460938 541.556626146 697.652956341 523.911132812 670.14453125 523.911132812 c 0
 613.888097985 523.911132812 609.132662211 632.100585938 446.299804688 632.100585938 c 0
 310.397174653 632.100585938 232.900390625 534.723374448 232.900390625 360.900390625 c 0
 232.900390625 181.570228414 312.538982131 96.8105468746 449.299804688 96.810546875 c 0
EndSplineSet
Validated: 5
EndChar

StartChar: integral
Encoding: 8747 8747 155
Width: 488
Flags: W
HStem: -190.064 85.998<-15.4744 79.3536> 675.002 85.998<360.146 457.598>
LayerCount: 2
Fore
SplineSet
222.698242188 2.59765625 m 0
 199.360700134 -131.064664935 133.29074315 -190.064453125 36.1318359375 -190.064453125 c 0
 -5.5823018158 -190.064453125 -21 -170.053228164 -21 -148.06640625 c 0
 -21 -119.433875943 -6.18509680782 -107.475778894 18.8232421875 -104.06640625 c 0
 93.460557527 -94.7224472349 114.590454362 -58.2932458981 128.984375 23.171875 c 0
 150.281531687 143.707168191 169.188437249 267.39355853 207.897460938 531.763671875 c 0
 232.623496744 700.634500069 302.832749466 761 405.998046875 761 c 0
 447.711914062 761 463.129882812 740.989257812 463.129882812 719.001953125 c 0
 463.129882812 690.369140625 448.289640095 678.595184998 423.306640625 675.001953125 c 0
 345.533475582 664.693091804 328.946809179 635.134630539 308.517578125 522.703125 c 0
 269.645204227 308.770475768 256.914339787 198.565295715 222.698242188 2.59765625 c 0
EndSplineSet
Validated: 1
EndChar

StartChar: partialdiff
Encoding: 8706 8706 156
Width: 605
Flags: W
HStem: -9.99805 100.899<204.058 369.651> 396.101 96.8994<222.62 390.046> 636 102.992<181.454 366.388>
VStem: 35 109.9<148.072 312.748> 446.1 123.9<194.28 446.761>
LayerCount: 2
Fore
SplineSet
446.099609375 259 m 0
 446.099609375 346.252001971 394.916027034 396.100585938 303.700195312 396.100585938 c 0
 202.908095351 396.100585938 144.900390625 316.406355497 144.900390625 222.301757812 c 0
 144.900390625 144.504288526 196.083972966 90.9013671875 287.299804688 90.9013671875 c 0
 388.091904649 90.9013671875 446.099609375 163.219593287 446.099609375 259 c 0
269 738.9921875 m 0
 476.065955351 738.9921875 570 597.16338679 570 364 c 0
 570 104.847840866 454.052808077 -9.998046875 285 -9.998046875 c 0
 134.272273137 -9.998046875 35 86.1447024402 35 221.001953125 c 0
 35 376.678452105 141.262860831 493 289 493 c 0
 420.963394499 493 461.823242188 419.362304688 461.823242188 419.362304688 c 5
 454.117452436 554.263767595 404.963118673 636 265 636 c 0
 235.196130607 636 206.758586805 629 189 629 c 0
 158 629 146 652.135652835 146 668 c 0
 146 708.884437311 182.067669173 738.9921875 269 738.9921875 c 0
EndSplineSet
Validated: 1
EndChar

StartChar: product
Encoding: 8719 8719 157
Width: 782
Flags: W
HStem: 638 101<204.084 569.456>
VStem: 52 110<45.1103 590.558> 620 110<45.1103 568.812>
LayerCount: 2
Fore
SplineSet
390.500976562 739 m 0
 527.582098921 739 614.916085385 735.843799096 663 692 c 0
 722.310756861 637.919359334 730 527.173284686 730 315 c 0
 730 -45.8124809419 698.236282388 -189.998046875 636 -189.998046875 c 4
 600.857106346 -189.998046875 587.868164062 -169.71196546 587.868164062 -135.998046875 c 4
 587.868164062 -78.8476167503 620 35.155771227 620 315.001953125 c 0
 620 463.347138471 610.167828116 566.385443502 584 602 c 0
 560.166308924 634.437783282 528.01306138 638 391 638 c 0
 248.307640739 638 214.91453641 634.559214904 190 602 c 0
 165.782887867 570.3522043 162 463.347138471 162 315.001953125 c 0
 162 35.155771227 194.131835938 -78.8476167503 194.131835938 -135.998046875 c 0
 194.131835938 -169.71196546 181.142893654 -189.998046875 146 -189.998046875 c 4
 83.7637176117 -189.998046875 52 -45.8124809419 52 315 c 0
 52 527.173284686 52.395074023 638.009528624 111 692 c 0
 160.358297137 737.471906743 250.491194976 739 390.500976562 739 c 0
EndSplineSet
Validated: 1
EndChar

StartChar: bullet
Encoding: 8226 8226 173
Width: 278
Flags: W
HStem: 260.002 202.998<72.8931 205.107>
VStem: 35 208<297.092 423.989>
LayerCount: 2
Fore
SplineSet
35 362 m 0
 35 417.562612065 76.5406494141 463 139 463 c 4
 200.926147461 463 243 417.826790571 243 360.001953125 c 0
 243 301.621419271 201.459350586 260.001953125 139 260.001953125 c 4
 77.0738525391 260.001953125 35 301.092934552 35 362 c 0
EndSplineSet
Validated: 1
EndChar

StartChar: uni20BF
Encoding: 8383 8383 174
Width: 662
Flags: W
HStem: -109.998 188.998<196.278 258.747 396.278 458.747> -10 99<198.205 455.095> 318.499 88.002<180.511 450.785> 638 101<197.781 431.484> 650.002 188.998<196.278 258.747 396.278 458.747>
VStem: 52 115.818<119.196 609.169> 181.5 94<-96.2928 75.3444 653.658 825.295> 381.5 94<-96.2928 75.3444 653.658 825.295> 497.601 111.9<447.819 579.44> 515.601 112.399<140.823 267.69>
LayerCount: 2
Fore
SplineSet
381.5 0.001953125 m 4xa7
 381.5 68.1923942057 390.5 79 429.5 79 c 4
 467.357421875 79 475.5 67.3500482795 475.5 4 c 4
 475.5 -59.6784597797 462.481445312 -109.998046875 426.5 -109.998046875 c 4
 391.8203125 -109.998046875 381.5 -58.6200669643 381.5 0.001953125 c 4xa7
381.5 729 m 4
 381.5 787.622020089 391.8203125 839 426.5 839 c 4
 462.481445312 839 475.5 788.680412905 475.5 725.001953125 c 4
 475.5 661.651904846 467.357421875 650.001953125 429.5 650.001953125 c 4x2f
 390.5 650.001953125 381.5 660.809558919 381.5 729 c 4
181.5 0.001953125 m 4
 181.5 68.1923942057 190.5 79 229.5 79 c 4
 267.357421875 79 275.5 67.3500482795 275.5 4 c 4
 275.5 -59.6784597797 262.481445312 -109.998046875 226.5 -109.998046875 c 4xa7
 191.8203125 -109.998046875 181.5 -58.6200669643 181.5 0.001953125 c 4
181.5 729 m 4
 181.5 787.622020089 191.8203125 839 226.5 839 c 4
 262.481445312 839 275.5 788.680412905 275.5 725.001953125 c 4
 275.5 661.651904846 267.357421875 650.001953125 229.5 650.001953125 c 4x2f
 190.5 650.001953125 181.5 660.809558919 181.5 729 c 4
EndSplineSet
Refer: 18 66 N 1 0 0 1 0 0 2
Validated: 5
EndChar

StartChar: uni20B5
Encoding: 8373 8373 175
Width: 683
Flags: W
HStem: -10.0889 106.899<269.149 476.477> 632.101 106.899<269.164 471.319>
VStem: 35 117.9<226.215 496.145> 322.5 94<106.898 591.948>
LayerCount: 2
Fore
SplineSet
322.5 339 m 0
 322.5 784.03515625 332.8203125 839 367.5 839 c 0
 403.481445312 839 416.5 791.533203125 416.5 335.001953125 c 0
 416.5 -40.875 408.357421875 -109.998046875 370.5 -109.998046875 c 0
 331.5 -109.998046875 322.5 -48.5712890625 322.5 339 c 0
369.299804688 96.810546875 m 0
 532.1328125 96.810546875 536.887695312 195 593.14453125 195 c 0
 620.653320312 195 643.522460938 177.354492188 643.522460938 147.190429688 c 0
 643.522460938 85.2099609375 536.698242188 -10.0888671875 366 -10.0888671875 c 0
 168.909179688 -10.0888671875 35 118.654296875 35 359 c 0
 35 588.047851562 166.01171875 739 363 739 c 0
 533.34375 739 640.522460938 637.310546875 640.522460938 571.720703125 c 0
 640.522460938 541.556640625 617.653320312 523.911132812 590.14453125 523.911132812 c 0
 533.887695312 523.911132812 529.1328125 632.100585938 366.299804688 632.100585938 c 0
 230.397460938 632.100585938 152.900390625 534.723632812 152.900390625 360.900390625 c 0
 152.900390625 181.5703125 232.5390625 96.810546875 369.299804688 96.810546875 c 0
EndSplineSet
Validated: 5
EndChar

StartChar: uni20B8
Encoding: 8376 8376 176
Width: 633
Flags: W
HStem: -9.99805 21G<293.938 340.543> -9.99805 21G<293.938 340.543> 416.719 122.281<77.6459 264.794 368.237 556.078> 438 81<170.794 462.425> 638 101<78.5597 555.052>
VStem: 259.5 114<8.57186 432.698>
LayerCount: 2
Fore
SplineSet
316.499023438 638 m 0x0c
 199.96875 638 123.845703125 616.71875 77.2685546875 616.71875 c 0
 45.0068359375 616.71875 30 640.25 30 664 c 0
 30 713.05078125 81.646484375 739 316.998046875 739 c 0
 552.349609375 739 603.499023438 713.050442536 603.499023438 664 c 0
 603.499023438 640.250003017 588.491843991 616.71875 556.23046875 616.71875 c 0
 509.653351013 616.71875 433.029296875 638 316.499023438 638 c 0x0c
316.499023438 438 m 0x1c
 199.96875 438 123.845703125 416.71875 77.2685546875 416.71875 c 0
 45.0068359375 416.71875 30 440.25 30 464 c 0
 30 513.05078125 81.646484375 539 316.998046875 539 c 0
 552.349609375 539 603.499023438 513.050442536 603.499023438 464 c 0
 603.499023438 440.250003017 588.491843991 416.71875 556.23046875 416.71875 c 0x2c
 509.653351013 416.71875 433.029296875 438 316.499023438 438 c 0x1c
259.5 159 m 0
 259.5 479.425488282 262.114257812 519 314.5 519 c 0
 370.82421875 519 373.5 484.718400793 373.5 155.001953125 c 0
 373.5 41.0164937814 363.586914062 -9.998046875 317.5 -9.998046875 c 0x9c
 270.375 -9.998046875 259.5 38.5997591291 259.5 159 c 0
EndSplineSet
Validated: 5
EndChar

StartChar: uni20BC
Encoding: 8380 8380 177
Width: 893
Flags: W
HStem: -9.99805 21G<90.7286 136.841 423.938 470.543 756.291 798.441> -9.99805 21G<90.7286 136.841 423.938 470.543 756.291 798.441> 463.101 105.899<303.676 581.984> 719 20G<423.307 466.162>
VStem: 52 109.9<25.7471 329.565> 389.5 114<61.2778 457.429> 731.1 109.9<31.3031 317.512>
CounterMasks: 1 0e
LayerCount: 2
Fore
SplineSet
52 194.001953125 m 4xbe
 52 417.930836144 173.640620627 569 443 569 c 0
 718.431299446 569 841 412.091677989 841 192 c 4
 841 84.4239394369 823.750239772 -9.998046875 773.131835938 -9.998046875 c 0
 739.44921875 -9.998046875 727 10.288034539 727 44.001953125 c 0
 727 74.5380610085 731.099609375 112.750972925 731.099609375 191.700195312 c 4
 731.099609375 351.371103654 665.981709232 463.100585938 442.700195312 463.100585938 c 0
 225.530753119 463.100585938 161.900390625 356.077261778 161.900390625 198.1015625 c 4
 161.900390625 113.595639641 166.131835938 74.8945514802 166.131835938 44.001953125 c 0
 166.131835938 10.288034539 153.682617188 -9.998046875 120 -9.998046875 c 0
 61.4572917998 -9.998046875 52 84.7685740658 52 194.001953125 c 4xbe
389.5 339 m 0
 389.5 695.028320312 402.114257812 739 444.5 739 c 0
 487.82421875 739 503.5 700.951171875 503.5 335.001953125 c 0
 503.5 43.591796875 493.586914062 -9.998046875 447.5 -9.998046875 c 0
 400.375 -9.998046875 389.5 37.748046875 389.5 339 c 0
EndSplineSet
Validated: 5
EndChar

StartChar: dong
Encoding: 8363 8363 178
Width: 607
Flags: W
HStem: -10 81<70.4808 532.784> 140.004 81.8994<214.094 371.361> 483.103 87.8994<218.301 372.46> 599 78<316.791 592.173>
VStem: 65 97.9004<272.786 428.723> 426.1 108.032<269.024 518.033> 439.132 54.8682<256.078 539.149>
LayerCount: 2
Fore
SplineSet
290 -10 m 0xf8
 149.706043199 -10 30 0.469645655365 30 50 c 0
 30 74.6463854905 47.6486531248 85.3564453125 69.935546875 85.3564453125 c 0
 126.159728635 85.3564453125 156.716314773 71 293.998046875 71 c 0
 439.454889303 71 475.37872958 87.478515625 533.87109375 87.478515625 c 0
 564.872517043 87.478515625 576.998046875 75.1462875259 576.998046875 51 c 0
 576.998046875 0.0422535214909 459.138431479 -10 290 -10 c 0xf8
438.001953125 599 m 0
 349.85334329 599 312.001953125 599.263605291 312.001953125 636 c 0
 312.001953125 674.474202474 348.543885055 677 442 677 c 0
 552.595412796 677 597 676.882074652 597 639 c 0
 597 599 554.665478131 599 438.001953125 599 c 0
534.131835938 441.001953125 m 0xfc
 534.131835938 261.31808878 524.219594576 140.00390625 465.131835938 140.00390625 c 0
 433.63963345 140.00390625 422 159.538651316 422 192.00390625 c 0
 422 223.528514353 439.131835938 286.41364261 439.131835938 440.00390625 c 0xfa
 439.131835938 605.977459788 417 665.774552149 417 708 c 0
 417 731.46720806 427.290324616 751.001953125 455.131835938 751.001953125 c 0
 504.664523951 751.001953125 534.131835938 626.423644542 534.131835938 441.001953125 c 0xfc
162.900390625 349.90234375 m 0
 162.900390625 272.360347045 211.523860566 221.903320312 294.700195312 221.903320312 c 0
 378.381427684 221.903320312 426.099609375 276.729750388 426.099609375 356.303710938 c 0xfc
 426.099609375 429.729922784 376.738301163 483.102539062 292.299804688 483.102539062 c 0
 209.892264942 483.102539062 162.900390625 425.452626688 162.900390625 349.90234375 c 0
65 348.001953125 m 0
 65 470.679923158 151.675219318 571.001953125 282 571.001953125 c 0
 408.233433604 571.001953125 494 472.320558099 494 346.00390625 c 0xfa
 494 225.741610054 406.525930735 140.00390625 275 140.00390625 c 0
 149.957447845 140.00390625 65 223.796585404 65 348.001953125 c 0
EndSplineSet
Validated: 5
EndChar

StartChar: uni20AD
Encoding: 8365 8365 179
Width: 767
Flags: W
HStem: -9.99805 21G<196.039 244.841> -9.99805 21G<196.039 244.841> 312.934 102<86.5485 613.08> 719 20G<196.039 244.841 636.274 671.25>
VStem: 142 132.132<76.5215 311.287 416.882 652.884> 162.501 89.499<215.613 512.447>
LayerCount: 2
Fore
SplineSet
350 312.93359375 m 0x30
 126.130859375 312.93359375 30 313.282226562 30 361.93359375 c 0
 30 411.668945312 121.07421875 414.93359375 353.998046875 414.93359375 c 0
 621.567382812 414.93359375 728.998046875 414.778320312 728.998046875 364.93359375 c 0
 728.998046875 312.93359375 628.086914062 312.93359375 350 312.93359375 c 0x30
142 365 m 0xb8
 142 603.086914062 164.078125 739 228 739 c 0
 261.682617188 739 274.131835938 718.713867188 274.131835938 685 c 0xb8
 274.131835938 644.1953125 252 562.80078125 252 364.001953125 c 0xb4
 252 165.821289062 274.131835938 84.6787109375 274.131835938 44.001953125 c 0
 274.131835938 10.2880859375 261.682617188 -9.998046875 228 -9.998046875 c 0
 164.078125 -9.998046875 142 126.7734375 142 365 c 0xb8
284.500976562 313.500976562 m 0
 181.134765625 313.500976562 162.500976562 313.850585938 162.500976562 362.500976562 c 0
 162.500976562 412.235351562 183.0546875 415.500976562 288.499023438 415.500976562 c 0
 429.623046875 415.500976562 496.580078125 505.166015625 564 632 c 0
 598.482421875 692.478515625 617.548828125 739 655 739 c 0
 687.500976562 739 701.131835938 720.967773438 701.131835938 691 c 0
 701.131835938 619.534179688 582.173828125 419.053710938 450 367.001953125 c 1
 596.452148438 322.392578125 711.131835938 108.557617188 711.131835938 34.001953125 c 0
 711.131835938 6.53125 697.41015625 -9.998046875 668 -9.998046875 c 0x74
 622.340820312 -9.998046875 612.864257812 25.9189453125 582 81 c 0
 498.606445312 239.831054688 435.974609375 313.500976562 284.500976562 313.500976562 c 0
EndSplineSet
Validated: 5
EndChar

StartChar: uni20B2
Encoding: 8370 8370 180
Width: 723
Flags: W
HStem: -10.0889 106.899<269.149 485.548> 309.501 93<441.877 577.125> 632.101 106.899<269.164 473.466>
VStem: 35 117.9<226.215 496.145> 322.5 94<106.898 591.948> 580 108.499<181.08 307.507>
LayerCount: 2
Fore
SplineSet
322.5 339 m 0
 322.5 784.03515625 332.8203125 839 367.5 839 c 0
 403.481445312 839 416.5 791.533203125 416.5 335.001953125 c 0
 416.5 -40.875 408.357421875 -109.998046875 370.5 -109.998046875 c 0
 331.5 -109.998046875 322.5 -48.5712890625 322.5 339 c 0
366 -10.0888671875 m 0
 168.909179688 -10.0888671875 35 118.654296875 35 359 c 0
 35 588.047851562 166.01171875 739 363 739 c 0
 536.41275835 739 645.522460938 637.310546875 645.522460938 571.720703125 c 4
 645.522460938 541.556640625 622.653320312 523.911132812 595.14453125 523.911132812 c 4
 537.631091308 523.911132812 532.769999096 632.100585938 366.299804688 632.100585938 c 0
 230.397460938 632.100585938 152.900390625 534.723632812 152.900390625 360.900390625 c 0
 152.900390625 181.5703125 232.5390625 96.810546875 369.299804688 96.810546875 c 0
 502.648626411 96.810546875 580 154.890426588 580 262 c 0
 580 299.981800895 574.111411066 309.500976562 540 309.500976562 c 0
 509.611377445 309.500976562 491.917631977 307.375 466 307.375 c 0
 446.327189415 307.375 432.500976562 322.441976927 432.500976562 349 c 0
 432.500976562 392.510646446 460.114307929 402.500976562 557.500976562 402.500976562 c 0
 667.655058113 402.500976562 688.499023438 360.458129837 688.499023438 267 c 0
 688.499023438 89.1134744872 564.362574385 -10.0888671875 366 -10.0888671875 c 0
EndSplineSet
Validated: 5
EndChar

StartChar: uni20B3
Encoding: 8371 8371 181
Width: 798
Flags: W
HStem: -10 21G<122.833 159.523 636.887 674.676> -10 21G<122.833 159.523 636.887 674.676> 168.501 92<252.941 547.859> 313.501 92<300.496 501.392> 718.998 20G<372.988 426.701>
VStem: 94.499 119<32.2901 163.165> 582.911 122<32.6322 164.241>
LayerCount: 2
Fore
SplineSet
395 168.500976562 m 0x3e
 76.7734375 168.500976562 15 168.814453125 15 212.500976562 c 0
 15 257.543945312 71.1650390625 260.500976562 398.998046875 260.500976562 c 0
 704.1953125 260.500976562 783.998046875 260.361328125 783.998046875 215.500976562 c 0
 783.998046875 168.500976562 710.779296875 168.500976562 395 168.500976562 c 0x3e
395 313.500976562 m 4
 112.375976562 313.500976562 55 313.814453125 55 357.500976562 c 4
 55 402.543945312 107.3984375 405.500976562 398.998046875 405.500976562 c 4
 670.408203125 405.500976562 743.998046875 405.361328125 743.998046875 360.500976562 c 4
 743.998046875 313.500976562 676.251953125 313.500976562 395 313.500976562 c 4
399.911132812 607.998046875 m 0
 375.573242188 607.998046875 288.98888453 431.463039877 213.499023438 109.458984375 c 0
 191.259591719 14.5960835563 179.827148438 -10 139.21875 -10 c 0
 106.448242188 -10 94.4990234375 18.4306640625 94.4990234375 51 c 0
 94.4990234375 132.387695312 169.193741061 393.170718632 236.94921875 537 c 0
 310.129882812 692.345703125 346.065429688 738.998046875 399.911132812 738.998046875 c 0
 453.491210938 738.998046875 489.457312033 692.110483714 562.4609375 537 c 0
 627.431640625 398.95703125 704.911132812 132.387695312 704.911132812 51 c 0
 704.911132812 18.4306640625 692.16015625 -10 657.19140625 -10 c 0xbe
 616.583007812 -10 604.314274913 15.3691992595 582.911132812 109.458984375 c 0
 510.387695312 428.27734375 423.0625 607.998046875 399.911132812 607.998046875 c 0
EndSplineSet
Validated: 5
EndChar

StartChar: franc
Encoding: 8355 8355 182
Width: 623
Flags: W
HStem: -9.99805 21G<156.039 204.841> -9.99805 21G<156.039 204.841> 136.934 92<19.8379 369.439> 326.501 102<216.04 481.928> 638 101<251.001 549.297>
VStem: 10 368.998<137.247 225.977> 102 132.132<76.5214 135.765> 132.501 79.499<246.336 456.128>
LayerCount: 2
Fore
SplineSet
180 136.93359375 m 0x3c
 61.0693359375 136.93359375 10 137.247070312 10 180.93359375 c 0
 10 225.9765625 58.91015625 228.93359375 183.998046875 228.93359375 c 0
 323.13421136 228.93359375 378.998046875 228.793945312 378.998046875 183.93359375 c 0
 378.998046875 136.93359375 326.013199998 136.93359375 180 136.93359375 c 0x3c
212 364.001953125 m 0xb9
 212 165.820967783 234.131835938 84.6788668058 234.131835938 44.001953125 c 0
 234.131835938 10.2880345395 221.682617188 -9.998046875 188 -9.998046875 c 0
 124.078339629 -9.998046875 102 126.773229598 102 365 c 0xba
 102 549.033591757 109.238425926 644.428576107 161 692 c 0
 201.332900096 729.067912281 261.563555645 739 362.500976562 739 c 0
 549.326413182 739 593.499023438 713.050442536 593.499023438 664 c 0
 593.499023438 640.250003017 578.491843991 616.71875 546.23046875 616.71875 c 0
 506.268464545 616.71875 464.980051581 638 365 638 c 0
 276.260970609 638 257.281300547 632.114664779 240 602 c 0
 222.216841664 571.010789983 212 487.019739343 212 364.001953125 c 0xb9
282.500976562 326.500976562 m 4
 148.990356445 326.500976562 132.500976562 326.850244634 132.500976562 375.500976562 c 4x39
 132.500976562 425.235669089 147.00462395 428.500976562 286.499023438 428.500976562 c 4
 446.213159997 428.500976562 491.499023438 428.34565915 491.499023438 378.500976562 c 4
 491.499023438 326.500976562 449.378730513 326.500976562 282.500976562 326.500976562 c 4
EndSplineSet
Validated: 5
EndChar

StartChar: peseta
Encoding: 8359 8359 183
Width: 800
Flags: W
HStem: -9.99805 21G<177.924 228.937> -9.99805 21G<177.924 228.937> 226.501 99.4004<254.59 489.381> 426.934 92<240.975 551.691> 633.101 105.899<264.494 478.956>
VStem: 122 110<224.416 599.481> 562.1 111.9<391.805 557.266>
LayerCount: 2
Back
SplineSet
241.998046875 380 m 4
 260.50390625 362.228515625 290.75 355.901367188 371.698242188 355.901367188 c 4
 490.650390625 355.901367188 532.09765625 409.50390625 532.09765625 487.301757812 c 4
 532.09765625 582.959960938 466.854492188 633.100585938 359.297851562 633.100585938 c 4
 286.342773438 633.100585938 269.388671875 624.172851562 249.998046875 608 c 4
 227.478515625 589.216796875 221.998046875 538.432617188 221.998046875 464.001953125 c 4
 221.998046875 435.168945312 223.708007812 397.565429688 241.998046875 380 c 4
231.366210938 269.635742188 m 5
 233.559570312 142.762695312 250.129882812 80.5546875 250.129882812 45.001953125 c 4
 250.129882812 10.6640625 236.87109375 -9.998046875 200.998046875 -9.998046875 c 4
 134.846679688 -9.998046875 111.998046875 126.7734375 111.998046875 365 c 4
 111.998046875 549.033203125 119.236328125 644.428710938 170.998046875 692 c 4
 210.260742188 728.084960938 266.583007812 739 362.998046875 739 c 4
 540.31640625 739 643.998046875 628.4765625 643.998046875 487.001953125 c 4
 643.998046875 352.436523438 554.657226562 256.500976562 384.499023438 256.500976562 c 4
 273.655273438 256.500976562 231.366210938 269.635742188 231.366210938 269.635742188 c 5
209.998046875 106.93359375 m 4
 84.0712890625 106.93359375 29.998046875 107.247070312 29.998046875 150.93359375 c 4
 29.998046875 195.9765625 81.71875 198.93359375 213.99609375 198.93359375 c 4
 345.997070312 198.93359375 398.99609375 198.793945312 398.99609375 153.93359375 c 4
 398.99609375 106.93359375 348.673828125 106.93359375 209.998046875 106.93359375 c 4
EndSplineSet
Fore
SplineSet
252 350 m 0x3e
 270.020507812 331.736328125 300.751953125 325.901367188 381.700195312 325.901367188 c 0
 515.484375 325.901367188 562.099609375 387.663085938 562.099609375 477.301757812 c 0
 562.099609375 579.521484375 489.3046875 633.100585938 369.299804688 633.100585938 c 0
 296.344726562 633.100585938 279.250976562 624.33984375 260 608 c 0
 237.48046875 588.885742188 232 528.770507812 232 444.001953125 c 0
 232 411.736328125 233.709960938 368.537109375 252 350 c 0x3e
241.368164062 239.635742188 m 1
 243.561523438 129.706054688 260.131835938 75.806640625 260.131835938 45.001953125 c 0
 260.131835938 10.6640625 246.873046875 -9.998046875 211 -9.998046875 c 0xbe
 144.848632812 -9.998046875 122 126.7734375 122 365 c 0
 122 549.033203125 129.23828125 644.428710938 181 692 c 0
 220.262695312 728.084960938 276.584960938 739 373 739 c 0
 562.938476562 739 674 624.090820312 674 477.001953125 c 0
 674 330.759765625 577.7734375 226.500976562 394.500976562 226.500976562 c 0
 283.657226562 226.500976562 241.368164062 239.635742188 241.368164062 239.635742188 c 1
390 426.93359375 m 4
 78.1474609375 426.93359375 30 427.247070312 30 470.93359375 c 4
 30 515.9765625 72.318359375 518.93359375 393.998046875 518.93359375 c 4
 724.967773438 518.93359375 770.998046875 518.793945312 770.998046875 473.93359375 c 4
 770.998046875 426.93359375 731.505859375 426.93359375 390 426.93359375 c 4
EndSplineSet
Validated: 5
EndChar

StartChar: uni20A6
Encoding: 8358 8358 184
Width: 929
Flags: W
HStem: -9.99805 141.688<627.917 706.589> -9.99805 21G<215.039 263.841> 221.934 92<37.523 204.669 725.329 892.475> 371.934 92<37.523 204.669 725.329 892.475> 596.738 142.262<222.636 311.791>
VStem: 161 110<91.9398 595.939> 161 59.998<221.934 313.794 371.934 463.794> 670.132 110<134.639 635.568> 709 71.1318<221.934 313.794 371.934 463.794>
LayerCount: 2
Fore
SplineSet
769.998046875 221.93359375 m 0x3880
 725.241290848 221.93359375 709 221.93359375 709 268.93359375 c 0
 709 313.793945312 725.329349421 313.93359375 766 313.93359375 c 0
 862.331627193 313.93359375 899.998046875 310.9765625 899.998046875 265.93359375 c 0
 899.998046875 222.247070312 860.945261102 221.93359375 769.998046875 221.93359375 c 0x3880
769.998046875 371.93359375 m 0
 725.241290848 371.93359375 709 371.93359375 709 418.93359375 c 0
 709 463.793945312 725.329349421 463.93359375 766 463.93359375 c 0
 862.331627193 463.93359375 899.998046875 460.9765625 899.998046875 415.93359375 c 0
 899.998046875 372.247070312 860.945261102 371.93359375 769.998046875 371.93359375 c 0
160 221.93359375 m 0
 69.052785773 221.93359375 30 222.247070312 30 265.93359375 c 0
 30 310.9765625 67.6664196822 313.93359375 163.998046875 313.93359375 c 0
 204.668697454 313.93359375 220.998046875 313.793945312 220.998046875 268.93359375 c 0x3a
 220.998046875 221.93359375 204.756756027 221.93359375 160 221.93359375 c 0
160 371.93359375 m 0
 69.052785773 371.93359375 30 372.247070312 30 415.93359375 c 0
 30 460.9765625 67.6664196822 463.93359375 163.998046875 463.93359375 c 0
 204.668697454 463.93359375 220.998046875 463.793945312 220.998046875 418.93359375 c 0
 220.998046875 371.93359375 204.756756027 371.93359375 160 371.93359375 c 0
646 131.690429688 m 0xbd
 669.375627937 131.690429688 670.131835938 246.333504334 670.131835938 364.001953125 c 0
 670.131835938 562.800322806 648 644.195798439 648 685 c 0
 648 718.713918586 660.44921875 739 694.131835938 739 c 0
 748.053496308 739 780.131835938 603.086914062 780.131835938 365 c 0
 780.131835938 82 745.177637298 -9.998046875 668 -9.998046875 c 0xbd
 584.192746527 -9.998046875 546.035856659 64.22538008 417.165039062 346.52734375 c 0
 318.546693819 562.558816472 307.62148759 596.73828125 293 596.73828125 c 0
 271.62962963 596.73828125 271 479.547257663 271 364.001953125 c 0
 271 165.820967783 293.131835938 84.6788668058 293.131835938 44.001953125 c 0
 293.131835938 10.2880345395 280.682617188 -9.998046875 247 -9.998046875 c 0x7d
 183.078339629 -9.998046875 161 126.773229598 161 365 c 0
 161 603.086914062 179.271729348 739 266 739 c 0
 329.536780499 739 374.197655713 702.342228738 521.298828125 386.010742188 c 0
 629.281665062 153.800687229 631.731837831 131.690429688 646 131.690429688 c 0xbd
EndSplineSet
Validated: 5
EndChar

StartChar: uni20A9
Encoding: 8361 8361 185
Width: 1114
Flags: W
HStem: -9.99805 131.285<323.539 357.388 748.145 783.723> 248.501 92<46.1729 237.728 876.27 1067.83> 393.501 92<26.3237 217.753 896.245 1087.67> 718.992 20G<132.951 166.513 936.886 969.747>
VStem: 15 203.998<408.38 472.926> 35 203.998<263.38 327.926> 102 118.097<515.329 688.643> 875 203.998<263.38 327.926> 894.869 107.984<530.347 720.301> 895 203.998<408.38 472.926>
LayerCount: 2
Fore
SplineSet
928.998046875 485.500976562 m 0xf040
 1037.36256168 485.500976562 1098.99804688 485.1875 1098.99804688 441.500976562 c 0
 1098.99804688 396.458007812 1039.65226647 393.500976562 925 393.500976562 c 0
 901.218394886 393.500976562 895 393.640625 895 438.500976562 c 0
 895 485.500976562 901.399246769 485.500976562 928.998046875 485.500976562 c 0xf040
908.998046875 340.500976562 m 0
 1018.43505859 340.500976562 1078.99804688 340.1875 1078.99804688 296.500976562 c 0
 1078.99804688 251.458007812 1020.66504299 248.500976562 905 248.500976562 c 0
 881.399116848 248.500976562 875 248.640625 875 293.500976562 c 0xf1
 875 340.500976562 881.599563784 340.500976562 908.998046875 340.500976562 c 0
185 485.500976562 m 0
 212.598800106 485.500976562 218.998046875 485.500976562 218.998046875 438.500976562 c 0
 218.998046875 393.640625 212.779651989 393.500976562 188.998046875 393.500976562 c 0
 74.3457804081 393.500976562 15 396.458007812 15 441.500976562 c 0xf8
 15 485.1875 76.6354851974 485.500976562 185 485.500976562 c 0
205 340.500976562 m 0
 232.398483091 340.500976562 238.998046875 340.500976562 238.998046875 293.500976562 c 0
 238.998046875 248.640625 232.598930027 248.500976562 208.998046875 248.500976562 c 0
 93.3330038845 248.500976562 35 251.458007812 35 296.500976562 c 0xf4
 35 340.1875 95.5629882813 340.500976562 205 340.500976562 c 0
EndSplineSet
Refer: 14 87 S 1 0 0 1 70 0 2
Validated: 5
EndChar

